<?xml version="1.0" encoding="utf-8"?>
<!-- Generator: Adobe Illustrator 19.1.1, SVG Export Plug-In . SVG Version: 6.00 Build 0)  -->
<svg version="1.1" id="Layer_1" xmlns="http://www.w3.org/2000/svg" xmlns:xlink="http://www.w3.org/1999/xlink" x="0px" y="0px"
	 viewBox="0 0 512 512" style="enable-background:new 0 0 512 512;" xml:space="preserve">
<style type="text/css">
	.st0{fill:#15273F;}
	.st1{filter:url(#AI_GaussianBlur_7);}
	.st2{fill:none;stroke:#94FFFC;stroke-width:39;stroke-miterlimit:10;}
	.st3{fill:none;stroke:#00FFFF;stroke-width:39;stroke-miterlimit:10;}
	.st4{filter:url(#AI_Shadow_2);}
	.st5{fill:#556C77;}
	.st6{fill:none;stroke:#00FFFF;stroke-width:18;stroke-miterlimit:10;}
	.st7{fill:#FCEE21;}
	.st8{fill:#EDD318;}
	.st9{fill:#444444;}
	.st10{fill:#D1B028;}
	.st11{fill:#69D1CF;}
	.st12{fill:#D1BA30;}
	.st13{fill:#78DDD8;}
	.st14{fill:#BAA422;}
	.st15{clip-path:url(#SVGID_7_);}
	.st16{fill:#808080;}
	.st17{clip-path:url(#SVGID_9_);}
	.st18{fill:#D85339;}
	.st19{clip-path:url(#SVGID_11_);}
	.st20{fill:#F48176;}
	.st21{fill:#E86660;}
	.st22{fill:#E25656;}
	.st23{clip-path:url(#SVGID_12_);}
	.st24{clip-path:url(#SVGID_13_);}
	.st25{fill:none;stroke:#F48176;stroke-width:33;stroke-miterlimit:10;}
	.st26{clip-path:url(#SVGID_14_);}
	.st27{fill:#CE4242;}
	.st28{clip-path:url(#SVGID_15_);}
	.st29{fill:#BA453F;}
	.st30{fill:#C14C4C;}
	.st31{fill:none;stroke:#D85339;stroke-width:14;stroke-miterlimit:10;}
	.st32{fill:none;stroke:#D85339;stroke-width:13;stroke-miterlimit:10;}
	.st33{clip-path:url(#SVGID_16_);}
</style>
<g>
	<g>
		<rect x="0" class="st18" width="512" height="512"/>
		<g>
			<defs>
				<rect id="SVGID_3_" x="0" width="512" height="512"/>
			</defs>
			<clipPath id="SVGID_7_">
				<use xlink:href="#SVGID_3_"  style="overflow:visible;"/>
			</clipPath>
			<g class="st15">
				<g>
					<g>
						<g>
							<rect x="28.4" y="28.7" class="st20" width="200" height="67.9"/>
							<polygon class="st21" points="6.8,5.8 28.4,29 228.7,29 250.2,6 							"/>
							<polygon class="st21" points="28.7,97 228.7,97 250.2,121 6.9,121 							"/>
							<polygon class="st22" points="28.4,28.6 6.8,5.6 6.9,120 28.7,96.7 							"/>
							<polygon class="st22" points="228.8,96.4 250,120 250,5.3 228.3,28.6 							"/>
						</g>
					</g>
					<g>
						<g>
							<rect x="-101.2" y="157.1" class="st20" width="200" height="67.9"/>
							<polygon class="st21" points="-122.8,134 -101.2,157 99.2,157 120.7,134.1 							"/>
							<polygon class="st21" points="-100.8,226 99.2,226 120.7,249 -122.7,249 							"/>
							<polygon class="st22" points="99.5,224.9 121,248.4 121,133.7 99.2,157 							"/>
						</g>
					</g>
					<g>
						<g>
							<rect x="28.4" y="285.5" class="st20" width="200" height="67.9"/>
							<polygon class="st21" points="6.8,262.7 28.4,286 228.7,286 250.2,263 							"/>
							<polygon class="st21" points="28.7,354 228.7,354 250.2,377 6.9,377 							"/>
							<polygon class="st22" points="28.4,285.4 6.8,262.4 6.9,376.8 28.7,353.5 							"/>
							<polygon class="st22" points="228.8,353.3 250,376.8 250,262.1 228.3,285.4 							"/>
						</g>
					</g>
					<g>
						<g>
							<rect x="-101.2" y="413.9" class="st20" width="200" height="67.9"/>
							<polygon class="st21" points="-122.8,391.4 -101.2,415 99.2,415 120.7,391.8 							"/>
							<polygon class="st21" points="-100.8,482 99.2,482 120.7,506 -122.7,506 							"/>
							<polygon class="st22" points="99.5,481.7 121,505.2 121,390.5 99.2,413.8 							"/>
						</g>
					</g>
				</g>
				<g>
					<g>
						<g>
							<rect x="285.7" y="28.7" class="st20" width="200" height="67.9"/>
							<polygon class="st21" points="264.1,5.8 285.7,29 486,29 507.5,6 							"/>
							<polygon class="st21" points="286,97 486,97 507.5,121 264.2,121 							"/>
							<polygon class="st22" points="285.7,28.6 264.1,5.6 264.2,120 286,96.7 							"/>
							<polygon class="st22" points="486.4,96.4 508,120 508,5.3 486.1,28.6 							"/>
						</g>
					</g>
					<g>
						<g>
							<rect x="156.2" y="157.1" class="st20" width="200" height="67.9"/>
							<polygon class="st21" points="134.5,134 156.2,157 356.5,157 378,134.1 							"/>
							<polygon class="st21" points="156.5,226 356.5,226 378,249 134.6,249 							"/>
							<polygon class="st22" points="156.2,157 134.5,134 134.6,248.4 156.5,225.1 							"/>
							<polygon class="st22" points="356.7,224.9 378,248.4 378,133.7 356.2,157 							"/>
						</g>
					</g>
					<g>
						<g>
							<rect x="285.7" y="285.5" class="st20" width="200" height="67.9"/>
							<polygon class="st21" points="264.1,262.7 285.7,286 486,286 507.5,263 							"/>
							<polygon class="st21" points="286,354 486,354 507.5,377 264.2,377 							"/>
							<polygon class="st22" points="285.7,285.4 264.1,262.4 264.2,376.8 286,353.5 							"/>
							<polygon class="st22" points="486.4,353.3 508,376.8 508,262.1 486.1,285.4 							"/>
						</g>
					</g>
					<g>
						<g>
							<rect x="156.2" y="413.9" class="st20" width="200" height="67.9"/>
							<polygon class="st21" points="134.5,391.4 156.2,415 356.5,415 378,391.8 							"/>
							<polygon class="st21" points="156.5,482 356.5,482 378,506 134.6,506 							"/>
							<polygon class="st22" points="156.2,413.8 134.5,390.8 134.6,505.2 156.5,481.9 							"/>
							<polygon class="st22" points="356.7,481.7 378,505.2 378,390.5 356.2,413.8 							"/>
						</g>
					</g>
				</g>
				<g>
					<g>
						<g>
							<rect x="412.6" y="157.1" class="st20" width="200" height="67.9"/>
							<polygon class="st21" points="390.9,134 412.6,157 612.9,157 634.4,134.1 							"/>
							<polygon class="st21" points="412.9,226 612.9,226 634.4,249 391,249 							"/>
							<polygon class="st22" points="412.6,157 390.9,134 391,248.4 412.9,225.1 							"/>
						</g>
					</g>
					<g>
						<g>
							<rect x="412.6" y="413.9" class="st20" width="200" height="67.9"/>
							<polygon class="st21" points="390.9,391.4 412.6,415 612.9,415 634.4,391.8 							"/>
							<polygon class="st21" points="412.9,482 612.9,482 634.4,506 391,506 							"/>
							<polygon class="st22" points="412.6,413.8 390.9,390.8 391,505.2 412.9,481.9 							"/>
						</g>
					</g>
				</g>
			</g>
		</g>
	</g>
	<g>
		<rect x="75" y="75" transform="matrix(0.7071 0.7071 -0.7071 0.7071 256 -106.0387)" class="st21" width="362" height="362"/>
		
			<rect x="138.3" y="138.3" transform="matrix(0.7071 0.7071 -0.7071 0.7071 256 -106.0387)" class="st20" width="235.3" height="235.3"/>
		<polygon class="st22" points="422.2,255.8 512,256 256,512 255.8,422.2 		"/>
		<polygon class="st22" points="89.8,256.2 0,256 256,0 256.2,89.8 		"/>
	</g>
</g>
<g>
	<g>
		<g>
			<defs>
				<rect id="SVGID_1_" x="560" width="512" height="512"/>
			</defs>
			<clipPath id="SVGID_9_">
				<use xlink:href="#SVGID_1_"  style="overflow:visible;"/>
			</clipPath>
			<g class="st17">
				<g>
					<g>
						<g>
							<rect x="458.8" y="157.1" class="st20" width="200" height="67.9"/>
							<polygon class="st21" points="437.2,134 458.8,157 659.2,157 680.7,134.1 							"/>
							<polygon class="st21" points="459.2,226 659.2,226 680.7,249 437.3,249 							"/>
							<polygon class="st22" points="458.8,157 437.2,134 437.3,248.4 459.2,225.1 							"/>
						</g>
					</g>
					<g>
						<g>
							<rect x="458.8" y="413.9" class="st20" width="200" height="67.9"/>
							<polygon class="st21" points="437.2,391.4 458.8,415 659.2,415 680.7,391.8 							"/>
							<polygon class="st21" points="459.2,482 659.2,482 680.7,506 437.3,506 							"/>
							<polygon class="st22" points="458.8,413.8 437.2,390.8 437.3,505.2 459.2,481.9 							"/>
						</g>
					</g>
				</g>
			</g>
		</g>
	</g>
</g>
</svg>
