<?xml version="1.0" encoding="utf-8"?>
<!-- Generator: Adobe Illustrator 19.1.1, SVG Export Plug-In . SVG Version: 6.00 Build 0)  -->
<svg version="1.1" id="Layer_1" xmlns="http://www.w3.org/2000/svg" xmlns:xlink="http://www.w3.org/1999/xlink" x="0px" y="0px"
	 viewBox="0 0 512 512" style="enable-background:new 0 0 512 512;" xml:space="preserve">
<style type="text/css">
	.st0{fill:#15273F;}
	.st1{filter:url(#AI_GaussianBlur_7);}
	.st2{fill:none;stroke:#94FFFC;stroke-width:39;stroke-miterlimit:10;}
	.st3{fill:none;stroke:#00FFFF;stroke-width:39;stroke-miterlimit:10;}
	.st4{filter:url(#AI_Shadow_2);}
	.st5{fill:#556C77;}
	.st6{fill:none;stroke:#00FFFF;stroke-width:18;stroke-miterlimit:10;}
	.st7{fill:#FCEE21;}
	.st8{fill:#EDD318;}
	.st9{fill:#444444;}
	.st10{fill:#D1B028;}
	.st11{fill:#69D1CF;}
	.st12{fill:#D1BA30;}
	.st13{fill:#78DDD8;}
	.st14{fill:#BAA422;}
	.st15{clip-path:url(#SVGID_7_);}
	.st16{fill:#808080;}
	.st17{clip-path:url(#SVGID_9_);}
	.st18{fill:#D85339;}
	.st19{clip-path:url(#SVGID_11_);}
	.st20{fill:#F48176;}
	.st21{fill:#E86660;}
	.st22{fill:#E25656;}
	.st23{clip-path:url(#SVGID_12_);}
	.st24{clip-path:url(#SVGID_13_);}
	.st25{fill:none;stroke:#F48176;stroke-width:33;stroke-miterlimit:10;}
	.st26{clip-path:url(#SVGID_14_);}
	.st27{fill:#CE4242;}
	.st28{clip-path:url(#SVGID_15_);}
	.st29{fill:#BA453F;}
	.st30{fill:#C14C4C;}
	.st31{fill:none;stroke:#D85339;stroke-width:14;stroke-miterlimit:10;}
	.st32{fill:none;stroke:#D85339;stroke-width:13;stroke-miterlimit:10;}
	.st33{clip-path:url(#SVGID_16_);}
</style>
<g>
	<g>
		<defs>
			<rect id="SVGID_10_" x="-574" width="512" height="512"/>
		</defs>
		<clipPath id="SVGID_7_">
			<use xlink:href="#SVGID_10_"  style="overflow:visible;"/>
		</clipPath>
		<g class="st15">
			<g>
				<g>
					<g>
						<rect x="-31.9" y="28.7" class="st20" width="200" height="67.9"/>
						<polygon class="st21" points="-53.5,5.8 -31.9,29 168.4,29 189.9,6 						"/>
						<polygon class="st21" points="-31.6,97 168.4,97 189.9,121 -53.4,121 						"/>
						<polygon class="st22" points="168.6,96.4 190,120 190,5.3 168.2,28.6 						"/>
					</g>
				</g>
				<g>
					<g>
						<rect x="-161.4" y="157.1" class="st20" width="200" height="67.9"/>
						<polygon class="st21" points="-183.1,134 -161.4,157 38.9,157 60.4,134.1 						"/>
						<polygon class="st21" points="-161.1,226 38.9,226 60.4,249 -183,249 						"/>
						<polygon class="st22" points="38.9,224.9 60,248.4 60,133.7 38.3,157 						"/>
					</g>
				</g>
				<g>
					<g>
						<rect x="-31.9" y="285.5" class="st20" width="200" height="67.9"/>
						<polygon class="st21" points="-53.5,262.7 -31.9,286 168.4,286 189.9,263 						"/>
						<polygon class="st21" points="-31.6,354 168.4,354 189.9,377 -53.4,377 						"/>
						<polygon class="st22" points="168.6,353.3 190,376.8 190,262.1 168.2,285.4 						"/>
					</g>
				</g>
				<g>
					<g>
						<rect x="-161.4" y="413.9" class="st20" width="200" height="67.9"/>
						<polygon class="st21" points="-183.1,391.4 -161.4,415 38.9,415 60.4,391.8 						"/>
						<polygon class="st21" points="-161.1,482 38.9,482 60.4,506 -183,506 						"/>
						<polygon class="st22" points="38.9,481.7 60,505.2 60,390.5 38.3,413.8 						"/>
					</g>
				</g>
			</g>
		</g>
	</g>
</g>
<g>
	<rect y="0" class="st21" width="512" height="512"/>
	<rect x="89.6" y="89.6" class="st20" width="332.8" height="332.8"/>
	<polygon class="st22" points="422,89.6 512,0 512,512 422,422.4 	"/>
	<polygon class="st22" points="90,422.4 0,512 0,0 90,89.6 	"/>
</g>
<g>
	<g>
		<g>
			<defs>
				<rect id="SVGID_3_" x="553" width="512" height="512"/>
			</defs>
			<clipPath id="SVGID_9_">
				<use xlink:href="#SVGID_3_"  style="overflow:visible;"/>
			</clipPath>
			<g class="st17">
				<g>
					<g>
						<g>
							<rect x="451.8" y="157.1" class="st20" width="200" height="67.9"/>
							<polygon class="st21" points="430.2,134 451.8,157 652.2,157 673.7,134.1 							"/>
							<polygon class="st21" points="452.2,226 652.2,226 673.7,249 430.3,249 							"/>
							<polygon class="st22" points="451.8,157 430.2,134 430.3,248.4 452.2,225.1 							"/>
						</g>
					</g>
					<g>
						<g>
							<rect x="451.8" y="413.9" class="st20" width="200" height="67.9"/>
							<polygon class="st21" points="430.2,391.4 451.8,415 652.2,415 673.7,391.8 							"/>
							<polygon class="st21" points="452.2,482 652.2,482 673.7,506 430.3,506 							"/>
							<polygon class="st22" points="451.8,413.8 430.2,390.8 430.3,505.2 452.2,481.9 							"/>
						</g>
					</g>
				</g>
			</g>
		</g>
	</g>
</g>
</svg>
