<?xml version="1.0" encoding="utf-8"?>
<!-- Generator: Adobe Illustrator 19.1.1, SVG Export Plug-In . SVG Version: 6.00 Build 0)  -->
<svg version="1.1" id="Layer_1" xmlns="http://www.w3.org/2000/svg" xmlns:xlink="http://www.w3.org/1999/xlink" x="0px" y="0px"
	 viewBox="0 0 512 512" style="enable-background:new 0 0 512 512;" xml:space="preserve">
<style type="text/css">
	.st0{fill:#15273F;}
	.st1{filter:url(#AI_GaussianBlur_7);}
	.st2{fill:none;stroke:#94FFFC;stroke-width:39;stroke-miterlimit:10;}
	.st3{fill:none;stroke:#00FFFF;stroke-width:39;stroke-miterlimit:10;}
	.st4{filter:url(#AI_Shadow_2);}
	.st5{fill:#556C77;}
	.st6{fill:none;stroke:#00FFFF;stroke-width:18;stroke-miterlimit:10;}
	.st7{fill:#FCEE21;}
	.st8{fill:#EDD318;}
	.st9{fill:#444444;}
	.st10{fill:#D1B028;}
	.st11{fill:#69D1CF;}
	.st12{fill:#D1BA30;}
	.st13{fill:#78DDD8;}
	.st14{fill:#BAA422;}
	.st15{clip-path:url(#SVGID_7_);}
	.st16{fill:#808080;}
	.st17{clip-path:url(#SVGID_9_);}
	.st18{fill:#D85339;}
	.st19{clip-path:url(#SVGID_11_);}
	.st20{fill:#F48176;}
	.st21{fill:#E86660;}
	.st22{fill:#E25656;}
	.st23{clip-path:url(#SVGID_12_);}
	.st24{clip-path:url(#SVGID_13_);}
	.st25{fill:none;stroke:#F48176;stroke-width:33;stroke-miterlimit:10;}
	.st26{clip-path:url(#SVGID_14_);}
	.st27{fill:#CE4242;}
	.st28{clip-path:url(#SVGID_15_);}
	.st29{fill:#BA453F;}
	.st30{fill:#C14C4C;}
	.st31{fill:none;stroke:#D85339;stroke-width:14;stroke-miterlimit:10;}
	.st32{fill:none;stroke:#D85339;stroke-width:13;stroke-miterlimit:10;}
	.st33{clip-path:url(#SVGID_16_);}
</style>
<g>
	<g>
		<rect x="178" y="97.1" class="st7" width="31.9" height="88.8"/>
		<rect x="187.2" y="110.7" class="st8" width="13.7" height="61.4"/>
	</g>
	<g>
		<rect x="302.1" y="97.1" class="st7" width="31.9" height="88.8"/>
		<rect x="311.2" y="110.7" class="st8" width="13.7" height="61.4"/>
	</g>
	<polygon class="st7" points="389.6,488.7 122.4,488.7 122.4,156.6 213.5,141.4 298.5,141.4 389.6,156.6 	"/>
	<g>
		<path class="st9" d="M150.7,485.9c0,11-9,20-20,20H114c-11,0-20-9-20-20V157.4c0-11,9-20,20-20h16.7c11,0,20,9,20,20V485.9z"/>
	</g>
	<g>
		<path class="st9" d="M418,485.9c0,11-9,20-20,20h-16.7c-11,0-20-9-20-20V157.4c0-11,9-20,20-20H398c11,0,20,9,20,20V485.9z"/>
	</g>
	<g>
		<rect x="165.9" y="187" class="st10" width="180.2" height="260.2"/>
		<g>
			<rect x="199.3" y="254.3" class="st8" width="113.3" height="159.6"/>
			<g>
				<polygon class="st11" points="312.7,259.3 199.3,259.3 165.9,187 346.1,187 				"/>
			</g>
		</g>
		<g>
			<polygon class="st12" points="199.3,413.9 312.7,413.9 346.1,447.2 165.9,447.2 			"/>
		</g>
		<g>
			<polygon class="st13" points="298.5,245.9 213.5,245.9 192.2,200.4 319.8,200.4 			"/>
		</g>
	</g>
	<g>
		<g>
			<rect x="94" y="7" class="st10" width="23" height="37"/>
			<rect x="154" y="7" class="st10" width="27" height="37"/>
			<rect x="212" y="7" class="st10" width="27" height="37"/>
			<rect x="273" y="7" class="st10" width="27" height="37"/>
			<rect x="331" y="7" class="st10" width="27" height="37"/>
			<rect x="395" y="7" class="st10" width="23" height="37"/>
		</g>
		<rect x="94" y="26.9" class="st10" width="324" height="95.8"/>
		<rect x="100.2" y="46.6" class="st14" width="311.5" height="76.1"/>
		<rect x="105.7" y="57.4" class="st8" width="300.6" height="65.9"/>
		<polygon class="st7" points="405.9,57.5 418,6.1 418,123 405.5,123 		"/>
		<polygon class="st7" points="94,6.1 94,123 104.9,123 105.7,57.5 		"/>
	</g>
	<g>
		<defs>
			<path id="SVGID_6_" d="M150.7,485.7c0,11.1-9.1,20.2-20.2,20.2h-16.2c-11.1,0-20.2-9.1-20.2-20.2v-328c0-11.1,9.1-20.2,20.2-20.2
				h16.2c11.1,0,20.2,9.1,20.2,20.2V485.7z"/>
		</defs>
		<clipPath id="SVGID_7_">
			<use xlink:href="#SVGID_6_"  style="overflow:visible;"/>
		</clipPath>
		<g class="st15">
			<rect x="85" y="137" class="st16" width="75" height="21"/>
			<rect x="85" y="195" class="st16" width="75" height="21"/>
			<rect x="85" y="254" class="st16" width="75" height="20"/>
			<rect x="85" y="312" class="st16" width="75" height="20"/>
			<rect x="85" y="370" class="st16" width="75" height="20"/>
			<rect x="85" y="428" class="st16" width="75" height="20"/>
			<rect x="85" y="486" class="st16" width="75" height="20"/>
		</g>
	</g>
	<g>
		<defs>
			<path id="SVGID_8_" d="M418,485.7c0,11.1-9.1,20.2-20.2,20.2h-16.2c-11.1,0-20.2-9.1-20.2-20.2v-328c0-11.1,9.1-20.2,20.2-20.2
				h16.2c11.1,0,20.2,9.1,20.2,20.2V485.7z"/>
		</defs>
		<clipPath id="SVGID_9_">
			<use xlink:href="#SVGID_8_"  style="overflow:visible;"/>
		</clipPath>
		<g class="st17">
			<rect x="352" y="137" class="st16" width="75" height="21"/>
			<rect x="352" y="195" class="st16" width="75" height="21"/>
			<rect x="352" y="254" class="st16" width="75" height="20"/>
			<rect x="352" y="312" class="st16" width="75" height="20"/>
			<rect x="352" y="370" class="st16" width="75" height="20"/>
			<rect x="352" y="428" class="st16" width="75" height="20"/>
			<rect x="352" y="486" class="st16" width="75" height="20"/>
		</g>
	</g>
</g>
</svg>
