<?xml version="1.0"?>
<svg xmlns:rdf="http://www.w3.org/1999/02/22-rdf-syntax-ns#" xmlns="http://www.w3.org/2000/svg" xmlns:cc="http://creativecommons.org/ns#" xmlns:dc="http://purl.org/dc/elements/1.1/" xmlns:svg="http://www.w3.org/2000/svg" id="svg2503" viewBox="0 0 357.53 255.04" version="1.0">
  <g id="layer1" transform="translate(-198.38 -76.27)">
    <path id="path75" d="m427.81 76.27l-0.15 0.029-0.14 0.058-0.15 0.087-0.15 0.145-0.29 0.407-0.29 0.523-0.63 1.452-0.73 1.858-1.77 4.618-1.11 2.526-1.33 2.614-1.57 2.556-1.83 2.41-0.41 0.407h-143.52l-3.4 2.846h-11.93l-2.24 2.814-12.14-0.03-1.6-12.077-0.58-2.556-0.75-2.149-0.47-0.9-0.49-0.814-0.58-0.726-0.67-0.668-0.73-0.551-0.84-0.494-0.93-0.436-1.04-0.348-2.44-0.552-2.96-0.348-7.7-0.32-10.48-0.029-13.3 11.53-0.09 15.128h0.11l0.47 51.75 21.78 0.12 74.58 38.74-4.44 48.88-0.99 2.82-4.56 14.72-4.21 16.84-1.57 8.54-1.02 8.28-0.29 7.75 0.58 6.91 0.67 3.08 0.96 2.76 1.25 2.41 1.57 2.06 1.88 1.63 2.27 1.22 2.61 0.73 3.02 0.2 21.81 0.14v6.45h42.03v-8.59h10.36v-78.24h-0.08v-25.99l22.65 12.6h36.91l14.23-7.32-0.03-42.75 14.12-14.11h29.3l7.4-3.95h14.76l3.98-7.38h14.75l2.85-3.42h27.82v-18.71h-27.82l-3.4-2.87h-16.47l-3.4-6.8h-14.2v-22.16l-2.81-0.55-0.06-8.595h0.06l0.02-0.058v-0.116l0.06-0.494 0.12-1.772v-1.19l-0.06-1.307-0.14-1.423-0.12-0.668h-0.03l-0.15-0.784-0.43-1.481-0.61-1.394-0.78-1.336-0.5-0.61-0.52-0.581-0.61-0.523-0.67-0.464-0.73-0.407-0.81-0.348-0.9-0.291-0.96-0.232-1.01-0.116-1.14-0.058h-6.59l-0.58 0.029-0.55 0.145-0.55 0.232-0.55 0.32-0.53 0.406-0.49 0.494-0.96 1.22-0.9 1.452-0.84 1.597-1.48 3.572-1.16 3.543-0.88 3.108-0.52 2.236-0.14 0.61-0.03 0.174v0.058l-3.4 3.921h-12.49l-6.24-3.979h-4.5v-19.69h-6.65zm-58.03 110.15h12.2l-0.06 0.7-0.12 1.1-0.03 1.11v0.55l0.06 0.55 0.09 0.55 0.12 0.56 0.26 1.1 0.23 1.13 0.38 2.24 0.2 1.13 0.26 1.1 0.32 1.11 0.41 1.07 0.46 1.19 0.5 1.37 0.96 2.93 1.07 2.9 0.58 1.34 0.58 1.16 1.95 3.43 0.9 1.48 0.43 0.64 0.44 0.55 0.41 0.47 0.37 0.34 0.21 0.12 0.17 0.09 0.17 0.08h0.35l0.18-0.05 0.17-0.09 0.15-0.15 0.14-0.17 0.18-0.2 0.26-0.61 0.17-0.55 0.12-0.53v-0.52l-0.03-0.55-0.12-0.52-0.14-0.56-0.41-1.13-1.04-2.53-0.5-1.48-0.23-0.81-0.17-0.84-0.91-4.68-0.11-1.01-0.09-1.17-0.09-3.22 1.49-9.44 0.49-1.28h42.08v35.03l-10.8 5.08h-33.49l-23.78-13.74v-23.46l2.61-2.91z" fill-rule="evenodd"/>
  </g>
  <metadata>
    <rdf:RDF>
      <cc:Work>
        <dc:format>image/svg+xml</dc:format>
        <dc:type rdf:resource="http://purl.org/dc/dcmitype/StillImage"/>
        <cc:license rdf:resource="http://creativecommons.org/licenses/publicdomain/"/>
        <dc:publisher>
          <cc:Agent rdf:about="http://openclipart.org/">
            <dc:title>Openclipart</dc:title>
          </cc:Agent>
        </dc:publisher>
        <dc:title>Uzi silhouette</dc:title>
        <dc:date>2007-08-21T12:12:51</dc:date>
        <dc:description>clip art, clipart, firearm, firearm, gun, gun, image, media, public domain, silhouette, silhouette, svg, uzi, uzi, weapon, weapon, </dc:description>
        <dc:source>http://openclipart.org/detail/4927/uzi-silhouette-by-floatingbrainiac</dc:source>
        <dc:creator>
          <cc:Agent>
            <dc:title>floatingbrainiac</dc:title>
          </cc:Agent>
        </dc:creator>
        <dc:subject>
          <rdf:Bag>
            <rdf:li>clip art</rdf:li>
            <rdf:li>clipart</rdf:li>
            <rdf:li>firearm</rdf:li>
            <rdf:li>gun</rdf:li>
            <rdf:li>image</rdf:li>
            <rdf:li>media</rdf:li>
            <rdf:li>public domain</rdf:li>
            <rdf:li>silhouette</rdf:li>
            <rdf:li>svg</rdf:li>
            <rdf:li>uzi</rdf:li>
            <rdf:li>weapon</rdf:li>
          </rdf:Bag>
        </dc:subject>
      </cc:Work>
      <cc:License rdf:about="http://creativecommons.org/licenses/publicdomain/">
        <cc:permits rdf:resource="http://creativecommons.org/ns#Reproduction"/>
        <cc:permits rdf:resource="http://creativecommons.org/ns#Distribution"/>
        <cc:permits rdf:resource="http://creativecommons.org/ns#DerivativeWorks"/>
      </cc:License>
    </rdf:RDF>
  </metadata>
</svg>
