# Blender3D v249 OBJ File: box32x32.blend
# www.blender3d.org
v 11.999994 -0.000001 -11.999993
v 11.999994 0.000001 11.999994
v -11.999995 0.000001 11.999992
v -11.999990 -0.000001 -11.999998
v 12.000000 24.000000 -11.999989
v 11.999987 24.000000 12.000000
v -11.999998 24.000000 11.999989
v -11.999993 24.000000 -11.999995
vt 0.499613 0.749418
vt 0.499613 0.500792
vt 0.250987 0.500792
vt 0.250987 0.749418
vn 0.000000 0.000000 -1.000000
vn -1.000000 -0.000000 -0.000000
vn -0.000000 -0.000000 1.000000
vn 1.000000 -0.000000 0.000000
vn 1.000000 0.000000 0.000001
vn 0.000000 1.000000 0.000000
vn 0.000000 -1.000000 0.000000
usemtl textures/exomorphx/floor/metal_panel_floor03
s off
f 5/1/1 1/2/1 4/3/1
f 5/1/1 4/3/1 8/4/1
f 3/3/2 7/4/2 8/1/2
f 3/3/2 8/1/2 4/2/2
f 2/2/3 6/1/3 3/3/3
f 6/1/3 7/4/3 3/3/3
f 1/2/4 5/1/4 2/3/4
f 5/1/5 6/4/5 2/3/5
f 5/1/6 8/4/6 6/2/6
f 8/4/6 7/3/6 6/2/6
f 1/1/7 2/2/7 3/3/7
f 1/1/7 3/3/7 4/4/7
