# Blender3D v249 OBJ File: box32x32.blend
# www.blender3d.org
v 23.999989 -0.000001 -23.999987
v 23.999989 0.000001 23.999989
v -23.999990 0.000001 23.999985
v -23.999981 -0.000001 -23.999996
v 24.000000 48.000000 -23.999977
v 23.999973 48.000000 24.000000
v -23.999996 48.000000 23.999977
v -23.999987 48.000000 -23.999990
vt 0.748926 0.748731
vt 0.748926 0.251478
vt 0.251674 0.251478
vt 0.251673 0.748731
vt 0.251673 0.251478
vt 0.251674 0.748731
vt 0.251673 0.251479
vn 0.000000 0.000000 -1.000000
vn -1.000000 -0.000000 -0.000000
vn -0.000000 -0.000000 1.000000
vn 1.000000 -0.000000 0.000000
vn 1.000000 0.000000 0.000001
vn 0.000000 1.000000 0.000000
vn 0.000000 -1.000000 0.000000
usemtl textures/exomorphx/floor/metal_panel_floor03
s off
f 5/1/1 1/2/1 4/3/1
f 5/1/1 4/3/1 8/4/1
f 3/5/2 7/4/2 8/1/2
f 3/5/2 8/1/2 4/2/2
f 2/2/3 6/1/3 3/3/3
f 6/1/3 7/4/3 3/3/3
f 1/2/4 5/1/4 2/3/4
f 5/1/5 6/4/5 2/3/5
f 5/1/6 8/6/6 6/2/6
f 8/6/6 7/7/6 6/2/6
f 1/1/7 2/2/7 3/5/7
f 1/1/7 3/5/7 4/6/7
