# Blender3D v249 OBJ File: box32x32.blend
# www.blender3d.org
v 31.999985 -0.000001 -31.999983
v 31.999985 0.000001 31.999985
v -31.999989 0.000001 31.999979
v -31.999973 -0.000001 -31.999996
v 32.000000 64.000000 -31.999969
v 31.999964 64.000000 32.000000
v -31.999996 64.000000 31.999971
v -31.999983 64.000000 -31.999987
vt 0.750000 0.750000
vt 0.750000 0.250000
vt 0.250000 0.250000
vt 0.250000 0.750000
vn 0.000000 0.000000 -1.000000
vn -1.000000 -0.000000 -0.000000
vn -0.000000 -0.000000 1.000000
vn 1.000000 -0.000000 0.000000
vn 1.000000 0.000000 0.000001
vn 0.000000 1.000000 0.000000
vn -0.000000 -1.000000 0.000000
usemtl textures/exomorphx/floor/metal_panel_floor03
s off
f 5/1/1 1/2/1 4/3/1
f 5/1/1 4/3/1 8/4/1
f 3/3/2 7/4/2 8/1/2
f 3/3/2 8/1/2 4/2/2
f 2/2/3 6/1/3 3/3/3
f 6/1/3 7/4/3 3/3/3
f 1/2/4 5/1/4 2/3/4
f 5/1/5 6/4/5 2/3/5
f 5/1/6 8/4/6 6/2/6
f 8/4/6 7/3/6 6/2/6
f 1/1/7 2/2/7 3/3/7
f 1/1/7 3/3/7 4/4/7
