# Blender3D v249 OBJ File: box32x32.blend
# www.blender3d.org
v 31.999985 -0.000000 -7.999996
v 31.999985 0.000000 7.999996
v -31.999989 0.000000 7.999995
v -31.999973 -0.000000 -7.999999
v 32.000000 16.000000 -7.999992
v 31.999964 16.000000 8.000000
v -31.999996 16.000000 7.999993
v -31.999983 16.000000 -7.999997
vt 1.000000 0.750000
vt 1.000000 0.500000
vt 0.000000 0.500000
vt 0.000000 0.750000
vt 0.250000 0.500000
vt 0.250000 0.750000
vt 0.500000 0.750000
vt 0.500000 0.500000
vn 0.000000 0.000000 -1.000000
vn -1.000000 -0.000000 -0.000001
vn -1.000000 -0.000001 -0.000001
vn -0.000000 -0.000000 1.000000
vn 1.000000 -0.000001 0.000000
vn 1.000000 0.000001 0.000002
vn 0.000000 1.000000 0.000000
vn -0.000000 -1.000000 0.000000
usemtl textures/exomorphx/floor/metal_floor03.tga
s off
f 5/1/1 1/2/1 4/3/1
f 5/1/1 4/3/1 8/4/1
f 3/5/2 7/6/2 8/7/2
f 3/5/3 8/7/3 4/8/3
f 2/2/4 6/1/4 3/3/4
f 6/1/4 7/4/4 3/3/4
f 1/8/5 5/7/5 2/5/5
f 5/7/6 6/6/6 2/5/6
f 5/1/7 8/4/7 6/2/7
f 8/4/7 7/3/7 6/2/7
f 1/1/8 2/2/8 3/3/8
f 1/1/8 3/3/8 4/4/8
