# Blender3D v249 OBJ File: box32x32.blend
# www.blender3d.org
v 63.999969 -0.000000 -7.999996
v 63.999969 0.000000 7.999996
v -63.999977 0.000000 7.999995
v -63.999947 -0.000000 -7.999999
v 64.000000 16.000000 -7.999992
v 63.999928 16.000000 8.000000
v -63.999992 16.000000 7.999993
v -63.999966 16.000000 -7.999997
v -0.000004 0.000000 7.999995
v 0.000011 -0.000000 -7.999997
v -0.000032 16.000000 7.999997
v 0.000017 16.000000 -7.999995
vt 1.000000 0.500000
vt 0.000000 0.500000
vt 0.000000 0.750000
vt 1.000000 0.750000
vt 0.250000 0.500000
vt 0.250000 0.750000
vt 0.500000 0.750000
vt 0.500000 0.500000
vn 0.000000 0.000000 -1.000000
vn -0.000000 0.000000 1.000000
vn 0.000000 1.000000 0.000000
vn 0.000000 -1.000000 0.000000
vn -1.000000 -0.000001 -0.000002
vn 1.000000 -0.000002 0.000000
vn 1.000000 0.000003 0.000005
usemtl textures/exomorphx/floor/metal_floor03.tga
s off
f 10/1/1 4/2/1 8/3/1
f 10/1/1 8/3/1 12/4/1
f 1/1/1 10/2/1 12/3/1
f 1/1/1 12/3/1 5/4/1
f 11/4/2 7/3/2 3/2/2
f 11/4/2 3/2/2 9/1/2
f 6/4/2 11/3/2 9/2/2
f 6/4/2 9/2/2 2/1/2
f 12/4/3 8/3/3 7/2/3
f 12/4/3 7/2/3 11/1/3
f 5/4/3 12/3/3 11/2/3
f 5/4/3 11/2/3 6/1/3
f 9/1/4 3/2/4 4/3/4
f 9/1/4 4/3/4 10/4/4
f 10/3/4 1/4/4 9/2/4
f 1/4/4 2/1/4 9/2/4
f 3/5/5 7/6/5 8/7/5
f 3/5/5 8/7/5 4/8/5
f 1/8/6 5/7/6 2/5/6
f 5/7/7 6/6/7 2/5/7
