<?xml version="1.0" encoding="UTF-8" standalone="no"?>
<!-- Created with Inkscape (http://www.inkscape.org/) -->

<svg
   xmlns:dc="http://purl.org/dc/elements/1.1/"
   xmlns:cc="http://creativecommons.org/ns#"
   xmlns:rdf="http://www.w3.org/1999/02/22-rdf-syntax-ns#"
   xmlns:svg="http://www.w3.org/2000/svg"
   xmlns="http://www.w3.org/2000/svg"
   xmlns:xlink="http://www.w3.org/1999/xlink"
   xmlns:sodipodi="http://sodipodi.sourceforge.net/DTD/sodipodi-0.dtd"
   xmlns:inkscape="http://www.inkscape.org/namespaces/inkscape"
   width="256"
   height="256"
   viewBox="0 0 67.733332 67.733336"
   id="svg8453"
   version="1.1"
   inkscape:version="0.91+devel r"
   inkscape:export-filename="../../../../data/xonotic-data.pk3dir/gfx/hud/default/minigames/pong/ball.png"
   inkscape:export-xdpi="96"
   inkscape:export-ydpi="96"
   sodipodi:docname="ball.svg">
  <defs
     id="defs8455">
    <linearGradient
       inkscape:collect="always"
       id="linearGradient4344">
      <stop
         style="stop-color:#000000;stop-opacity:1"
         offset="0"
         id="stop4346" />
      <stop
         style="stop-color:#ffffff;stop-opacity:1"
         offset="1"
         id="stop4348" />
    </linearGradient>
    <linearGradient
       id="linearGradient3698-5">
      <stop
         id="stop4219"
         offset="0"
         style="stop-color:#000000;stop-opacity:1;" />
      <stop
         style="stop-color:#0f3f6f;stop-opacity:1;"
         offset="0.5"
         id="stop4221" />
      <stop
         id="stop4223"
         offset="1"
         style="stop-color:#000000;stop-opacity:1;" />
    </linearGradient>
    <linearGradient
       id="linearGradient3700">
      <stop
         style="stop-color:#000000;stop-opacity:0;"
         offset="0"
         id="stop3705" />
      <stop
         id="stop3707"
         offset="0.31"
         style="stop-color:#000000;stop-opacity:0;" />
      <stop
         style="stop-color:#000000;stop-opacity:0.18431373;"
         offset="0.44"
         id="stop3709" />
      <stop
         id="stop3711"
         offset="0.85000002"
         style="stop-color:#000000;stop-opacity:0;" />
      <stop
         id="stop3713"
         offset="1"
         style="stop-color:#000000;stop-opacity:0;" />
    </linearGradient>
    <linearGradient
       id="linearGradient3681">
      <stop
         id="stop3691"
         offset="0"
         style="stop-color:#1f7fff;stop-opacity:0;" />
      <stop
         style="stop-color:#1f7fff;stop-opacity:0;"
         offset="0.31"
         id="stop3695" />
      <stop
         id="stop3689"
         offset="0.44"
         style="stop-color:#1f7fff;stop-opacity:0.18431373;" />
      <stop
         style="stop-color:#1f7fff;stop-opacity:0;"
         offset="0.85000002"
         id="stop3704" />
      <stop
         style="stop-color:#1f7fff;stop-opacity:0;"
         offset="1"
         id="stop3685" />
    </linearGradient>
    <filter
       style="color-interpolation-filters:sRGB"
       inkscape:collect="always"
       id="filter3852"
       inkscape:label="BlurGlow">
      <feGaussianBlur
         inkscape:collect="always"
         stdDeviation="7"
         id="feGaussianBlur3854" />
    </filter>
    <linearGradient
       id="linearGradient3699">
      <stop
         id="stop3701"
         offset="0"
         style="stop-color:#3f0f00;stop-opacity:0.56078434;" />
      <stop
         style="stop-color:#ff7f2f;stop-opacity:0.56078434;"
         offset="0.75"
         id="stop3673" />
      <stop
         id="stop3703"
         offset="1"
         style="stop-color:#ff9f5f;stop-opacity:0.56078434;" />
    </linearGradient>
    <linearGradient
       id="linearGradient3674">
      <stop
         style="stop-color:#000000;stop-opacity:1;"
         offset="0"
         id="stop3676" />
      <stop
         style="stop-color:#3f0b00;stop-opacity:1;"
         offset="1"
         id="stop3678" />
    </linearGradient>
    <linearGradient
       inkscape:collect="always"
       xlink:href="#linearGradient3606-5"
       id="linearGradient3689"
       gradientUnits="userSpaceOnUse"
       gradientTransform="matrix(0.44252675,0,0,0.44252675,-521.56111,-505.91335)"
       x1="1024"
       y1="1664"
       x2="1024"
       y2="1480" />
    <linearGradient
       id="linearGradient3606-5">
      <stop
         style="stop-color:#bfdfff;stop-opacity:1;"
         offset="0"
         id="stop3608-2" />
      <stop
         id="stop3616"
         offset="0.2"
         style="stop-color:#5fafff;stop-opacity:1;" />
      <stop
         id="stop3614-2"
         offset="0.80000001"
         style="stop-color:#5fafff;stop-opacity:1;" />
      <stop
         style="stop-color:#bfdfff;stop-opacity:1;"
         offset="1"
         id="stop3610-6" />
    </linearGradient>
    <linearGradient
       inkscape:collect="always"
       xlink:href="#linearGradient3698-5"
       id="linearGradient3686"
       gradientUnits="userSpaceOnUse"
       x1="1024"
       y1="640"
       x2="1024"
       y2="384"
       gradientTransform="matrix(0.44252675,0,0,0.44252675,-521.56111,-52.765955)" />
    <linearGradient
       id="linearGradient4225">
      <stop
         style="stop-color:#0f3f6f;stop-opacity:1"
         offset="0"
         id="stop3700-4" />
      <stop
         style="stop-color:#000000;stop-opacity:1;"
         offset="1"
         id="stop3702-0" />
    </linearGradient>
    <linearGradient
       inkscape:collect="always"
       xlink:href="#linearGradient3606-5"
       id="linearGradient9322"
       gradientUnits="userSpaceOnUse"
       gradientTransform="matrix(0.44252675,0,0,0.44252675,-521.56111,-505.91335)"
       x1="1024"
       y1="1664"
       x2="1024"
       y2="1480" />
    <linearGradient
       inkscape:collect="always"
       xlink:href="#linearGradient3698-5"
       id="linearGradient9324"
       gradientUnits="userSpaceOnUse"
       gradientTransform="matrix(0.44252675,0,0,0.44252675,-521.56111,-52.765955)"
       x1="1024"
       y1="640"
       x2="1024"
       y2="384" />
    <linearGradient
       inkscape:collect="always"
       xlink:href="#linearGradient3606-5"
       id="linearGradient9326"
       gradientUnits="userSpaceOnUse"
       gradientTransform="matrix(0.44252675,0,0,0.44252675,-521.56111,-505.91335)"
       x1="1024"
       y1="1664"
       x2="1024"
       y2="1480" />
    <linearGradient
       inkscape:collect="always"
       xlink:href="#linearGradient3698-5"
       id="linearGradient9328"
       gradientUnits="userSpaceOnUse"
       gradientTransform="matrix(0.44252675,0,0,0.44252675,-521.56111,-52.765955)"
       x1="1024"
       y1="640"
       x2="1024"
       y2="384" />
    <mask
       maskUnits="userSpaceOnUse"
       id="mask9350">
      <rect
         style="opacity:1;fill:#ffffff;fill-opacity:1;stroke:none;stroke-width:0.79374999;stroke-linecap:round;stroke-linejoin:round;stroke-miterlimit:4;stroke-dasharray:none;stroke-opacity:1"
         id="rect9352"
         width="106.2113"
         height="91.848213"
         x="-196.33743"
         y="-165.01015"
         transform="rotate(-90)" />
    </mask>
    <linearGradient
       inkscape:collect="always"
       xlink:href="#linearGradient3606-5"
       id="linearGradient9382"
       gradientUnits="userSpaceOnUse"
       gradientTransform="matrix(0.44252675,0,0,0.44252675,-521.56111,-505.91335)"
       x1="1024"
       y1="1664"
       x2="1024"
       y2="1480" />
    <linearGradient
       inkscape:collect="always"
       xlink:href="#linearGradient3698-5"
       id="linearGradient9384"
       gradientUnits="userSpaceOnUse"
       gradientTransform="matrix(0.44252675,0,0,0.44252675,-521.56111,-52.765955)"
       x1="1024"
       y1="640"
       x2="1024"
       y2="384" />
    <radialGradient
       inkscape:collect="always"
       xlink:href="#linearGradient4225"
       id="radialGradient4215"
       cx="33.866665"
       cy="263.13333"
       fx="33.866665"
       fy="263.13333"
       r="26.917656"
       gradientUnits="userSpaceOnUse"
       gradientTransform="matrix(0.58540224,0,0,0.58540224,14.063174,109.09448)" />
    <clipPath
       clipPathUnits="userSpaceOnUse"
       id="clipPath4293">
      <rect
         style="opacity:1;fill:#808080;fill-opacity:1;stroke:none;stroke-width:1.87854171;stroke-linecap:round;stroke-linejoin:round;stroke-miterlimit:4;stroke-dasharray:none;stroke-opacity:0.84079602"
         id="rect4295"
         width="31.805075"
         height="29.914698"
         x="25.256969"
         y="229.26665" />
    </clipPath>
    <linearGradient
       inkscape:collect="always"
       xlink:href="#linearGradient3606-5"
       id="linearGradient4313"
       gradientUnits="userSpaceOnUse"
       gradientTransform="matrix(0,0.13028753,-0.13028753,0,234.03698,-99.717953)"
       x1="1024"
       y1="1664"
       x2="1024"
       y2="1480" />
    <linearGradient
       inkscape:collect="always"
       xlink:href="#linearGradient3698-5"
       id="linearGradient4315"
       gradientUnits="userSpaceOnUse"
       gradientTransform="matrix(0,0.13028753,-0.13028753,0,100.62255,-99.717953)"
       x1="1024"
       y1="640"
       x2="1024"
       y2="384" />
    <linearGradient
       inkscape:collect="always"
       xlink:href="#linearGradient4344"
       id="linearGradient4356"
       gradientUnits="userSpaceOnUse"
       x1="27.662395"
       y1="20.35981"
       x2="33.609142"
       y2="18.689375" />
    <mask
       maskUnits="userSpaceOnUse"
       id="mask4352">
      <rect
         y="14.036582"
         x="14.524041"
         height="28.160934"
         width="37.130531"
         id="rect4354"
         style="opacity:1;fill:url(#linearGradient4356);fill-opacity:1;stroke:none;stroke-width:2.47781777;stroke-linecap:round;stroke-linejoin:round;stroke-miterlimit:4;stroke-dasharray:none;stroke-opacity:0.84079602" />
    </mask>
    <mask
       maskUnits="userSpaceOnUse"
       id="mask4352-9">
      <rect
         y="14.036582"
         x="14.524041"
         height="28.160934"
         width="37.130531"
         id="rect4354-8"
         style="opacity:1;fill:url(#linearGradient4356-1);fill-opacity:1;stroke:none;stroke-width:2.47781777;stroke-linecap:round;stroke-linejoin:round;stroke-miterlimit:4;stroke-dasharray:none;stroke-opacity:0.84079602" />
    </mask>
    <linearGradient
       inkscape:collect="always"
       xlink:href="#linearGradient4344"
       id="linearGradient4356-1"
       gradientUnits="userSpaceOnUse"
       x1="27.662395"
       y1="20.35981"
       x2="33.609142"
       y2="18.689375" />
  </defs>
  <sodipodi:namedview
     id="base"
     pagecolor="#ffffff"
     bordercolor="#666666"
     borderopacity="1.0"
     inkscape:pageopacity="0.0"
     inkscape:pageshadow="2"
     inkscape:zoom="5.1132812"
     inkscape:cx="128"
     inkscape:cy="152.42038"
     inkscape:document-units="px"
     inkscape:current-layer="layer2"
     showgrid="false"
     units="px"
     inkscape:snap-bbox="true"
     inkscape:bbox-nodes="true"
     inkscape:snap-page="true"
     inkscape:window-width="1753"
     inkscape:window-height="1180"
     inkscape:window-x="50"
     inkscape:window-y="-3"
     inkscape:window-maximized="1"
     inkscape:snap-others="false"
     inkscape:snap-nodes="false" />
  <metadata
     id="metadata8458">
    <rdf:RDF>
      <cc:Work
         rdf:about="">
        <dc:format>image/svg+xml</dc:format>
        <dc:type
           rdf:resource="http://purl.org/dc/dcmitype/StillImage" />
        <dc:title />
      </cc:Work>
    </rdf:RDF>
  </metadata>
  <g
     inkscape:label="Layer 1"
     inkscape:groupmode="layer"
     id="layer1"
     transform="translate(0,-229.26665)"
     style="display:inline">
    <circle
       style="opacity:1;fill:url(#radialGradient4215);fill-opacity:1;stroke:none;stroke-width:0.30977532;stroke-linecap:round;stroke-linejoin:miter;stroke-miterlimit:4;stroke-dasharray:none;stroke-opacity:1"
       id="path4207"
       cx="33.888794"
       cy="263.13333"
       r="15.757656" />
    <g
       transform="matrix(0,0.29441729,-0.29441729,0,85.087338,283.10531)"
       id="g9254">
      <path
         inkscape:connector-curvature="0"
         style="fill:#000000;fill-opacity:1;stroke:#000000;stroke-width:8;stroke-miterlimit:4;stroke-dasharray:none;stroke-opacity:1;filter:url(#filter3852)"
         d="m 928.03433,1398.0404 c -6,0 -14.3892,-30.7034 -21.2814,-32.0312 -51.65555,-9.9516 -90.7187,-55.4226 -90.7187,-109.9688 0,-41.9562 23.1059,-78.5334 57.28125,-97.7188 -43.30025,20.5296 -73.28125,64.6413 -73.28125,115.7188 0,70.656 57.344,128 128.0001,128 z"
         id="path9256"
         transform="matrix(0.44252675,0,0,0.44252675,-479.09369,-389.98922)"
         sodipodi:nodetypes="csscscc" />
      <path
         id="path9258"
         d="m 1024.0001,636 c -6,0 -14.3892,-30.7034 -21.2814,-32.0312 C 951.06315,594.0172 912,548.5462 912,494 912,452.0438 935.1059,415.4666 969.28125,396.2812 925.981,416.8108 896,460.9225 896,512 c 0,70.656 57.344,128 128.0001,128 z"
         style="fill:#1f7fff;fill-opacity:1;stroke:none;filter:url(#filter3852)"
         inkscape:connector-curvature="0"
         transform="matrix(0.44252675,0,0,0.44252675,-521.56111,-52.765955)"
         sodipodi:nodetypes="csscscc" />
      <path
         style="fill:url(#linearGradient9382);fill-opacity:1;stroke:none;stroke-width:0.44252676"
         d="m -68.413674,228.68106 c -2.65516,0 -6.367606,-13.58708 -9.417589,-14.17466 -22.858967,-4.40385 -40.145447,-24.52599 -40.145447,-48.66414 0,-18.56674 10.22497,-34.75313 25.348481,-43.24318 -19.161521,9.08489 -32.428911,28.6055 -32.428911,51.20866 0,31.26717 25.376252,56.64343 56.643466,56.64343 z"
         id="path9260"
         inkscape:connector-curvature="0"
         sodipodi:nodetypes="csscscc" />
      <path
         style="fill:url(#linearGradient9384);fill-opacity:1;stroke:#00001f;stroke-width:0.66379011;stroke-linejoin:miter;stroke-miterlimit:4;stroke-dasharray:none;stroke-opacity:1"
         d="m -112.47279,140.35548 c -7.06368,9.28943 -11.25677,20.88185 -11.25677,33.45226 0,29.95689 23.816146,54.37977 53.545735,55.31584 -3.540214,-3.09768 -6.195374,-12.83327 -7.965481,-13.2758 -23.468904,-4.52705 -41.154984,-25.21495 -41.154984,-50.00552 0,-9.28457 2.48831,-17.99315 6.8315,-25.48678 z"
         id="path9262"
         sodipodi:nodetypes="csccsc"
         inkscape:connector-curvature="0" />
    </g>
    <g
       id="g9248"
       transform="matrix(0.29441729,0,0,0.29441729,53.808863,211.93477)">
      <path
         sodipodi:nodetypes="csscscc"
         transform="matrix(0.44252675,0,0,0.44252675,-479.09369,-389.98922)"
         id="RingShadow"
         d="m 928.03433,1398.0404 c -6,0 -14.3892,-30.7034 -21.2814,-32.0312 -51.65555,-9.9516 -90.7187,-55.4226 -90.7187,-109.9688 0,-41.9562 23.1059,-78.5334 57.28125,-97.7188 -43.30025,20.5296 -73.28125,64.6413 -73.28125,115.7188 0,70.656 57.344,128 128.0001,128 z"
         style="fill:#000000;fill-opacity:1;stroke:#000000;stroke-width:8;stroke-miterlimit:4;stroke-dasharray:none;stroke-opacity:1;filter:url(#filter3852)"
         inkscape:connector-curvature="0" />
      <path
         sodipodi:nodetypes="csscscc"
         transform="matrix(0.44252675,0,0,0.44252675,-521.56111,-52.765955)"
         inkscape:connector-curvature="0"
         style="fill:#1f7fff;fill-opacity:1;stroke:none;filter:url(#filter3852)"
         d="m 1024.0001,636 c -6,0 -14.3892,-30.7034 -21.2814,-32.0312 C 951.06315,594.0172 912,548.5462 912,494 912,452.0438 935.1059,415.4666 969.28125,396.2812 925.981,416.8108 896,460.9225 896,512 c 0,70.656 57.344,128 128.0001,128 z"
         id="RingGlow" />
      <path
         sodipodi:nodetypes="csscscc"
         inkscape:connector-curvature="0"
         id="RingBorder"
         d="m -68.413674,228.68106 c -2.65516,0 -6.367606,-13.58708 -9.417589,-14.17466 -22.858967,-4.40385 -40.145447,-24.52599 -40.145447,-48.66414 0,-18.56674 10.22497,-34.75313 25.348481,-43.24318 -19.161521,9.08489 -32.428911,28.6055 -32.428911,51.20866 0,31.26717 25.376252,56.64343 56.643466,56.64343 z"
         style="fill:url(#linearGradient3689);fill-opacity:1;stroke:none;stroke-width:0.44252676" />
      <path
         inkscape:connector-curvature="0"
         sodipodi:nodetypes="csccsc"
         id="RingFill"
         d="m -112.47279,140.35548 c -7.06368,9.28943 -11.25677,20.88185 -11.25677,33.45226 0,29.95689 23.816146,54.37977 53.545735,55.31584 -3.540214,-3.09768 -6.195374,-12.83327 -7.965481,-13.2758 -23.468904,-4.52705 -41.154984,-25.21495 -41.154984,-50.00552 0,-9.28457 2.48831,-17.99315 6.8315,-25.48678 z"
         style="fill:url(#linearGradient3686);fill-opacity:1;stroke:#00001f;stroke-width:0.66379011;stroke-linejoin:miter;stroke-miterlimit:4;stroke-dasharray:none;stroke-opacity:1" />
    </g>
    <g
       id="g9310"
       transform="matrix(-0.29441729,0,0,-0.29441729,13.927655,313.93522)">
      <g
         transform="rotate(90,-67.068491,173.31789)"
         id="g9282">
        <path
           inkscape:connector-curvature="0"
           style="fill:#000000;fill-opacity:1;stroke:#000000;stroke-width:8;stroke-miterlimit:4;stroke-dasharray:none;stroke-opacity:1;filter:url(#filter3852)"
           d="m 928.03433,1398.0404 c -6,0 -14.3892,-30.7034 -21.2814,-32.0312 -51.65555,-9.9516 -90.7187,-55.4226 -90.7187,-109.9688 0,-41.9562 23.1059,-78.5334 57.28125,-97.7188 -43.30025,20.5296 -73.28125,64.6413 -73.28125,115.7188 0,70.656 57.344,128 128.0001,128 z"
           id="path9284"
           transform="matrix(0.44252675,0,0,0.44252675,-479.09369,-389.98922)"
           sodipodi:nodetypes="csscscc" />
        <path
           id="path9286"
           d="m 1024.0001,636 c -6,0 -14.3892,-30.7034 -21.2814,-32.0312 C 951.06315,594.0172 912,548.5462 912,494 912,452.0438 935.1059,415.4666 969.28125,396.2812 925.981,416.8108 896,460.9225 896,512 c 0,70.656 57.344,128 128.0001,128 z"
           style="fill:#1f7fff;fill-opacity:1;stroke:none;filter:url(#filter3852)"
           inkscape:connector-curvature="0"
           transform="matrix(0.44252675,0,0,0.44252675,-521.56111,-52.765955)"
           sodipodi:nodetypes="csscscc" />
        <path
           style="fill:url(#linearGradient9322);fill-opacity:1;stroke:none;stroke-width:0.44252676"
           d="m -68.413674,228.68106 c -2.65516,0 -6.367606,-13.58708 -9.417589,-14.17466 -22.858967,-4.40385 -40.145447,-24.52599 -40.145447,-48.66414 0,-18.56674 10.22497,-34.75313 25.348481,-43.24318 -19.161521,9.08489 -32.428911,28.6055 -32.428911,51.20866 0,31.26717 25.376252,56.64343 56.643466,56.64343 z"
           id="path9288"
           inkscape:connector-curvature="0"
           sodipodi:nodetypes="csscscc" />
        <path
           style="fill:url(#linearGradient9324);fill-opacity:1;stroke:#00001f;stroke-width:0.66379011;stroke-linejoin:miter;stroke-miterlimit:4;stroke-dasharray:none;stroke-opacity:1"
           d="m -112.47279,140.35548 c -7.06368,9.28943 -11.25677,20.88185 -11.25677,33.45226 0,29.95689 23.816146,54.37977 53.545735,55.31584 -3.540214,-3.09768 -6.195374,-12.83327 -7.965481,-13.2758 -23.468904,-4.52705 -41.154984,-25.21495 -41.154984,-50.00552 0,-9.28457 2.48831,-17.99315 6.8315,-25.48678 z"
           id="path9290"
           sodipodi:nodetypes="csccsc"
           inkscape:connector-curvature="0" />
      </g>
      <g
         id="g9292"
         transform="translate(0.01081915,-1.3471603)">
        <path
           sodipodi:nodetypes="csscscc"
           transform="matrix(0.44252675,0,0,0.44252675,-479.09369,-389.98922)"
           id="path9294"
           d="m 928.03433,1398.0404 c -6,0 -14.3892,-30.7034 -21.2814,-32.0312 -51.65555,-9.9516 -90.7187,-55.4226 -90.7187,-109.9688 0,-41.9562 23.1059,-78.5334 57.28125,-97.7188 -43.30025,20.5296 -73.28125,64.6413 -73.28125,115.7188 0,70.656 57.344,128 128.0001,128 z"
           style="fill:#000000;fill-opacity:1;stroke:#000000;stroke-width:8;stroke-miterlimit:4;stroke-dasharray:none;stroke-opacity:1;filter:url(#filter3852)"
           inkscape:connector-curvature="0" />
        <path
           sodipodi:nodetypes="csscscc"
           transform="matrix(0.44252675,0,0,0.44252675,-521.56111,-52.765955)"
           inkscape:connector-curvature="0"
           style="fill:#1f7fff;fill-opacity:1;stroke:none;filter:url(#filter3852)"
           d="m 1024.0001,636 c -6,0 -14.3892,-30.7034 -21.2814,-32.0312 C 951.06315,594.0172 912,548.5462 912,494 912,452.0438 935.1059,415.4666 969.28125,396.2812 925.981,416.8108 896,460.9225 896,512 c 0,70.656 57.344,128 128.0001,128 z"
           id="path9296" />
        <path
           sodipodi:nodetypes="csscscc"
           inkscape:connector-curvature="0"
           id="path9298"
           d="m -68.413674,228.68106 c -2.65516,0 -6.367606,-13.58708 -9.417589,-14.17466 -22.858967,-4.40385 -40.145447,-24.52599 -40.145447,-48.66414 0,-18.56674 10.22497,-34.75313 25.348481,-43.24318 -19.161521,9.08489 -32.428911,28.6055 -32.428911,51.20866 0,31.26717 25.376252,56.64343 56.643466,56.64343 z"
           style="fill:url(#linearGradient9326);fill-opacity:1;stroke:none;stroke-width:0.44252676" />
        <path
           inkscape:connector-curvature="0"
           sodipodi:nodetypes="csccsc"
           id="path9300"
           d="m -112.47279,140.35548 c -7.06368,9.28943 -11.25677,20.88185 -11.25677,33.45226 0,29.95689 23.816146,54.37977 53.545735,55.31584 -3.540214,-3.09768 -6.195374,-12.83327 -7.965481,-13.2758 -23.468904,-4.52705 -41.154984,-25.21495 -41.154984,-50.00552 0,-9.28457 2.48831,-17.99315 6.8315,-25.48678 z"
           style="fill:url(#linearGradient9328);fill-opacity:1;stroke:#00001f;stroke-width:0.66379011;stroke-linejoin:miter;stroke-miterlimit:4;stroke-dasharray:none;stroke-opacity:1" />
      </g>
    </g>
  </g>
  <g
     inkscape:groupmode="layer"
     id="layer2"
     inkscape:label="over"
     style="opacity:1">
    <g
       id="g4331"
       style=""
       clip-path="none"
       mask="url(#mask4352)">
      <path
         sodipodi:nodetypes="csscscc"
         inkscape:connector-curvature="0"
         id="path4303"
         d="m 17.759679,33.696492 c 0,-0.781725 4.000271,-1.874734 4.173265,-2.772701 1.29657,-6.730076 7.220876,-11.819514 14.327565,-11.819514 5.466369,0 10.231922,3.010408 12.73154,7.463031 -2.674749,-5.641483 -8.421954,-9.547633 -15.076716,-9.547633 -9.205595,0 -16.676805,7.471208 -16.676805,16.676817 z"
         style="fill:url(#linearGradient4313);fill-opacity:1;stroke:none;stroke-width:0.13028753" />
      <path
         inkscape:connector-curvature="0"
         sodipodi:nodetypes="csccsc"
         id="path4305"
         d="m 43.764258,20.724726 c -2.734969,-2.07967 -6.147978,-3.314188 -9.848925,-3.314188 -8.819826,0 -16.010345,7.011885 -16.28594,15.764791 0.912011,-1.042301 3.778337,-1.824026 3.908625,-2.345176 1.332842,-6.909651 7.423718,-12.116739 14.722491,-12.116739 2.733538,0 5.297494,0.732602 7.503749,2.011312 z"
         style="fill:url(#linearGradient4315);fill-opacity:1;stroke:#00001f;stroke-width:0.19543129;stroke-linejoin:miter;stroke-miterlimit:4;stroke-dasharray:none;stroke-opacity:1" />
    </g>
  </g>
</svg>
