# Wavefront OBJ exported by MilkShape 3D

mtllib cock.mtl

v -2.013984 5.530107 1.625041
v -2.869072 5.710725 0.000000
v -4.453164 2.032526 0.000000
v -3.354377 2.032526 2.485149
v 0.050365 5.094047 2.298157
v -0.701670 2.032526 3.514532
v 2.114715 4.657986 1.625041
v 2.320806 2.032526 2.485149
v 3.419593 2.032526 0.000000
v 3.012752 4.243871 0.000000
v 2.859301 4.500711 0.209997
v 0.987125 9.580021 1.185787
v 0.704475 9.901781 0.067136
v 1.822482 8.629102 1.676957
v 2.657827 7.678156 1.185787
v 2.938946 7.358140 0.222412
v 2.229457 10.367758 1.185787
v 2.208667 10.795536 0.067136
v 3.599377 9.058633 0.829385
v 3.933620 9.273632 0.062049
v 4.588885 8.792483 0.451079
v 4.708528 9.076120 0.000000
v 5.043146 8.180882 0.277791
v 5.358261 7.891065 0.000000
v 4.556109 8.351606 0.521114
v 4.415261 8.145718 0.000000
v 3.839359 8.279117 1.013693
v 3.864001 7.992950 0.236680
v 4.097875 8.045348 0.000000
v -2.013984 5.530107 -1.625041
v -3.354377 2.032526 -2.485149
v 0.050365 5.094047 -2.298170
v -0.701670 2.032526 -3.514532
v 2.114715 4.657986 -1.625041
v 2.320806 2.032526 -2.485149
v 2.859301 4.500711 -0.209997
v 0.987125 9.580021 -1.185787
v 0.704475 9.901781 -0.067136
v 1.822482 8.629102 -1.676957
v 2.657827 7.678156 -1.185787
v 2.938946 7.358140 -0.222412
v 2.229457 10.367758 -1.185787
v 2.208667 10.795536 -0.067136
v 3.599377 9.058633 -0.829385
v 3.933620 9.273632 -0.062049
v 4.588885 8.792483 -0.451079
v 5.043146 8.180882 -0.277791
v 4.556109 8.351606 -0.521114
v 3.864001 7.992950 -0.236680
v 3.839359 8.279117 -1.013693
v 2.419322 11.963769 0.000000
v -0.598014 11.849520 0.000000
v 4.791124 10.051501 0.000000
v 3.429552 4.751094 0.000000
v 4.580832 6.356125 0.000000
v 4.518528 7.268255 0.000000
v -5.358261 0.062129 1.783566
v 1.407159 0.062129 4.305894
v -2.665853 0.062129 -4.305894
v 4.364929 0.062129 -1.783566
v -2.665853 0.062129 4.305894
v 4.364929 0.062129 1.783566
v -5.358261 0.062129 -1.783566
v 1.407159 0.062129 -4.305894
# 64 vertices

vt 0.319700 0.496400
vt 0.198300 0.564500
vt 0.015100 0.311600
vt 0.208800 0.214900
vt 0.485900 0.455800
vt 0.436100 0.189800
vt 0.662000 0.448700
vt 0.689700 0.228100
vt 0.888300 0.310700
vt 0.805600 0.460400
vt 0.782200 0.473100
vt 0.525200 0.794800
vt 0.475300 0.856500
vt 0.588900 0.732600
vt 0.669000 0.684700
vt 0.736200 0.664200
vt 0.590700 0.842800
vt 0.583100 0.913500
vt 0.697600 0.800800
vt 0.724600 0.849200
vt 0.767200 0.811700
vt 0.774500 0.845100
vt 0.813300 0.797500
vt 0.845300 0.800400
vt 0.778100 0.784500
vt 0.803100 0.755700
vt 0.728000 0.756500
vt 0.774100 0.725400
vt 0.794500 0.736200
vt 0.319500 0.497600
vt 0.208200 0.216000
vt 0.014400 0.313000
vt 0.198200 0.565800
vt 0.661400 0.449800
vt 0.689600 0.229200
vt 0.807000 0.464500
vt 0.888500 0.312600
vt 0.735100 0.664300
vt 0.774700 0.843800
vt 0.812900 0.796100
vt 0.844900 0.798700
vt 0.802300 0.754600
vt 0.970400 0.614100
vt 0.960600 0.221100
vt 0.970100 0.221000
vt 0.955700 0.187200
vt 0.950700 0.244200
vt 0.946900 0.187100
vt 0.584900 0.993700
vt 0.387500 0.982400
vt 0.764500 0.912100
vt 0.952200 0.104600
vt 0.589800 0.994900
vt 0.767100 0.910000
vt 0.389600 0.987500
vt 0.963200 0.053900
vt 0.818400 0.501800
vt 0.862600 0.631000
vt 0.838000 0.691900
vt 0.816800 0.505600
vt 0.859500 0.634300
vt 0.834800 0.692400
vt 0.012000 0.087900
vt 0.603600 0.017400
vt 0.290400 0.008900
vt 0.879000 0.089100
vt 0.878100 0.087900
vt 0.011000 0.089100
# 68 texture coordinates

vn -0.553073 0.398221 0.731800
vn -0.816530 0.577303 0.000000
vn -0.864037 0.503429 0.000000
vn -0.517789 0.506385 0.689542
vn 0.056677 0.232478 0.970949
vn 0.062880 0.464192 0.883500
vn 0.717245 0.137728 0.683074
vn 0.594831 0.473687 0.649459
vn 0.936906 0.342252 0.071213
vn 0.989436 -0.075768 -0.123594
vn 0.676847 -0.075627 0.732228
vn -0.512252 0.555148 0.655292
vn -0.653258 0.470412 0.593268
vn 0.109197 0.159835 0.981086
vn 0.507928 -0.142572 0.849519
vn 0.553129 -0.332409 0.763906
vn -0.022089 0.706046 0.707822
vn 0.181109 0.491046 0.852100
vn 0.476803 0.413295 0.775788
vn 0.525732 0.620333 0.582059
vn 0.493818 0.501767 0.710193
vn 0.640025 0.766426 -0.054388
vn 0.647179 0.122622 0.752411
vn 0.609488 -0.792795 0.000000
vn 0.343109 -0.374037 0.861610
vn 0.124183 -0.992259 0.000000
vn 0.465610 -0.651173 0.599317
vn 0.550250 -0.448670 0.704216
vn 0.716109 -0.697989 0.000000
vn -0.553074 0.398221 -0.731799
vn -0.517790 0.506385 -0.689542
vn 0.056677 0.232479 -0.970949
vn 0.062881 0.464191 -0.883500
vn 0.743013 0.141708 -0.654103
vn 0.594831 0.473687 -0.649459
vn 0.695281 -0.069627 -0.715358
vn -0.512252 0.555148 -0.655292
vn -0.731082 0.514225 -0.448432
vn 0.109196 0.159836 -0.981085
vn 0.507930 -0.142572 -0.849518
vn 0.569005 -0.329213 -0.753559
vn -0.022089 0.706046 -0.707822
vn 0.179387 0.487567 -0.854458
vn 0.460455 0.464913 -0.756199
vn 0.479955 0.489380 -0.728114
vn 0.542150 0.367353 -0.755728
vn 0.647179 0.122622 -0.752411
vn 0.343109 -0.374037 -0.861610
vn 0.512073 -0.329239 -0.793337
vn 0.465610 -0.651173 -0.599317
vn 0.257082 0.966390 -0.000054
vn -0.614283 -0.318115 -0.722122
vn 0.556531 -0.433144 0.708985
vn 0.751069 -0.480284 -0.453015
vn 0.930501 -0.358525 -0.075019
vn 0.854083 0.231602 0.465728
vn -0.719008 0.618034 0.317903
vn 0.260984 0.587086 0.766301
vn -0.291492 0.592262 -0.751171
vn 0.712495 0.626986 -0.315023
vn -0.291492 0.592262 0.751171
vn 0.712495 0.626986 0.315023
vn -0.719008 0.618034 -0.317903
vn 0.260984 0.587086 -0.766301
# 64 normals

g Cylinder003
usemtl textures/cock
s 1
f 1/1/1 2/2/2 3/3/3
f 1/1/1 3/3/3 4/4/4
f 5/5/5 1/1/1 4/4/4
f 5/5/5 4/4/4 6/6/6
f 7/7/7 5/5/5 6/6/6
f 7/7/7 6/6/6 8/8/8
f 9/9/9 10/10/10 11/11/11
f 9/9/9 11/11/11 7/7/7
f 9/9/9 7/7/7 8/8/8
f 2/2/2 1/1/1 12/12/12
f 2/2/2 12/12/12 13/13/13
f 14/14/14 12/12/12 1/1/1
f 14/14/14 1/1/1 5/5/5
f 15/15/15 14/14/14 5/5/5
f 15/15/15 5/5/5 7/7/7
f 16/16/16 15/15/15 7/7/7
f 16/16/16 7/7/7 11/11/11
f 17/17/17 18/18/18 13/13/13
f 17/17/17 13/13/13 12/12/12
f 19/19/19 20/20/20 18/18/18
f 19/19/19 18/18/18 17/17/17
f 21/21/21 22/22/22 20/20/20
f 21/21/21 20/20/20 19/19/19
f 23/23/23 24/24/24 22/22/22
f 23/23/23 22/22/22 21/21/21
f 14/14/14 19/19/19 17/17/17
f 14/14/14 17/17/17 12/12/12
f 25/25/25 26/26/26 24/24/24
f 25/25/25 24/24/24 23/23/23
f 27/27/27 28/28/28 29/29/29
f 27/27/27 29/29/29 26/26/26
f 27/27/27 26/26/26 25/25/25
f 16/16/16 28/28/28 27/27/27
f 16/16/16 27/27/27 15/15/15
f 19/19/19 27/27/27 25/25/25
f 19/19/19 25/25/25 21/21/21
f 19/19/19 14/14/14 15/15/15
f 19/19/19 15/15/15 27/27/27
f 21/21/21 25/25/25 23/23/23
f 30/30/30 31/31/31 3/32/3
f 30/30/30 3/32/3 2/33/2
f 32/5/32 33/6/33 31/31/31
f 32/5/32 31/31/31 30/30/30
f 34/34/34 35/35/35 33/6/33
f 34/34/34 33/6/33 32/5/32
f 34/34/34 36/11/36 10/36/10
f 34/34/34 10/36/10 9/37/9
f 34/34/34 9/37/9 35/35/35
f 37/12/37 30/30/30 2/33/2
f 37/12/37 2/33/2 38/13/38
f 39/14/39 32/5/32 30/30/30
f 39/14/39 30/30/30 37/12/37
f 40/15/40 34/34/34 32/5/32
f 40/15/40 32/5/32 39/14/39
f 41/38/41 36/11/36 34/34/34
f 41/38/41 34/34/34 40/15/40
f 42/17/42 37/12/37 38/13/38
f 42/17/42 38/13/38 43/18/43
f 44/19/44 42/17/42 43/18/43
f 44/19/44 43/18/43 45/20/45
f 44/19/44 45/20/45 22/39/22
f 44/19/44 22/39/22 46/21/46
f 47/40/47 46/21/46 22/39/22
f 47/40/47 22/39/22 24/41/24
f 39/14/39 37/12/37 42/17/42
f 39/14/39 42/17/42 44/19/44
f 48/25/48 47/40/47 24/41/24
f 48/25/48 24/41/24 26/42/26
f 29/29/29 49/28/49 50/27/50
f 29/29/29 50/27/50 26/42/26
f 50/27/50 48/25/48 26/42/26
f 50/27/50 49/28/49 41/38/41
f 50/27/50 41/38/41 40/15/40
f 44/19/44 46/21/46 48/25/48
f 44/19/44 48/25/48 50/27/50
f 44/19/44 50/27/50 40/15/40
f 44/19/44 40/15/40 39/14/39
f 46/21/46 47/40/47 48/25/48
f 2/43/2 13/44/13 38/45/38
f 20/46/20 22/47/22 45/48/45
f 51/49/51 52/50/52 13/13/13
f 51/49/51 13/13/13 18/18/18
f 53/51/53 51/49/51 18/18/18
f 53/51/53 18/18/18 20/20/20
f 20/46/20 45/48/45 53/52/53
f 51/53/51 53/54/53 45/20/45
f 51/53/51 45/20/45 43/18/43
f 52/55/52 51/53/51 43/18/43
f 52/55/52 43/18/43 38/13/38
f 38/45/38 13/44/13 52/56/52
f 10/10/10 54/57/54 11/11/11
f 11/11/11 54/57/54 55/58/55
f 11/11/11 55/58/55 16/16/16
f 28/28/28 56/59/56 29/29/29
f 16/16/16 55/58/55 56/59/56
f 16/16/16 56/59/56 28/28/28
f 36/11/36 54/60/54 10/36/10
f 41/38/41 55/61/55 54/60/54
f 41/38/41 54/60/54 36/11/36
f 29/29/29 56/62/56 49/28/49
f 49/28/49 56/62/56 55/61/55
f 49/28/49 55/61/55 41/38/41
f 4/4/4 3/3/3 57/63/57
f 8/8/8 6/6/6 58/64/58
f 31/31/31 33/6/33 59/65/59
f 35/35/35 9/37/9 60/66/60
f 6/6/6 4/4/4 61/65/61
f 9/9/9 8/8/8 62/67/62
f 3/32/3 31/31/31 63/68/63
f 33/6/33 35/35/35 64/64/64
# 110 triangles in group

# 110 triangles total

