# Wavefront OBJ exported by MilkShape 3D

v -0.006264 10.139815 0.111125
v -0.922321 11.276002 0.111125
v -1.354189 12.183795 0.876669
v -1.354191 12.183795 -0.654424
v 0.869585 11.307277 0.111125
v 1.269510 12.229592 -0.654421
v 1.269510 12.229592 0.876670
v -0.022236 11.054869 -0.678826
v -0.774139 11.957075 -1.395570
v 0.697729 11.982769 -1.395570
v -0.022236 11.054869 0.901074
v 0.697727 11.982769 1.617811
v -0.774141 11.957075 1.617809
v 0.792089 13.908440 3.910040
v -0.935659 13.878281 3.910041
v 0.792089 13.908440 -3.687812
v -0.935658 13.878281 -3.687810
v 1.652864 14.101097 2.010588
v 1.652866 14.101093 -1.788346
v -1.802629 14.040783 2.010584
v -1.802628 14.040783 -1.788344
v -1.833696 15.820669 -2.576099
v -1.833694 15.820669 2.798332
v 1.817648 15.884405 -2.576097
v 1.817648 15.884405 2.798334
v -0.978760 16.347713 -5.263315
v 0.748989 16.377872 -5.263312
v -0.978758 16.347713 5.485535
v 0.748987 16.377872 5.485533
v 0.703081 19.007912 3.976330
v -1.024666 18.977749 3.976332
v 0.703081 19.007912 -3.754105
v -1.024664 18.977749 -3.754101
v 1.302847 17.692005 2.043730
v 1.302847 17.692001 -1.821496
v -1.578144 17.641720 2.043728
v -1.578144 17.641716 -1.821490
v 0.419933 18.767719 0.931565
v -0.733311 18.747589 0.931565
v 0.419933 18.767719 -0.709320
v -0.733309 18.747589 -0.709318
v -0.475306 10.419674 0.111124
v -1.099144 11.781781 -1.031096
v -1.099146 11.781779 1.253342
v 1.028650 11.818921 -1.031095
v 0.452728 10.435871 0.111126
v 1.028650 11.818921 1.253342
v -0.010256 10.368580 -0.122967
v -0.010256 10.368580 0.345219
v -1.683270 13.161125 -1.110988
v -1.683271 13.161125 1.333230
v 1.564278 13.217812 -1.110991
v 1.564278 13.217812 1.333233
v -0.886475 12.893787 -2.327000
v 0.777300 12.922825 -2.326998
v -0.886475 12.893787 2.549236
v 0.777302 12.922825 2.549240
v -1.139290 11.789092 -0.098563
v -1.139290 11.789092 0.320814
v 1.068512 11.827628 0.320813
v 1.068514 11.827628 -0.098564
v 0.273779 11.517698 -1.037197
v -0.334221 11.507088 -1.037198
v -0.334221 11.507088 1.259443
v 0.273777 11.517700 1.259442
v 1.439220 13.964142 3.435179
v 0.772514 15.030001 5.091663
v -0.071781 13.893360 3.910043
v -0.955235 14.999846 5.091662
v -1.584335 13.911366 3.435179
v -0.071783 13.893360 -3.687808
v 0.772516 15.030001 -4.869438
v 1.439220 13.964142 -3.212942
v -1.584333 13.911366 -3.212938
v -0.955231 14.999842 -4.869435
v 1.651314 14.189884 0.111125
v 1.833693 14.964899 2.601397
v 1.833696 14.964899 -2.379158
v -1.817646 14.901165 2.601393
v -1.804178 14.129570 0.111125
v -1.817648 14.901165 -2.379159
v -1.829226 15.564684 0.111127
v -1.778090 16.750462 -2.387443
v -1.624432 16.208412 -4.591513
v -1.624434 16.208412 4.813733
v -1.778091 16.750462 2.609680
v 1.399126 16.261189 -4.591511
v 1.729626 16.811691 -2.387446
v 1.626266 15.625002 0.111124
v 1.729626 16.811691 2.609684
v 1.399128 16.261189 4.813733
v -1.002987 17.735737 -4.886004
v -0.114887 16.362793 -5.263311
v 0.724758 17.765896 -4.886013
v -0.114887 16.362793 5.485538
v -1.002989 17.735737 5.108227
v 0.724760 17.765896 5.108234
v 1.284956 18.686474 3.493181
v 0.623068 19.476410 2.549928
v -0.160795 18.992832 4.126421
v -0.961054 19.448753 2.549926
v -1.594975 18.636204 3.493178
v -0.160793 18.992832 -3.904195
v 0.623070 19.476410 -2.327689
v 1.284958 18.686470 -3.270947
v -1.594969 18.636200 -3.270942
v -0.961054 19.448753 -2.327693
v 1.179953 16.501869 0.111124
v 0.931902 18.335953 1.477775
v 0.931904 18.335953 -1.255536
v -1.229898 18.298218 1.477777
v -1.413788 16.456596 0.111121
v -1.229898 18.298218 -1.255538
v 0.306787 17.019020 0.111124
v -0.156689 18.757660 0.931565
v -0.559204 17.003902 0.111121
v -0.156687 18.757660 -0.709318
v -1.454624 12.896973 -1.978203
v -0.560677 10.726705 -0.233161
v -0.560675 10.726705 0.455414
v -1.454622 12.896976 2.200443
v 1.344992 12.945839 -1.978205
v 0.527328 10.745698 -0.233161
v 0.527328 10.745698 0.455412
v 1.344992 12.945843 2.200444
v -1.620178 13.121845 0.111124
v 1.502600 13.176350 0.111125
v -0.050606 12.680295 -2.077694
v -0.050610 12.680295 2.299931
v -0.091360 15.014921 5.091660
v 1.420784 15.020411 4.469094
v -1.602772 14.967632 4.469094
v -0.091358 15.014921 -4.869440
v 1.420786 15.020411 -4.246869
v -1.602772 14.967632 -4.246868
v 1.638575 14.919683 0.111123
v -1.816916 14.859364 0.111125
v -1.628698 17.481880 -4.261369
v -1.733706 16.265366 0.111123
v -1.628702 17.481880 4.483593
v 1.506350 16.321918 0.111123
v 1.358950 17.534027 -4.261370
v 1.358952 17.534031 4.483593
v -0.139112 17.750816 -4.886009
v -0.139114 17.750820 5.108230
v 0.992216 18.972397 2.530485
v -0.172056 19.637951 2.549928
v -1.312389 18.932167 2.530482
v 0.992214 18.972393 -2.308248
v -0.172056 19.637951 -2.327689
v -1.312389 18.932167 -2.308247
v 0.742378 16.847580 0.111123
v -0.988548 16.817368 0.111123
v -0.126207 17.011459 0.111123
# 154 vertices

vt 0.000000 1.000000
# 1 texture coordinates

vn 0.017452 -0.999848 -0.000002
vn -0.741574 -0.670871 -0.000000
vn -0.569156 -0.657108 -0.494238
vn 0.011746 -0.672833 -0.739702
vn 0.591741 -0.636844 -0.494239
vn 0.764535 -0.644583 0.000000
vn 0.591741 -0.636843 0.494241
vn 0.011747 -0.672833 0.739701
vn -0.569155 -0.657108 0.494239
vn -0.905070 -0.425263 0.000001
vn -0.911181 -0.411993 -0.003225
vn -0.965903 -0.258906 -0.000000
vn -0.911181 -0.411993 0.003227
vn -0.913588 -0.405212 0.034073
vn -0.676252 -0.611060 0.411448
vn -0.718159 -0.567305 0.403005
vn -0.963989 -0.260431 0.053853
vn -0.913588 -0.405212 -0.034073
vn -0.963990 -0.260428 -0.053851
vn -0.718160 -0.567305 -0.403003
vn -0.676253 -0.611061 -0.411445
vn 0.919360 -0.393418 0.000002
vn 0.925004 -0.379944 0.003222
vn 0.974350 -0.225039 0.000001
vn 0.925004 -0.379943 -0.003220
vn 0.927173 -0.373081 -0.034072
vn 0.697167 -0.587088 -0.411443
vn 0.737521 -0.541896 -0.403003
vn 0.972491 -0.226629 -0.053853
vn 0.927173 -0.373081 0.034072
vn 0.972492 -0.226628 0.053853
vn 0.737522 -0.541894 0.403004
vn 0.697165 -0.587088 0.411447
vn 0.011484 -0.657890 -0.753026
vn -0.109090 -0.671201 -0.733204
vn 0.012702 -0.727701 -0.685776
vn 0.132450 -0.666985 -0.733204
vn -0.215371 -0.687659 -0.693354
vn -0.185836 -0.753956 -0.630091
vn 0.239239 -0.679724 -0.693354
vn 0.212034 -0.747011 -0.630092
vn 0.011485 -0.657887 0.753029
vn 0.132451 -0.666982 0.733207
vn 0.012701 -0.727700 0.685778
vn -0.109092 -0.671197 0.733208
vn 0.239237 -0.679723 0.693356
vn 0.212036 -0.747010 0.630093
vn -0.215369 -0.687656 0.693358
vn -0.185837 -0.753955 0.630093
vn 0.255264 -0.737100 0.625719
vn 0.013320 -0.763063 0.646187
vn 0.800549 -0.454309 0.390799
vn 0.844195 -0.282786 0.455375
vn 0.339461 -0.491988 0.801694
vn 0.009090 -0.520754 0.853658
vn -0.229384 -0.745560 0.625718
vn -0.784208 -0.481971 0.390797
vn -0.322085 -0.503535 0.801694
vn -0.864030 -0.273533 0.422650
vn 0.255263 -0.737102 -0.625717
vn 0.800550 -0.454310 -0.390797
vn 0.013319 -0.763065 -0.646184
vn 0.009090 -0.520756 -0.853657
vn 0.339463 -0.491990 -0.801692
vn 0.844196 -0.282787 -0.455373
vn -0.229385 -0.745561 -0.625716
vn -0.784210 -0.481970 -0.390795
vn -0.864029 -0.273536 -0.422648
vn -0.322086 -0.503538 -0.801692
vn 0.985035 -0.159753 0.064689
vn 0.997945 -0.064072 0.000001
vn 0.999765 -0.021676 0.000000
vn 0.989686 -0.124652 0.070587
vn 0.985035 -0.159754 -0.064689
vn 0.989687 -0.124650 -0.070586
vn -0.988577 -0.137469 0.061790
vn -0.995101 -0.098863 -0.000001
vn -0.997336 -0.043776 0.058343
vn -0.999848 -0.017451 0.000000
vn -0.988577 -0.137470 -0.061790
vn -0.997336 -0.043778 -0.058343
vn -0.998918 0.019561 -0.042189
vn -0.907125 -0.016753 -0.420527
vn -0.998259 0.058981 0.000000
vn -0.950153 0.311784 -0.000000
vn -0.991239 0.131777 0.008995
vn -0.918193 0.212722 -0.334174
vn -0.998918 0.019560 0.042189
vn -0.907125 -0.016753 0.420528
vn -0.918192 0.212720 0.334176
vn -0.991239 0.131775 -0.008995
vn 0.997121 0.053875 -0.053353
vn 0.995596 0.093745 -0.000000
vn 0.885834 0.013427 -0.463809
vn 0.892273 0.274191 -0.358704
vn 0.967480 0.251665 0.025425
vn 0.925882 0.377813 -0.000001
vn 0.997121 0.053873 0.053353
vn 0.885832 0.013425 0.463811
vn 0.967481 0.251664 -0.025425
vn 0.892272 0.274191 0.358706
vn -0.392543 -0.017353 -0.919570
vn 0.000166 -0.009441 -0.999955
vn -0.405343 0.435933 -0.803530
vn -0.008126 0.465380 -0.885074
vn 0.392909 -0.003643 -0.919570
vn 0.389880 0.449811 -0.803532
vn -0.392543 -0.017352 0.919570
vn 0.000166 -0.009442 0.999955
vn -0.008125 0.465379 0.885074
vn -0.405342 0.435930 0.803532
vn 0.392909 -0.003643 0.919570
vn 0.389880 0.449810 0.803533
vn 0.426449 0.767245 0.479036
vn -0.013955 0.799406 0.600630
vn 0.878625 0.465112 0.108117
vn 0.826228 0.541262 -0.156149
vn 0.541254 0.836259 -0.087830
vn -0.017424 0.998064 -0.059701
vn -0.452966 0.751895 0.479036
vn -0.894321 0.434167 0.108118
vn -0.570110 0.816860 -0.087829
vn -0.844613 0.512100 -0.156150
vn 0.426451 0.767246 -0.479034
vn 0.878626 0.465111 -0.108115
vn -0.013957 0.799407 -0.600628
vn -0.017424 0.998064 0.059701
vn 0.541258 0.836257 0.087830
vn 0.826230 0.541260 0.156148
vn -0.452968 0.751895 -0.479034
vn -0.894322 0.434164 -0.108118
vn -0.844614 0.512098 0.156147
vn -0.570110 0.816860 0.087827
vn 0.872875 0.415855 -0.255254
vn 0.553931 0.832563 -0.000002
vn 0.825442 0.564487 -0.000002
vn 0.865762 0.345846 -0.361726
vn 0.872875 0.415855 0.255252
vn 0.865764 0.345846 0.361723
vn -0.906451 0.343652 -0.245459
vn -0.582650 0.812723 -0.000001
vn -0.877305 0.315421 -0.361727
vn -0.844639 0.535336 -0.000001
vn -0.906451 0.343653 0.245457
vn -0.877306 0.315420 0.361725
vn 0.378256 0.630363 -0.677913
vn 0.181419 0.983406 -0.000001
vn -0.017453 0.999848 0.000000
vn -0.011971 0.685813 -0.727679
vn -0.400025 0.616778 -0.677912
vn -0.215628 0.976476 0.000001
vn 0.378258 0.630363 0.677912
vn -0.011970 0.685814 0.727678
vn -0.400026 0.616778 0.677911
# 154 normals

g default
usemtl textures/heart
s 1
f 1/1/1 42/1/2 119/1/3
f 1/1/1 119/1/3 48/1/4
f 1/1/1 48/1/4 123/1/5
f 1/1/1 123/1/5 46/1/6
f 1/1/1 46/1/6 124/1/7
f 1/1/1 124/1/7 49/1/8
f 1/1/1 49/1/8 120/1/9
f 1/1/1 120/1/9 42/1/2
f 2/1/10 59/1/11 126/1/12
f 2/1/10 126/1/12 58/1/13
f 2/1/10 58/1/13 119/1/3
f 2/1/10 119/1/3 42/1/2
f 2/1/10 42/1/2 120/1/9
f 2/1/10 120/1/9 59/1/11
f 3/1/14 44/1/15 121/1/16
f 3/1/14 121/1/16 51/1/17
f 3/1/14 51/1/17 126/1/12
f 3/1/14 126/1/12 59/1/11
f 3/1/14 59/1/11 120/1/9
f 3/1/14 120/1/9 44/1/15
f 4/1/18 58/1/13 126/1/12
f 4/1/18 126/1/12 50/1/19
f 4/1/18 50/1/19 118/1/20
f 4/1/18 118/1/20 43/1/21
f 4/1/18 43/1/21 119/1/3
f 4/1/18 119/1/3 58/1/13
f 5/1/22 61/1/23 127/1/24
f 5/1/22 127/1/24 60/1/25
f 5/1/22 60/1/25 124/1/7
f 5/1/22 124/1/7 46/1/6
f 5/1/22 46/1/6 123/1/5
f 5/1/22 123/1/5 61/1/23
f 6/1/26 45/1/27 122/1/28
f 6/1/26 122/1/28 52/1/29
f 6/1/26 52/1/29 127/1/24
f 6/1/26 127/1/24 61/1/23
f 6/1/26 61/1/23 123/1/5
f 6/1/26 123/1/5 45/1/27
f 7/1/30 60/1/25 127/1/24
f 7/1/30 127/1/24 53/1/31
f 7/1/30 53/1/31 125/1/32
f 7/1/30 125/1/32 47/1/33
f 7/1/30 47/1/33 124/1/7
f 7/1/30 124/1/7 60/1/25
f 8/1/34 63/1/35 128/1/36
f 8/1/34 128/1/36 62/1/37
f 8/1/34 62/1/37 123/1/5
f 8/1/34 123/1/5 48/1/4
f 8/1/34 48/1/4 119/1/3
f 8/1/34 119/1/3 63/1/35
f 9/1/38 43/1/21 118/1/20
f 9/1/38 118/1/20 54/1/39
f 9/1/38 54/1/39 128/1/36
f 9/1/38 128/1/36 63/1/35
f 9/1/38 63/1/35 119/1/3
f 9/1/38 119/1/3 43/1/21
f 10/1/40 62/1/37 128/1/36
f 10/1/40 128/1/36 55/1/41
f 10/1/40 55/1/41 122/1/28
f 10/1/40 122/1/28 45/1/27
f 10/1/40 45/1/27 123/1/5
f 10/1/40 123/1/5 62/1/37
f 11/1/42 65/1/43 129/1/44
f 11/1/42 129/1/44 64/1/45
f 11/1/42 64/1/45 120/1/9
f 11/1/42 120/1/9 49/1/8
f 11/1/42 49/1/8 124/1/7
f 11/1/42 124/1/7 65/1/43
f 12/1/46 47/1/33 125/1/32
f 12/1/46 125/1/32 57/1/47
f 12/1/46 57/1/47 129/1/44
f 12/1/46 129/1/44 65/1/43
f 12/1/46 65/1/43 124/1/7
f 12/1/46 124/1/7 47/1/33
f 13/1/48 64/1/45 129/1/44
f 13/1/48 129/1/44 56/1/49
f 13/1/48 56/1/49 121/1/16
f 13/1/48 121/1/16 44/1/15
f 13/1/48 44/1/15 120/1/9
f 13/1/48 120/1/9 64/1/45
f 14/1/50 68/1/51 129/1/44
f 14/1/50 129/1/44 57/1/47
f 14/1/50 57/1/47 125/1/32
f 14/1/50 125/1/32 66/1/52
f 14/1/50 66/1/52 131/1/53
f 14/1/50 131/1/53 67/1/54
f 14/1/50 67/1/54 130/1/55
f 14/1/50 130/1/55 68/1/51
f 15/1/56 70/1/57 121/1/16
f 15/1/56 121/1/16 56/1/49
f 15/1/56 56/1/49 129/1/44
f 15/1/56 129/1/44 68/1/51
f 15/1/56 68/1/51 130/1/55
f 15/1/56 130/1/55 69/1/58
f 15/1/56 69/1/58 132/1/59
f 15/1/56 132/1/59 70/1/57
f 16/1/60 73/1/61 122/1/28
f 16/1/60 122/1/28 55/1/41
f 16/1/60 55/1/41 128/1/36
f 16/1/60 128/1/36 71/1/62
f 16/1/60 71/1/62 133/1/63
f 16/1/60 133/1/63 72/1/64
f 16/1/60 72/1/64 134/1/65
f 16/1/60 134/1/65 73/1/61
f 17/1/66 71/1/62 128/1/36
f 17/1/66 128/1/36 54/1/39
f 17/1/66 54/1/39 118/1/20
f 17/1/66 118/1/20 74/1/67
f 17/1/66 74/1/67 135/1/68
f 17/1/66 135/1/68 75/1/69
f 17/1/66 75/1/69 133/1/63
f 17/1/66 133/1/63 71/1/62
f 18/1/70 66/1/52 125/1/32
f 18/1/70 125/1/32 53/1/31
f 18/1/70 53/1/31 127/1/24
f 18/1/70 127/1/24 76/1/71
f 18/1/70 76/1/71 136/1/72
f 18/1/70 136/1/72 77/1/73
f 18/1/70 77/1/73 131/1/53
f 18/1/70 131/1/53 66/1/52
f 19/1/74 76/1/71 127/1/24
f 19/1/74 127/1/24 52/1/29
f 19/1/74 52/1/29 122/1/28
f 19/1/74 122/1/28 73/1/61
f 19/1/74 73/1/61 134/1/65
f 19/1/74 134/1/65 78/1/75
f 19/1/74 78/1/75 136/1/72
f 19/1/74 136/1/72 76/1/71
f 20/1/76 80/1/77 126/1/12
f 20/1/76 126/1/12 51/1/17
f 20/1/76 51/1/17 121/1/16
f 20/1/76 121/1/16 70/1/57
f 20/1/76 70/1/57 132/1/59
f 20/1/76 132/1/59 79/1/78
f 20/1/76 79/1/78 137/1/79
f 20/1/76 137/1/79 80/1/77
f 21/1/80 74/1/67 118/1/20
f 21/1/80 118/1/20 50/1/19
f 21/1/80 50/1/19 126/1/12
f 21/1/80 126/1/12 80/1/77
f 21/1/80 80/1/77 137/1/79
f 21/1/80 137/1/79 81/1/81
f 21/1/80 81/1/81 135/1/68
f 21/1/80 135/1/68 74/1/67
f 22/1/82 84/1/83 135/1/68
f 22/1/82 135/1/68 81/1/81
f 22/1/82 81/1/81 137/1/79
f 22/1/82 137/1/79 82/1/84
f 22/1/82 82/1/84 139/1/85
f 22/1/82 139/1/85 83/1/86
f 22/1/82 83/1/86 138/1/87
f 22/1/82 138/1/87 84/1/83
f 23/1/88 82/1/84 137/1/79
f 23/1/88 137/1/79 79/1/78
f 23/1/88 79/1/78 132/1/59
f 23/1/88 132/1/59 85/1/89
f 23/1/88 85/1/89 140/1/90
f 23/1/88 140/1/90 86/1/91
f 23/1/88 86/1/91 139/1/85
f 23/1/88 139/1/85 82/1/84
f 24/1/92 89/1/93 136/1/72
f 24/1/92 136/1/72 78/1/75
f 24/1/92 78/1/75 134/1/65
f 24/1/92 134/1/65 87/1/94
f 24/1/92 87/1/94 142/1/95
f 24/1/92 142/1/95 88/1/96
f 24/1/92 88/1/96 141/1/97
f 24/1/92 141/1/97 89/1/93
f 25/1/98 91/1/99 131/1/53
f 25/1/98 131/1/53 77/1/73
f 25/1/98 77/1/73 136/1/72
f 25/1/98 136/1/72 89/1/93
f 25/1/98 89/1/93 141/1/97
f 25/1/98 141/1/97 90/1/100
f 25/1/98 90/1/100 143/1/101
f 25/1/98 143/1/101 91/1/99
f 26/1/102 93/1/103 133/1/63
f 26/1/102 133/1/63 75/1/69
f 26/1/102 75/1/69 135/1/68
f 26/1/102 135/1/68 84/1/83
f 26/1/102 84/1/83 138/1/87
f 26/1/102 138/1/87 92/1/104
f 26/1/102 92/1/104 144/1/105
f 26/1/102 144/1/105 93/1/103
f 27/1/106 87/1/94 134/1/65
f 27/1/106 134/1/65 72/1/64
f 27/1/106 72/1/64 133/1/63
f 27/1/106 133/1/63 93/1/103
f 27/1/106 93/1/103 144/1/105
f 27/1/106 144/1/105 94/1/107
f 27/1/106 94/1/107 142/1/95
f 27/1/106 142/1/95 87/1/94
f 28/1/108 85/1/89 132/1/59
f 28/1/108 132/1/59 69/1/58
f 28/1/108 69/1/58 130/1/55
f 28/1/108 130/1/55 95/1/109
f 28/1/108 95/1/109 145/1/110
f 28/1/108 145/1/110 96/1/111
f 28/1/108 96/1/111 140/1/90
f 28/1/108 140/1/90 85/1/89
f 29/1/112 95/1/109 130/1/55
f 29/1/112 130/1/55 67/1/54
f 29/1/112 67/1/54 131/1/53
f 29/1/112 131/1/53 91/1/99
f 29/1/112 91/1/99 143/1/101
f 29/1/112 143/1/101 97/1/113
f 29/1/112 97/1/113 145/1/110
f 29/1/112 145/1/110 95/1/109
f 30/1/114 100/1/115 145/1/110
f 30/1/114 145/1/110 97/1/113
f 30/1/114 97/1/113 143/1/101
f 30/1/114 143/1/101 98/1/116
f 30/1/114 98/1/116 146/1/117
f 30/1/114 146/1/117 99/1/118
f 30/1/114 99/1/118 147/1/119
f 30/1/114 147/1/119 100/1/115
f 31/1/120 102/1/121 140/1/90
f 31/1/120 140/1/90 96/1/111
f 31/1/120 96/1/111 145/1/110
f 31/1/120 145/1/110 100/1/115
f 31/1/120 100/1/115 147/1/119
f 31/1/120 147/1/119 101/1/122
f 31/1/120 101/1/122 148/1/123
f 31/1/120 148/1/123 102/1/121
f 32/1/124 105/1/125 142/1/95
f 32/1/124 142/1/95 94/1/107
f 32/1/124 94/1/107 144/1/105
f 32/1/124 144/1/105 103/1/126
f 32/1/124 103/1/126 150/1/127
f 32/1/124 150/1/127 104/1/128
f 32/1/124 104/1/128 149/1/129
f 32/1/124 149/1/129 105/1/125
f 33/1/130 103/1/126 144/1/105
f 33/1/130 144/1/105 92/1/104
f 33/1/130 92/1/104 138/1/87
f 33/1/130 138/1/87 106/1/131
f 33/1/130 106/1/131 151/1/132
f 33/1/130 151/1/132 107/1/133
f 33/1/130 107/1/133 150/1/127
f 33/1/130 150/1/127 103/1/126
f 34/1/134 98/1/116 143/1/101
f 34/1/134 143/1/101 90/1/100
f 34/1/134 90/1/100 141/1/97
f 34/1/134 141/1/97 108/1/135
f 34/1/134 108/1/135 152/1/136
f 34/1/134 152/1/136 109/1/137
f 34/1/134 109/1/137 146/1/117
f 34/1/134 146/1/117 98/1/116
f 35/1/138 108/1/135 141/1/97
f 35/1/138 141/1/97 88/1/96
f 35/1/138 88/1/96 142/1/95
f 35/1/138 142/1/95 105/1/125
f 35/1/138 105/1/125 149/1/129
f 35/1/138 149/1/129 110/1/139
f 35/1/138 110/1/139 152/1/136
f 35/1/138 152/1/136 108/1/135
f 36/1/140 112/1/141 139/1/85
f 36/1/140 139/1/85 86/1/91
f 36/1/140 86/1/91 140/1/90
f 36/1/140 140/1/90 102/1/121
f 36/1/140 102/1/121 148/1/123
f 36/1/140 148/1/123 111/1/142
f 36/1/140 111/1/142 153/1/143
f 36/1/140 153/1/143 112/1/141
f 37/1/144 106/1/131 138/1/87
f 37/1/144 138/1/87 83/1/86
f 37/1/144 83/1/86 139/1/85
f 37/1/144 139/1/85 112/1/141
f 37/1/144 112/1/141 153/1/143
f 37/1/144 153/1/143 113/1/145
f 37/1/144 113/1/145 151/1/132
f 37/1/144 151/1/132 106/1/131
f 38/1/146 109/1/137 152/1/136
f 38/1/146 152/1/136 114/1/147
f 38/1/146 114/1/147 154/1/148
f 38/1/146 154/1/148 115/1/149
f 38/1/146 115/1/149 147/1/119
f 38/1/146 147/1/119 99/1/118
f 38/1/146 99/1/118 146/1/117
f 38/1/146 146/1/117 109/1/137
f 39/1/150 115/1/149 154/1/148
f 39/1/150 154/1/148 116/1/151
f 39/1/150 116/1/151 153/1/143
f 39/1/150 153/1/143 111/1/142
f 39/1/150 111/1/142 148/1/123
f 39/1/150 148/1/123 101/1/122
f 39/1/150 101/1/122 147/1/119
f 39/1/150 147/1/119 115/1/149
f 40/1/152 110/1/139 149/1/129
f 40/1/152 149/1/129 104/1/128
f 40/1/152 104/1/128 150/1/127
f 40/1/152 150/1/127 117/1/153
f 40/1/152 117/1/153 154/1/148
f 40/1/152 154/1/148 114/1/147
f 40/1/152 114/1/147 152/1/136
f 40/1/152 152/1/136 110/1/139
f 41/1/154 117/1/153 150/1/127
f 41/1/154 150/1/127 107/1/133
f 41/1/154 107/1/133 151/1/132
f 41/1/154 151/1/132 113/1/145
f 41/1/154 113/1/145 153/1/143
f 41/1/154 153/1/143 116/1/151
f 41/1/154 116/1/151 154/1/148
f 41/1/154 154/1/148 117/1/153
# 304 triangles in group

# 304 triangles total

