# Wavefront OBJ exported by MilkShape 3D

mtllib tophat.mtl

v -5.517172 0.133337 -5.517171
v -7.208532 0.377164 -2.985872
v -7.802459 0.620991 0.000000
v -7.208532 0.377164 2.985873
v -5.517171 0.133337 5.517172
v -2.985872 -0.110490 7.208532
v -0.000000 -0.354317 7.802459
v 2.985871 -0.110490 7.208532
v 5.517170 0.133337 5.517172
v 7.208532 0.377164 2.985874
v 7.802459 0.620991 0.000001
v 7.208532 0.377164 -2.985872
v 5.517170 0.133337 -5.517172
v 2.985870 -0.110490 -7.208534
v -0.000004 -0.354316 -7.802459
v -2.985877 -0.110489 -7.208530
v -2.875666 0.000000 -3.195185
v -3.757239 0.000000 -1.729221
v -4.066806 0.000000 0.000000
v -3.757239 0.000000 1.729222
v -2.875666 0.000000 3.195185
v -1.556299 -0.000000 4.174710
v -0.000000 -0.000000 4.518674
v 1.556299 -0.000000 4.174710
v 2.875666 -0.000000 3.195186
v 3.757239 -0.000000 1.729223
v 4.066806 -0.000000 0.000001
v 3.757239 -0.000000 -1.729222
v 2.875666 -0.000000 -3.195185
v 1.556298 0.000000 -4.174711
v -0.000002 0.000000 -4.518674
v -1.556302 0.000000 -4.174710
v -3.757239 7.859021 -1.729221
v -2.875666 7.556724 -3.195185
v -4.066806 7.884722 0.000000
v -3.757239 7.859021 1.729222
v -2.875666 7.556724 3.195185
v -1.556299 6.824402 4.174710
v 0.000000 6.443523 4.518674
v 1.556300 6.824402 4.174710
v 2.875667 7.556724 3.195186
v 3.757239 7.859021 1.729223
v 4.066807 7.884722 0.000001
v 3.757240 7.859021 -1.729222
v 2.875667 7.556724 -3.195185
v 1.556299 6.824411 -4.174711
v -0.000001 6.443528 -4.518674
v -1.556302 6.824411 -4.174710
v -2.817929 7.074056 -1.296916
v -2.156749 6.915225 -2.396388
v -3.050104 7.122306 0.000000
v -2.817929 7.074056 1.296916
v -2.156749 6.915225 2.396389
v -1.167224 6.611229 3.131033
v 0.000000 6.443523 3.389006
v 1.167225 6.611229 3.131033
v 2.156750 6.915225 2.396389
v 2.817930 7.074056 1.296917
v 3.050106 7.122306 0.000001
v 2.817930 7.074056 -1.296916
v 2.156750 6.915225 -2.396389
v 1.167224 6.611232 -3.131033
v -0.000001 6.443524 -3.389005
v -1.167226 6.611232 -3.131032
v -1.408965 6.602647 -0.648458
v -1.078375 6.506463 -1.198194
v -1.525052 6.595398 0.000000
v -1.408965 6.602647 0.648458
v -1.078374 6.506463 1.198195
v -0.583612 6.387829 1.565516
v 0.000000 6.340791 1.694503
v 0.583612 6.387829 1.565516
v 1.078375 6.506463 1.198195
v 1.408965 6.602647 0.648459
v 1.525053 6.595398 0.000000
v 1.408965 6.602647 -0.648458
v 1.078375 6.506463 -1.198194
v 0.583612 6.387832 -1.565516
v -0.000000 6.340793 -1.694502
v -0.583613 6.387832 -1.565516
v 0.000000 6.340796 0.000000
v -5.743844 1.453357 -5.743843
v -7.504694 1.763433 -3.108546
v -8.123021 2.073508 0.000000
v -7.504693 1.763433 3.108546
v -5.743843 1.453357 5.743844
v -3.108546 1.143282 7.504693
v -0.000000 0.833207 8.123021
v 3.108545 1.143282 7.504694
v 5.743842 1.453357 5.743845
v 7.504693 1.763432 3.108548
v 8.123021 2.073507 0.000001
v 7.504693 1.763432 -3.108546
v 5.743842 1.453357 -5.743844
v 3.108543 1.143283 -7.504694
v -0.000004 0.833208 -8.123021
v -3.108551 1.143283 -7.504691
v -2.933180 0.081172 -3.259089
v -3.832384 0.081172 -1.763806
v -4.148142 0.081172 0.000000
v -3.832384 0.081172 1.763806
v -2.933179 0.081172 3.259089
v -1.587425 0.081172 4.258205
v -0.000000 0.081172 4.609047
v 1.587425 0.081172 4.258205
v 2.933179 0.081172 3.259089
v 3.832384 0.081172 1.763808
v 4.148142 0.081172 0.000001
v 3.832384 0.081172 -1.763806
v 2.933179 0.081172 -3.259089
v 1.587424 0.081172 -4.258205
v -0.000002 0.081172 -4.609047
v -1.587428 0.081173 -4.258204
v -2.933180 1.883113 -3.259089
v -3.832384 1.895960 -1.763806
v -4.148142 1.897053 0.000000
v -3.832384 1.895960 1.763806
v -2.933179 1.883113 3.259089
v -1.587425 1.851988 4.258205
v -0.000000 1.828706 4.609047
v 1.587425 1.851988 4.258205
v 2.933180 1.883112 3.259089
v 3.832384 1.895959 1.763808
v 4.148142 1.897052 0.000001
v 3.832384 1.895959 -1.763806
v 2.933180 1.883112 -3.259089
v 1.587424 1.851989 -4.258205
v -0.000002 1.828707 -4.609047
v -1.587428 1.851989 -4.258204
v 3.796251 0.309574 1.729224
v 3.796251 5.176810 1.729224
v 3.796251 5.176810 -1.729222
v 3.796251 0.309573 -1.729221
v 4.105820 5.176810 0.000001
v 4.105819 0.309574 0.000002
# 135 vertices

vt 0.000000 1.000000
vt 0.995701 1.000000
vt 0.497850 0.998912
vt 0.502149 0.001088
vt 1.000000 0.002175
vt 0.000000 0.997825
vt 0.004299 0.000000
# 7 texture coordinates

vn -0.372239 0.815754 -0.442701
vn 0.525899 0.677496 0.514227
vn 0.603214 0.758943 0.245231
vn -0.586894 0.752540 -0.298729
vn 0.678950 0.733155 0.038852
vn -0.647685 0.761313 -0.030099
vn 0.643154 0.746817 -0.169170
vn -0.638384 0.740438 0.210280
vn 0.508690 0.771615 -0.381897
vn -0.532367 0.718038 0.448338
vn 0.310650 0.796724 -0.518389
vn -0.320887 0.692959 0.645631
vn 0.043506 0.824906 -0.563593
vn -0.066821 0.683358 0.727019
vn -0.234958 0.809017 -0.538783
vn 0.226665 0.709179 0.667599
vn -0.444295 0.783818 -0.433857
vn 0.453556 0.732062 0.508304
vn -0.603214 0.758943 -0.245231
vn 0.586894 0.752540 0.298729
vn -0.678951 0.733155 -0.038852
vn 0.647685 0.761313 0.030099
vn -0.643154 0.746817 0.169170
vn 0.638384 0.740438 -0.210280
vn -0.508690 0.771615 0.381897
vn 0.532367 0.718038 -0.448338
vn -0.310650 0.796724 0.518389
vn 0.320887 0.692959 -0.645631
vn -0.043506 0.824906 0.563593
vn 0.066821 0.683358 -0.727019
vn 0.198939 0.867203 0.456489
vn -0.292196 0.553603 -0.779837
vn -0.412679 0.899406 -0.144099
vn 0.456758 0.885785 0.082206
vn 0.444917 0.888114 0.115338
vn -0.472679 0.644367 -0.601138
vn -0.432016 0.896679 0.096590
vn 0.469491 0.882919 -0.005665
vn -0.338114 0.886457 0.316028
vn 0.445796 0.889574 -0.099617
vn -0.131067 0.829766 0.542504
vn 0.397954 0.913254 -0.087179
vn 0.035286 0.743009 0.668351
vn 0.246802 0.967547 -0.054243
vn 0.092465 0.715405 0.692565
vn -0.028407 0.997971 -0.056983
vn 0.136748 0.748292 0.649122
vn -0.284551 0.953514 -0.099211
vn 0.270632 0.842371 0.466014
vn -0.417261 0.898849 -0.134031
vn 0.412679 0.899406 0.144099
vn -0.456758 0.885785 -0.082206
vn 0.432016 0.896679 -0.096590
vn -0.469491 0.882919 0.005665
vn 0.338114 0.886457 -0.316028
vn -0.445796 0.889574 0.099617
vn 0.131067 0.829766 -0.542503
vn -0.397953 0.913254 0.087180
vn -0.035286 0.743010 -0.668349
vn -0.246802 0.967546 0.054246
vn -0.092465 0.715406 -0.692564
vn 0.028407 0.997971 0.056984
vn -0.023321 0.856022 -0.516413
vn 0.225131 0.971518 0.073944
vn 0.263279 0.964509 0.020143
vn 0.267361 0.963560 0.008386
vn 0.255459 0.966814 -0.003439
vn 0.257405 0.965967 -0.025500
vn 0.262466 0.964938 -0.002631
vn 0.159547 0.986813 -0.027304
vn -0.032991 0.998448 -0.044865
vn -0.195977 0.980142 -0.030244
vn -0.261461 0.965172 -0.009040
vn -0.263279 0.964509 -0.020143
vn -0.255459 0.966814 0.003439
vn -0.257405 0.965967 0.025500
vn -0.262464 0.964938 0.002633
vn -0.159546 0.986813 0.027306
vn 0.032992 0.998448 0.044865
vn 0.161906 0.986501 0.024546
vn 0.000000 1.000000 0.000001
vn 0.745491 0.232219 0.624754
vn 0.929835 0.221827 0.293597
vn 0.974251 0.217777 -0.058381
vn 0.881912 0.227970 -0.412626
vn 0.655886 0.238942 -0.716045
vn 0.332009 0.250986 -0.909272
vn -0.070813 0.256434 -0.963964
vn -0.449353 0.243600 -0.859500
vn -0.745491 0.232219 -0.624754
vn -0.929835 0.221827 -0.293598
vn -0.974251 0.217777 0.058381
vn -0.881912 0.227970 0.412627
vn -0.655886 0.238941 0.716045
vn -0.332009 0.250986 0.909272
vn 0.070814 0.256434 0.963964
vn 0.449354 0.243599 0.859500
vn -0.783249 0.000000 -0.621708
vn -0.694795 0.000000 -0.719208
vn -0.912845 0.000000 -0.408306
vn -0.955936 0.000000 -0.293577
vn -0.998224 0.000000 -0.059568
vn -0.998224 0.000000 0.059568
vn -0.955936 0.000000 0.293577
vn -0.912845 0.000000 0.408306
vn -0.783249 0.000000 0.621708
vn -0.694795 0.000000 0.719208
vn -0.478720 0.000000 0.877967
vn -0.349421 0.000000 0.936966
vn -0.073472 0.000000 0.997297
vn 0.073472 -0.000000 0.997297
vn 0.349421 -0.000000 0.936966
vn 0.478720 -0.000000 0.877967
vn 0.694795 -0.000000 0.719208
vn 0.783249 -0.000000 0.621708
vn 0.912845 -0.000000 0.408307
vn 0.955936 0.000000 0.293577
vn 0.998224 0.000000 0.059568
vn 0.998224 -0.000000 -0.059568
vn 0.955936 -0.000000 -0.293576
vn 0.912845 -0.000000 -0.408306
vn 0.783249 -0.000000 -0.621708
vn 0.694795 -0.000000 -0.719208
vn 0.478720 -0.000000 -0.877968
vn 0.349421 -0.000000 -0.936966
vn 0.073472 -0.000000 -0.997297
vn -0.073473 0.000000 -0.997297
vn -0.349422 0.000000 -0.936966
vn -0.478721 0.000000 -0.877967
vn 0.984351 -0.000000 0.176220
vn 0.984351 -0.000000 -0.176220
# 131 normals

g Circle.011
usemtl textures/tophat
s 1
f 17/1/1 1/1/2 2/1/3
f 17/1/1 2/1/3 18/1/4
f 3/1/5 19/1/6 18/1/4
f 3/1/5 18/1/4 2/1/3
f 4/1/7 20/1/8 19/1/6
f 4/1/7 19/1/6 3/1/5
f 5/1/9 21/1/10 20/1/8
f 5/1/9 20/1/8 4/1/7
f 6/1/11 22/1/12 21/1/10
f 6/1/11 21/1/10 5/1/9
f 7/1/13 23/1/14 22/1/12
f 7/1/13 22/1/12 6/1/11
f 8/1/15 24/1/16 23/1/14
f 8/1/15 23/1/14 7/1/13
f 9/1/17 25/1/18 24/1/16
f 9/1/17 24/1/16 8/1/15
f 10/1/19 26/1/20 25/1/18
f 10/1/19 25/1/18 9/1/17
f 11/1/21 27/1/22 26/1/20
f 11/1/21 26/1/20 10/1/19
f 12/1/23 28/1/24 27/1/22
f 12/1/23 27/1/22 11/1/21
f 13/1/25 29/1/26 28/1/24
f 13/1/25 28/1/24 12/1/23
f 14/1/27 30/1/28 29/1/26
f 14/1/27 29/1/26 13/1/25
f 15/1/29 31/1/30 30/1/28
f 15/1/29 30/1/28 14/1/27
f 16/1/31 32/1/32 31/1/30
f 16/1/31 31/1/30 15/1/29
f 16/1/31 1/1/2 17/1/1
f 16/1/31 17/1/1 32/1/32
f 33/1/33 49/1/34 50/1/35
f 33/1/33 50/1/35 34/1/36
f 35/1/37 51/1/38 49/1/34
f 35/1/37 49/1/34 33/1/33
f 36/1/39 52/1/40 51/1/38
f 36/1/39 51/1/38 35/1/37
f 37/1/41 53/1/42 52/1/40
f 37/1/41 52/1/40 36/1/39
f 38/1/43 54/1/44 53/1/42
f 38/1/43 53/1/42 37/1/41
f 39/1/45 55/1/46 54/1/44
f 39/1/45 54/1/44 38/1/43
f 40/1/47 56/1/48 55/1/46
f 40/1/47 55/1/46 39/1/45
f 41/1/49 57/1/50 56/1/48
f 41/1/49 56/1/48 40/1/47
f 42/1/51 58/1/52 57/1/50
f 42/1/51 57/1/50 41/1/49
f 43/1/53 59/1/54 58/1/52
f 43/1/53 58/1/52 42/1/51
f 44/1/55 60/1/56 59/1/54
f 44/1/55 59/1/54 43/1/53
f 45/1/57 61/1/58 60/1/56
f 45/1/57 60/1/56 44/1/55
f 46/1/59 62/1/60 61/1/58
f 46/1/59 61/1/58 45/1/57
f 47/1/61 63/1/62 62/1/60
f 47/1/61 62/1/60 46/1/59
f 48/1/63 64/1/64 63/1/62
f 48/1/63 63/1/62 47/1/61
f 48/1/63 34/1/36 50/1/35
f 48/1/63 50/1/35 64/1/64
f 49/1/34 65/1/65 66/1/66
f 49/1/34 66/1/66 50/1/35
f 51/1/38 67/1/67 65/1/65
f 51/1/38 65/1/65 49/1/34
f 52/1/40 68/1/68 67/1/67
f 52/1/40 67/1/67 51/1/38
f 53/1/42 69/1/69 68/1/68
f 53/1/42 68/1/68 52/1/40
f 54/1/44 70/1/70 69/1/69
f 54/1/44 69/1/69 53/1/42
f 55/1/46 71/1/71 70/1/70
f 55/1/46 70/1/70 54/1/44
f 56/1/48 72/1/72 71/1/71
f 56/1/48 71/1/71 55/1/46
f 57/1/50 73/1/73 72/1/72
f 57/1/50 72/1/72 56/1/48
f 58/1/52 74/1/74 73/1/73
f 58/1/52 73/1/73 57/1/50
f 59/1/54 75/1/75 74/1/74
f 59/1/54 74/1/74 58/1/52
f 60/1/56 76/1/76 75/1/75
f 60/1/56 75/1/75 59/1/54
f 61/1/58 77/1/77 76/1/76
f 61/1/58 76/1/76 60/1/56
f 62/1/60 78/1/78 77/1/77
f 62/1/60 77/1/77 61/1/58
f 63/1/62 79/1/79 78/1/78
f 63/1/62 78/1/78 62/1/60
f 64/1/64 80/1/80 79/1/79
f 64/1/64 79/1/79 63/1/62
f 64/1/64 50/1/35 66/1/66
f 64/1/64 66/1/66 80/1/80
f 65/1/65 81/1/81 66/1/66
f 67/1/67 81/1/81 65/1/65
f 68/1/68 81/1/81 67/1/67
f 69/1/69 81/1/81 68/1/68
f 70/1/70 81/1/81 69/1/69
f 71/1/71 81/1/81 70/1/70
f 72/1/72 81/1/81 71/1/71
f 73/1/73 81/1/81 72/1/72
f 74/1/74 81/1/81 73/1/73
f 75/1/75 81/1/81 74/1/74
f 76/1/76 81/1/81 75/1/75
f 77/1/77 81/1/81 76/1/76
f 78/1/78 81/1/81 77/1/77
f 79/1/79 81/1/81 78/1/78
f 80/1/80 81/1/81 79/1/79
f 80/1/80 66/1/66 81/1/81
f 2/1/3 1/1/2 82/1/82
f 2/1/3 82/1/82 83/1/83
f 3/1/5 2/1/3 83/1/83
f 3/1/5 83/1/83 84/1/84
f 4/1/7 3/1/5 84/1/84
f 4/1/7 84/1/84 85/1/85
f 5/1/9 4/1/7 85/1/85
f 5/1/9 85/1/85 86/1/86
f 6/1/11 5/1/9 86/1/86
f 6/1/11 86/1/86 87/1/87
f 7/1/13 6/1/11 87/1/87
f 7/1/13 87/1/87 88/1/88
f 8/1/15 7/1/13 88/1/88
f 8/1/15 88/1/88 89/1/89
f 9/1/17 8/1/15 89/1/89
f 9/1/17 89/1/89 90/1/90
f 10/1/19 9/1/17 90/1/90
f 10/1/19 90/1/90 91/1/91
f 11/1/21 10/1/19 91/1/91
f 11/1/21 91/1/91 92/1/92
f 12/1/23 11/1/21 92/1/92
f 12/1/23 92/1/92 93/1/93
f 13/1/25 12/1/23 93/1/93
f 13/1/25 93/1/93 94/1/94
f 14/1/27 13/1/25 94/1/94
f 14/1/27 94/1/94 95/1/95
f 15/1/29 14/1/27 95/1/95
f 15/1/29 95/1/95 96/1/96
f 16/1/31 15/1/29 96/1/96
f 16/1/31 96/1/96 97/1/97
f 1/1/2 16/1/31 97/1/97
f 1/1/2 97/1/97 82/1/82
f 18/1/4 33/1/33 34/1/36
f 18/1/4 34/1/36 17/1/1
f 19/1/6 35/1/37 33/1/33
f 19/1/6 33/1/33 18/1/4
f 20/1/8 36/1/39 35/1/37
f 20/1/8 35/1/37 19/1/6
f 21/1/10 37/1/41 36/1/39
f 21/1/10 36/1/39 20/1/8
f 22/1/12 38/1/43 37/1/41
f 22/1/12 37/1/41 21/1/10
f 23/1/14 39/1/45 38/1/43
f 23/1/14 38/1/43 22/1/12
f 24/1/16 40/1/47 39/1/45
f 24/1/16 39/1/45 23/1/14
f 25/1/18 41/1/49 40/1/47
f 25/1/18 40/1/47 24/1/16
f 26/1/20 42/1/51 41/1/49
f 26/1/20 41/1/49 25/1/18
f 27/1/22 43/1/53 42/1/51
f 27/1/22 42/1/51 26/1/20
f 28/1/24 44/1/55 43/1/53
f 28/1/24 43/1/53 27/1/22
f 29/1/26 45/1/57 44/1/55
f 29/1/26 44/1/55 28/1/24
f 30/1/28 46/1/59 45/1/57
f 30/1/28 45/1/57 29/1/26
f 31/1/30 47/1/61 46/1/59
f 31/1/30 46/1/59 30/1/28
f 32/1/32 48/1/63 47/1/61
f 32/1/32 47/1/61 31/1/30
f 17/1/1 34/1/36 48/1/63
f 17/1/1 48/1/63 32/1/32
# 176 triangles in group

g Circle.013
usemtl textures/tophat_collar
f 114/1/98 98/1/99 99/1/100
f 114/1/98 99/1/100 115/1/101
f 100/1/102 116/1/103 115/1/101
f 100/1/102 115/1/101 99/1/100
f 101/1/104 117/1/105 116/1/103
f 101/1/104 116/1/103 100/1/102
f 102/1/106 118/1/107 117/1/105
f 102/1/106 117/1/105 101/1/104
f 103/1/108 119/1/109 118/1/107
f 103/1/108 118/1/107 102/1/106
f 104/1/110 120/1/111 119/1/109
f 104/1/110 119/1/109 103/1/108
f 105/1/112 121/1/113 120/1/111
f 105/1/112 120/1/111 104/1/110
f 106/1/114 122/1/115 121/1/113
f 106/1/114 121/1/113 105/1/112
f 107/1/116 123/1/117 122/1/115
f 107/1/116 122/1/115 106/1/114
f 108/1/118 124/1/119 123/1/117
f 108/1/118 123/1/117 107/1/116
f 109/1/120 125/1/121 124/1/119
f 109/1/120 124/1/119 108/1/118
f 110/1/122 126/1/123 125/1/121
f 110/1/122 125/1/121 109/1/120
f 111/1/124 127/1/125 126/1/123
f 111/1/124 126/1/123 110/1/122
f 112/1/126 128/1/127 127/1/125
f 112/1/126 127/1/125 111/1/124
f 113/1/128 129/1/129 128/1/127
f 113/1/128 128/1/127 112/1/126
f 98/1/99 114/1/98 129/1/129
f 98/1/99 129/1/129 113/1/128
# 32 triangles in group

g Plane.001
usemtl textures/tophat_logo
f 130/2/130 135/3/119 134/4/118
f 130/2/130 134/4/118 131/5/130
f 135/3/119 133/6/131 132/7/131
f 135/3/119 132/7/131 134/4/118
# 4 triangles in group

# 212 triangles total

