<?xml version="1.0" encoding="UTF-8" standalone="no"?>
<!-- Created with Inkscape (http://www.inkscape.org/) -->

<svg
   xmlns:dc="http://purl.org/dc/elements/1.1/"
   xmlns:cc="http://creativecommons.org/ns#"
   xmlns:rdf="http://www.w3.org/1999/02/22-rdf-syntax-ns#"
   xmlns:svg="http://www.w3.org/2000/svg"
   xmlns="http://www.w3.org/2000/svg"
   xmlns:xlink="http://www.w3.org/1999/xlink"
   xmlns:sodipodi="http://sodipodi.sourceforge.net/DTD/sodipodi-0.dtd"
   xmlns:inkscape="http://www.inkscape.org/namespaces/inkscape"
   width="2048"
   height="2048"
   viewBox="0 0 541.86665 541.86668"
   id="svg2"
   version="1.1"
   inkscape:version="0.91+devel r"
   sodipodi:docname="board_under.svg"
   inkscape:export-filename="circles.png"
   inkscape:export-xdpi="96"
   inkscape:export-ydpi="96"
   enable-background="new">
  <defs
     id="defs4">
    <linearGradient
       id="linearGradient3699">
      <stop
         id="stop8410"
         offset="0"
         style="stop-color:#3f0f00;stop-opacity:0.56078434;" />
      <stop
         style="stop-color:#ff7f2f;stop-opacity:0.56078434;"
         offset="0.75"
         id="stop8412" />
      <stop
         id="stop8414"
         offset="1"
         style="stop-color:#ff9f5f;stop-opacity:0.78039217" />
    </linearGradient>
    <linearGradient
       id="linearGradient8416">
      <stop
         style="stop-color:#202020;stop-opacity:0.56078434"
         offset="0"
         id="stop6437" />
      <stop
         id="stop6439"
         offset="0.75"
         style="stop-color:#a3a3a3;stop-opacity:0.56078434" />
      <stop
         style="stop-color:#bdbdbd;stop-opacity:0.78039217"
         offset="1"
         id="stop6441" />
    </linearGradient>
    <linearGradient
       id="linearGradient3674">
      <stop
         style="stop-color:#000000;stop-opacity:1;"
         offset="0"
         id="stop3676" />
      <stop
         style="stop-color:#3f0b00;stop-opacity:0.78"
         offset="1"
         id="stop3678" />
    </linearGradient>
    <linearGradient
       id="linearGradient6443">
      <stop
         id="stop3701"
         offset="0"
         style="stop-color:#3f0f00;stop-opacity:0.56078434;" />
      <stop
         style="stop-color:#ff7f2f;stop-opacity:0.56078434;"
         offset="0.75"
         id="stop3673" />
      <stop
         id="stop3703"
         offset="1"
         style="stop-color:#ff9f5f;stop-opacity:0.78" />
    </linearGradient>
    <linearGradient
       id="linearGradient3606">
      <stop
         style="stop-color:#5fafff;stop-opacity:1"
         offset="0"
         id="stop3608" />
      <stop
         id="stop3614"
         offset="0.80000001"
         style="stop-color:#5fafff;stop-opacity:1;" />
      <stop
         style="stop-color:#bfdfff;stop-opacity:1;"
         offset="1"
         id="stop3610" />
    </linearGradient>
    <linearGradient
       id="linearGradient3698">
      <stop
         style="stop-color:#000000;stop-opacity:1;"
         offset="0"
         id="stop3700" />
      <stop
         style="stop-color:#0f3f6f;stop-opacity:1"
         offset="1"
         id="stop3702" />
    </linearGradient>
    <linearGradient
       id="linearGradient3698-5">
      <stop
         style="stop-color:#000000;stop-opacity:1;"
         offset="0"
         id="stop3700-4" />
      <stop
         id="stop3706-4"
         offset="0.5"
         style="stop-color:#0f3f6f;stop-opacity:1;" />
      <stop
         style="stop-color:#000000;stop-opacity:1;"
         offset="1"
         id="stop3702-0" />
    </linearGradient>
    <radialGradient
       inkscape:collect="always"
       xlink:href="#linearGradient3700"
       id="radialGradient3715"
       gradientUnits="userSpaceOnUse"
       cx="1024"
       cy="494"
       fx="1024"
       fy="494"
       r="256" />
    <linearGradient
       id="linearGradient3700">
      <stop
         style="stop-color:#000000;stop-opacity:0;"
         offset="0"
         id="stop3705" />
      <stop
         id="stop3707"
         offset="0.31"
         style="stop-color:#000000;stop-opacity:0;" />
      <stop
         style="stop-color:#000000;stop-opacity:0.18431373;"
         offset="0.44"
         id="stop3709" />
      <stop
         id="stop3711"
         offset="0.85000002"
         style="stop-color:#000000;stop-opacity:0;" />
      <stop
         id="stop3713"
         offset="1"
         style="stop-color:#000000;stop-opacity:0;" />
    </linearGradient>
    <radialGradient
       inkscape:collect="always"
       xlink:href="#linearGradient3681"
       id="radialGradient3687"
       cx="1024"
       cy="494"
       fx="1024"
       fy="494"
       r="256"
       gradientUnits="userSpaceOnUse" />
    <linearGradient
       id="linearGradient3681">
      <stop
         id="stop3691"
         offset="0"
         style="stop-color:#1f7fff;stop-opacity:0;" />
      <stop
         style="stop-color:#1f7fff;stop-opacity:0;"
         offset="0.31"
         id="stop3695" />
      <stop
         id="stop3689"
         offset="0.44"
         style="stop-color:#1f7fff;stop-opacity:0.18431373;" />
      <stop
         style="stop-color:#1f7fff;stop-opacity:0;"
         offset="0.85000002"
         id="stop3704" />
      <stop
         style="stop-color:#1f7fff;stop-opacity:0;"
         offset="1"
         id="stop3685" />
    </linearGradient>
    <filter
       style="color-interpolation-filters:sRGB"
       inkscape:collect="always"
       id="filter3852"
       inkscape:label="BlurGlow">
      <feGaussianBlur
         inkscape:collect="always"
         stdDeviation="7"
         id="feGaussianBlur3854" />
    </filter>
    <filter
       style="color-interpolation-filters:sRGB"
       inkscape:collect="always"
       id="filter3806"
       x="-0.075428568"
       width="1.1508571"
       y="-0.132"
       height="1.2640001"
       inkscape:label="BlurShadow">
      <feGaussianBlur
         inkscape:collect="always"
         stdDeviation="6"
         id="feGaussianBlur3808" />
    </filter>
    <linearGradient
       inkscape:collect="always"
       xlink:href="#linearGradient3699"
       id="linearGradient3836"
       x1="1024"
       y1="640"
       x2="1024"
       y2="384"
       gradientUnits="userSpaceOnUse" />
    <linearGradient
       inkscape:collect="always"
       xlink:href="#linearGradient3674"
       id="linearGradient3680"
       x1="1024"
       y1="592"
       x2="1024"
       y2="384"
       gradientUnits="userSpaceOnUse" />
    <linearGradient
       inkscape:collect="always"
       xlink:href="#linearGradient3699"
       id="linearGradient3672"
       x1="1024"
       y1="592"
       x2="1024"
       y2="384"
       gradientUnits="userSpaceOnUse" />
    <linearGradient
       inkscape:collect="always"
       xlink:href="#linearGradient3699"
       id="linearGradient7859"
       gradientUnits="userSpaceOnUse"
       x1="1024"
       y1="640"
       x2="1024"
       y2="440" />
    <linearGradient
       inkscape:collect="always"
       xlink:href="#linearGradient3674"
       id="linearGradient4196"
       x1="1024"
       y1="640"
       x2="1024"
       y2="440"
       gradientUnits="userSpaceOnUse" />
    <linearGradient
       inkscape:collect="always"
       xlink:href="#linearGradient3699"
       id="linearGradient4214"
       x1="1024"
       y1="640"
       x2="1024"
       y2="440"
       gradientUnits="userSpaceOnUse" />
    <linearGradient
       id="linearGradient3606-5">
      <stop
         style="stop-color:#bfdfff;stop-opacity:1;"
         offset="0"
         id="stop3608-2" />
      <stop
         id="stop3616"
         offset="0.2"
         style="stop-color:#5fafff;stop-opacity:1;" />
      <stop
         id="stop3614-2"
         offset="0.80000001"
         style="stop-color:#5fafff;stop-opacity:1;" />
      <stop
         style="stop-color:#bfdfff;stop-opacity:1;"
         offset="1"
         id="stop3610-6" />
    </linearGradient>
    <clipPath
       clipPathUnits="userSpaceOnUse"
       id="clipPath6411">
      <path
         inkscape:connector-curvature="0"
         id="path6413"
         d="M 0,541.86666 0,0 l 541.86666,0 0,541.86666 -541.86666,0 z m 38.704615,-12.88604 a 32.269414,32.269414 0 0 0 3.221508,-0.16123 32.269414,32.269414 0 0 0 3.189468,-0.48214 32.269414,32.269414 0 0 0 6.155697,-1.90427 32.269414,32.269414 0 0 0 10.582299,-7.23935 32.269414,32.269414 0 0 0 4.004924,-5.04724 32.269414,32.269414 0 0 0 1.605071,-2.79828 32.269414,32.269414 0 0 0 1.317749,-2.94401 32.269414,32.269414 0 0 0 1.723409,-6.2084 32.269414,32.269414 0 0 0 0.469222,-5.48442 32.269414,32.269414 0 0 0 -1.441257,-9.53637 32.269414,32.269414 0 0 0 -2.50889,-5.93452 32.269414,32.269414 0 0 0 -1.686203,-2.75022 32.269414,32.269414 0 0 0 -11.995649,-10.53786 32.269414,32.269414 0 0 0 -2.944006,-1.31775 32.269414,32.269414 0 0 0 -6.208408,-1.72341 32.269414,32.269414 0 0 0 -3.202387,-0.38861 32.269414,32.269414 0 0 0 -2.282547,-0.0811 32.269414,32.269414 0 0 0 -9.536369,1.44178 32.269414,32.269414 0 0 0 -5.934522,2.50889 32.269414,32.269414 0 0 0 -2.749703,1.68568 32.269414,32.269414 0 0 0 -7.056934,6.57428 32.269414,32.269414 0 0 0 -1.875854,2.62361 32.269414,32.269414 0 0 0 -4.6462283,11.95069 32.269414,32.269414 0 0 0 -0.4697386,5.48494 32.269414,32.269414 0 0 0 0.1612305,3.22151 32.269414,32.269414 0 0 0 0.4821409,3.18946 32.269414,32.269414 0 0 0 3.3072915,9.0594 32.269414,32.269414 0 0 0 5.836336,7.67808 32.269414,32.269414 0 0 0 2.423625,2.12907 32.269414,32.269414 0 0 0 2.623613,1.87586 32.269414,32.269414 0 0 0 17.435112,5.11596 z m 77.409745,0 a 32.269414,32.269414 0 0 0 32.26935,-32.26934 32.269414,32.269414 0 0 0 -32.26935,-32.26935 32.269414,32.269414 0 0 0 -32.26935,32.26935 32.269414,32.269414 0 0 0 32.26935,32.26934 z m 77.40922,0 a 32.269414,32.269414 0 0 0 32.26987,-32.26934 32.269414,32.269414 0 0 0 -32.26987,-32.26935 32.269414,32.269414 0 0 0 -32.26934,32.26935 32.269414,32.269414 0 0 0 32.26934,32.26934 z m 77.40975,0 a 32.269414,32.269414 0 0 0 32.26935,-32.26934 32.269414,32.269414 0 0 0 -32.26935,-32.26935 32.269414,32.269414 0 0 0 -32.26935,32.26935 32.269414,32.269414 0 0 0 32.26935,32.26934 z m 77.40975,0 a 32.269414,32.269414 0 0 0 32.26935,-32.26934 32.269414,32.269414 0 0 0 -32.26935,-32.26935 32.269414,32.269414 0 0 0 -32.26988,32.26935 32.269414,32.269414 0 0 0 32.26988,32.26934 z m 77.40923,0 a 32.269414,32.269414 0 0 0 32.26935,-32.26934 32.269414,32.269414 0 0 0 -32.26935,-32.26935 32.269414,32.269414 0 0 0 -32.26935,32.26935 32.269414,32.269414 0 0 0 32.26935,32.26934 z m 77.40972,0 a 32.269414,32.269414 0 0 0 32.26935,-32.26934 32.269414,32.269414 0 0 0 -32.26935,-32.26935 32.269414,32.269414 0 0 0 -32.26932,32.26935 32.269414,32.269414 0 0 0 32.26932,32.26934 z M 38.704615,438.66934 A 32.269414,32.269414 0 0 0 70.973962,406.39999 32.269414,32.269414 0 0 0 38.704615,374.13065 32.269414,32.269414 0 0 0 6.4352661,406.39999 32.269414,32.269414 0 0 0 38.704615,438.66934 Z m 77.409745,0 a 32.269414,32.269414 0 0 0 32.26935,-32.26935 32.269414,32.269414 0 0 0 -32.26935,-32.26934 32.269414,32.269414 0 0 0 -32.26935,32.26934 32.269414,32.269414 0 0 0 32.26935,32.26935 z m 77.40922,0 a 32.269414,32.269414 0 0 0 32.26987,-32.26935 32.269414,32.269414 0 0 0 -32.26987,-32.26934 32.269414,32.269414 0 0 0 -32.26934,32.26934 32.269414,32.269414 0 0 0 32.26934,32.26935 z m 77.40975,0 a 32.269414,32.269414 0 0 0 32.26935,-32.26935 32.269414,32.269414 0 0 0 -32.26935,-32.26934 32.269414,32.269414 0 0 0 -32.26935,32.26934 32.269414,32.269414 0 0 0 32.26935,32.26935 z m 77.40975,0 a 32.269414,32.269414 0 0 0 32.26935,-32.26935 32.269414,32.269414 0 0 0 -32.26935,-32.26934 32.269414,32.269414 0 0 0 -32.26988,32.26934 32.269414,32.269414 0 0 0 32.26988,32.26935 z m 77.40923,0 a 32.269414,32.269414 0 0 0 32.26935,-32.26935 32.269414,32.269414 0 0 0 -32.26935,-32.26934 32.269414,32.269414 0 0 0 -32.26935,32.26934 32.269414,32.269414 0 0 0 32.26935,32.26935 z m 77.40972,0 a 32.269414,32.269414 0 0 0 32.26935,-32.26935 32.269414,32.269414 0 0 0 -32.26935,-32.26934 32.269414,32.269414 0 0 0 -32.26932,32.26934 32.269414,32.269414 0 0 0 32.26932,32.26935 z M 38.704615,348.35858 A 32.269414,32.269414 0 0 0 70.973962,316.08871 32.269414,32.269414 0 0 0 38.704615,283.81936 32.269414,32.269414 0 0 0 6.4352661,316.08871 32.269414,32.269414 0 0 0 38.704615,348.35858 Z m 77.409745,0 a 32.269414,32.269414 0 0 0 32.26935,-32.26987 32.269414,32.269414 0 0 0 -32.26935,-32.26935 32.269414,32.269414 0 0 0 -32.26935,32.26935 32.269414,32.269414 0 0 0 32.26935,32.26987 z m 77.40922,0 a 32.269414,32.269414 0 0 0 32.26987,-32.26987 32.269414,32.269414 0 0 0 -32.26987,-32.26935 32.269414,32.269414 0 0 0 -32.26934,32.26935 32.269414,32.269414 0 0 0 32.26934,32.26987 z m 77.40975,0 a 32.269414,32.269414 0 0 0 32.26935,-32.26987 32.269414,32.269414 0 0 0 -32.26935,-32.26935 32.269414,32.269414 0 0 0 -32.26935,32.26935 32.269414,32.269414 0 0 0 32.26935,32.26987 z m 77.40975,0 a 32.269414,32.269414 0 0 0 32.26935,-32.26987 32.269414,32.269414 0 0 0 -32.26935,-32.26935 32.269414,32.269414 0 0 0 -32.26988,32.26935 32.269414,32.269414 0 0 0 32.26988,32.26987 z m 77.40923,0 a 32.269414,32.269414 0 0 0 32.26935,-32.26987 32.269414,32.269414 0 0 0 -32.26935,-32.26935 32.269414,32.269414 0 0 0 -32.26935,32.26935 32.269414,32.269414 0 0 0 32.26935,32.26987 z m 77.40972,0 a 32.269414,32.269414 0 0 0 32.26935,-32.26987 32.269414,32.269414 0 0 0 -32.26935,-32.26935 32.269414,32.269414 0 0 0 -32.26932,32.26935 32.269414,32.269414 0 0 0 32.26932,32.26987 z M 38.704615,258.0473 A 32.269414,32.269414 0 0 0 70.973962,225.77795 32.269414,32.269414 0 0 0 38.704615,193.5086 32.269414,32.269414 0 0 0 6.4352661,225.77795 32.269414,32.269414 0 0 0 38.704615,258.0473 Z m 77.409745,0 a 32.269414,32.269414 0 0 0 32.26935,-32.26935 32.269414,32.269414 0 0 0 -32.26935,-32.26935 32.269414,32.269414 0 0 0 -32.26935,32.26935 32.269414,32.269414 0 0 0 32.26935,32.26935 z m 77.40922,0 a 32.269414,32.269414 0 0 0 32.26987,-32.26935 32.269414,32.269414 0 0 0 -32.26987,-32.26935 32.269414,32.269414 0 0 0 -32.26934,32.26935 32.269414,32.269414 0 0 0 32.26934,32.26935 z m 77.40975,0 a 32.269414,32.269414 0 0 0 32.26935,-32.26935 32.269414,32.269414 0 0 0 -32.26935,-32.26935 32.269414,32.269414 0 0 0 -32.26935,32.26935 32.269414,32.269414 0 0 0 32.26935,32.26935 z m 77.40975,0 a 32.269414,32.269414 0 0 0 32.26935,-32.26935 32.269414,32.269414 0 0 0 -32.26935,-32.26935 32.269414,32.269414 0 0 0 -32.26988,32.26935 32.269414,32.269414 0 0 0 32.26988,32.26935 z m 77.40923,0 a 32.269414,32.269414 0 0 0 32.26935,-32.26935 32.269414,32.269414 0 0 0 -32.26935,-32.26935 32.269414,32.269414 0 0 0 -32.26935,32.26935 32.269414,32.269414 0 0 0 32.26935,32.26935 z m 77.40972,0 a 32.269414,32.269414 0 0 0 32.26935,-32.26935 32.269414,32.269414 0 0 0 -32.26935,-32.26935 32.269414,32.269414 0 0 0 -32.26932,32.26935 32.269414,32.269414 0 0 0 32.26932,32.26935 z M 38.704615,167.73602 A 32.269414,32.269414 0 0 0 70.973962,135.46666 32.269414,32.269414 0 0 0 38.704615,103.19731 32.269414,32.269414 0 0 0 6.4352661,135.46666 32.269414,32.269414 0 0 0 38.704615,167.73602 Z m 77.409745,0 a 32.269414,32.269414 0 0 0 32.26935,-32.26936 32.269414,32.269414 0 0 0 -32.26935,-32.26935 32.269414,32.269414 0 0 0 -32.26935,32.26935 32.269414,32.269414 0 0 0 32.26935,32.26936 z m 77.40922,0 a 32.269414,32.269414 0 0 0 32.26987,-32.26936 32.269414,32.269414 0 0 0 -32.26987,-32.26935 32.269414,32.269414 0 0 0 -32.26934,32.26935 32.269414,32.269414 0 0 0 32.26934,32.26936 z m 77.40975,0 a 32.269414,32.269414 0 0 0 32.26935,-32.26936 32.269414,32.269414 0 0 0 -32.26935,-32.26935 32.269414,32.269414 0 0 0 -32.26935,32.26935 32.269414,32.269414 0 0 0 32.26935,32.26936 z m 77.40975,0 a 32.269414,32.269414 0 0 0 32.26935,-32.26936 32.269414,32.269414 0 0 0 -32.26935,-32.26935 32.269414,32.269414 0 0 0 -32.26988,32.26935 32.269414,32.269414 0 0 0 32.26988,32.26936 z m 77.40923,0 a 32.269414,32.269414 0 0 0 32.26935,-32.26936 32.269414,32.269414 0 0 0 -32.26935,-32.26935 32.269414,32.269414 0 0 0 -32.26935,32.26935 32.269414,32.269414 0 0 0 32.26935,32.26936 z m 77.40972,0 a 32.269414,32.269414 0 0 0 32.26935,-32.26936 32.269414,32.269414 0 0 0 -32.26935,-32.26935 32.269414,32.269414 0 0 0 -32.26932,32.26935 32.269414,32.269414 0 0 0 32.26932,32.26936 z M 38.704615,77.42526 A 32.269414,32.269414 0 0 0 70.973962,45.15538 32.269414,32.269414 0 0 0 38.704615,12.88603 32.269414,32.269414 0 0 0 6.4352661,45.15538 32.269414,32.269414 0 0 0 38.704615,77.42526 Z m 77.409745,0 A 32.269414,32.269414 0 0 0 148.38371,45.15538 32.269414,32.269414 0 0 0 116.11436,12.88603 32.269414,32.269414 0 0 0 83.84501,45.15538 32.269414,32.269414 0 0 0 116.11436,77.42526 Z m 77.40922,0 a 32.269414,32.269414 0 0 0 32.26987,-32.26988 32.269414,32.269414 0 0 0 -32.26987,-32.26935 32.269414,32.269414 0 0 0 -32.26934,32.26935 32.269414,32.269414 0 0 0 32.26934,32.26988 z m 77.40975,0 a 32.269414,32.269414 0 0 0 32.26935,-32.26988 32.269414,32.269414 0 0 0 -32.26935,-32.26935 32.269414,32.269414 0 0 0 -32.26935,32.26935 32.269414,32.269414 0 0 0 32.26935,32.26988 z m 77.40975,0 A 32.269414,32.269414 0 0 0 380.61243,45.15538 32.269414,32.269414 0 0 0 348.34308,12.88603 32.269414,32.269414 0 0 0 316.0732,45.15538 32.269414,32.269414 0 0 0 348.34308,77.42526 Z m 77.40923,0 a 32.269414,32.269414 0 0 0 32.26935,-32.26988 32.269414,32.269414 0 0 0 -32.26935,-32.26935 32.269414,32.269414 0 0 0 -32.26935,32.26935 32.269414,32.269414 0 0 0 32.26935,32.26988 z m 77.40972,0 a 32.269414,32.269414 0 0 0 32.26935,-32.26988 32.269414,32.269414 0 0 0 -32.26935,-32.26935 32.269414,32.269414 0 0 0 -32.26932,32.26935 32.269414,32.269414 0 0 0 32.26932,32.26988 z"
         style="display:inline;opacity:1;fill:#e6458b;fill-opacity:1;stroke:none;stroke-width:3.96875;stroke-linecap:butt;stroke-linejoin:miter;stroke-miterlimit:4.9000001;stroke-dasharray:none;stroke-opacity:1" />
    </clipPath>
    <filter
       inkscape:collect="always"
       id="filter3806-9"
       x="-0.075428568"
       width="1.1508571"
       y="-0.132"
       height="1.2640001"
       inkscape:label="BlurShadow"
       style="color-interpolation-filters:sRGB">
      <feGaussianBlur
         inkscape:collect="always"
         stdDeviation="6"
         id="feGaussianBlur3808-3" />
    </filter>
    <filter
       inkscape:collect="always"
       id="filter3852-9"
       inkscape:label="BlurGlow"
       style="color-interpolation-filters:sRGB">
      <feGaussianBlur
         inkscape:collect="always"
         stdDeviation="7"
         id="feGaussianBlur3854-1" />
    </filter>
    <linearGradient
       inkscape:collect="always"
       xlink:href="#linearGradient3606-5"
       id="linearGradient3612"
       x1="1024"
       y1="1592"
       x2="1024"
       y2="1480"
       gradientUnits="userSpaceOnUse"
       gradientTransform="translate(0,-1024)" />
    <linearGradient
       inkscape:collect="always"
       xlink:href="#linearGradient3698-5"
       id="linearGradient3704"
       x1="1024"
       y1="1600"
       x2="1024"
       y2="1376"
       gradientUnits="userSpaceOnUse"
       gradientTransform="translate(0,-1024)" />
    <linearGradient
       inkscape:collect="always"
       xlink:href="#linearGradient3606-5"
       id="linearGradient7785"
       x1="1024"
       y1="1592"
       x2="1024"
       y2="1480"
       gradientUnits="userSpaceOnUse"
       gradientTransform="translate(0,-1024)" />
    <linearGradient
       inkscape:collect="always"
       xlink:href="#linearGradient3698-5"
       id="linearGradient7797"
       x1="1024"
       y1="1600"
       x2="1024"
       y2="1376"
       gradientUnits="userSpaceOnUse"
       gradientTransform="translate(0,-1024)" />
    <linearGradient
       inkscape:collect="always"
       xlink:href="#linearGradient3606-5"
       id="linearGradient7815"
       x1="1024"
       y1="1592"
       x2="1024"
       y2="1480"
       gradientUnits="userSpaceOnUse"
       gradientTransform="translate(0,-1024)" />
    <linearGradient
       inkscape:collect="always"
       xlink:href="#linearGradient3698-5"
       id="linearGradient7827"
       x1="1024"
       y1="1600"
       x2="1024"
       y2="1376"
       gradientUnits="userSpaceOnUse"
       gradientTransform="translate(0,-1024)" />
    <linearGradient
       inkscape:collect="always"
       xlink:href="#linearGradient3606-5"
       id="linearGradient7845"
       x1="1024"
       y1="1592"
       x2="1024"
       y2="1480"
       gradientUnits="userSpaceOnUse"
       gradientTransform="translate(0,-1024)" />
    <linearGradient
       inkscape:collect="always"
       xlink:href="#linearGradient3698-5"
       id="linearGradient7857"
       x1="1024"
       y1="1600"
       x2="1024"
       y2="1376"
       gradientUnits="userSpaceOnUse"
       gradientTransform="translate(0,-1024)" />
    <linearGradient
       inkscape:collect="always"
       xlink:href="#linearGradient3606-5"
       id="linearGradient7875"
       x1="1024"
       y1="1592"
       x2="1024"
       y2="1480"
       gradientUnits="userSpaceOnUse"
       gradientTransform="translate(0,-1024)" />
    <linearGradient
       inkscape:collect="always"
       xlink:href="#linearGradient3698-5"
       id="linearGradient7887"
       x1="1024"
       y1="1600"
       x2="1024"
       y2="1376"
       gradientUnits="userSpaceOnUse"
       gradientTransform="translate(0,-1024)" />
    <linearGradient
       inkscape:collect="always"
       xlink:href="#linearGradient3698-5"
       id="linearGradient7897"
       x1="1024"
       y1="1600"
       x2="1024"
       y2="1376"
       gradientUnits="userSpaceOnUse"
       gradientTransform="translate(0,-1024)" />
    <linearGradient
       y2="1480"
       x2="1024"
       y1="1592"
       x1="1024"
       gradientTransform="translate(0,-1024)"
       gradientUnits="userSpaceOnUse"
       id="linearGradient7933"
       xlink:href="#linearGradient3606-5"
       inkscape:collect="always" />
    <linearGradient
       y2="1376"
       x2="1024"
       y1="1600"
       x1="1024"
       gradientTransform="translate(0,-1024)"
       gradientUnits="userSpaceOnUse"
       id="linearGradient7935"
       xlink:href="#linearGradient3698-5"
       inkscape:collect="always" />
    <linearGradient
       y2="1480"
       x2="1024"
       y1="1592"
       x1="1024"
       gradientTransform="translate(0,-1024)"
       gradientUnits="userSpaceOnUse"
       id="linearGradient7937"
       xlink:href="#linearGradient3606-5"
       inkscape:collect="always" />
    <linearGradient
       y2="1376"
       x2="1024"
       y1="1600"
       x1="1024"
       gradientTransform="translate(0,-1024)"
       gradientUnits="userSpaceOnUse"
       id="linearGradient7939"
       xlink:href="#linearGradient3698-5"
       inkscape:collect="always" />
    <linearGradient
       y2="1480"
       x2="1024"
       y1="1592"
       x1="1024"
       gradientTransform="translate(0,-1024)"
       gradientUnits="userSpaceOnUse"
       id="linearGradient7941"
       xlink:href="#linearGradient3606-5"
       inkscape:collect="always" />
    <linearGradient
       y2="1376"
       x2="1024"
       y1="1600"
       x1="1024"
       gradientTransform="translate(0,-1024)"
       gradientUnits="userSpaceOnUse"
       id="linearGradient7943"
       xlink:href="#linearGradient3698-5"
       inkscape:collect="always" />
    <linearGradient
       y2="1480"
       x2="1024"
       y1="1592"
       x1="1024"
       gradientTransform="translate(0,-1024)"
       gradientUnits="userSpaceOnUse"
       id="linearGradient7945"
       xlink:href="#linearGradient3606-5"
       inkscape:collect="always" />
    <linearGradient
       y2="1376"
       x2="1024"
       y1="1600"
       x1="1024"
       gradientTransform="translate(0,-1024)"
       gradientUnits="userSpaceOnUse"
       id="linearGradient7947"
       xlink:href="#linearGradient3698-5"
       inkscape:collect="always" />
    <filter
       inkscape:collect="always"
       id="filter3806-9-6"
       x="-0.075428568"
       width="1.1508571"
       y="-0.132"
       height="1.2640001"
       inkscape:label="BlurShadow"
       style="color-interpolation-filters:sRGB">
      <feGaussianBlur
         inkscape:collect="always"
         stdDeviation="6"
         id="feGaussianBlur3808-3-1" />
    </filter>
    <filter
       inkscape:collect="always"
       id="filter3852-9-1"
       inkscape:label="BlurGlow"
       style="color-interpolation-filters:sRGB">
      <feGaussianBlur
         inkscape:collect="always"
         stdDeviation="7"
         id="feGaussianBlur3854-1-2" />
    </filter>
    <linearGradient
       inkscape:collect="always"
       xlink:href="#linearGradient3606-5"
       id="linearGradient8197"
       gradientUnits="userSpaceOnUse"
       gradientTransform="translate(0,-1024)"
       x1="1024"
       y1="1592"
       x2="1024"
       y2="1480" />
    <linearGradient
       inkscape:collect="always"
       xlink:href="#linearGradient3698-5"
       id="linearGradient8199"
       gradientUnits="userSpaceOnUse"
       gradientTransform="translate(0,-1024)"
       x1="1024"
       y1="1600"
       x2="1024"
       y2="1376" />
    <filter
       inkscape:collect="always"
       id="filter3806-4"
       x="-0.075428568"
       width="1.1508571"
       y="-0.132"
       height="1.2640001"
       inkscape:label="BlurShadow"
       style="color-interpolation-filters:sRGB">
      <feGaussianBlur
         inkscape:collect="always"
         stdDeviation="6"
         id="feGaussianBlur3808-2" />
    </filter>
    <filter
       inkscape:collect="always"
       id="filter3852-6"
       inkscape:label="BlurGlow"
       style="color-interpolation-filters:sRGB">
      <feGaussianBlur
         inkscape:collect="always"
         stdDeviation="7"
         id="feGaussianBlur3854-7" />
    </filter>
    <linearGradient
       inkscape:collect="always"
       xlink:href="#linearGradient3606-5"
       id="linearGradient8266"
       gradientUnits="userSpaceOnUse"
       gradientTransform="translate(0,-1024)"
       x1="1024"
       y1="1592"
       x2="1024"
       y2="1480" />
    <linearGradient
       inkscape:collect="always"
       xlink:href="#linearGradient3698-5"
       id="linearGradient8268"
       gradientUnits="userSpaceOnUse"
       gradientTransform="translate(0,-1024)"
       x1="1024"
       y1="1600"
       x2="1024"
       y2="1376" />
  </defs>
  <sodipodi:namedview
     id="base"
     pagecolor="#ffffff"
     bordercolor="#666666"
     borderopacity="1.0"
     inkscape:pageopacity="0.0"
     inkscape:pageshadow="2"
     inkscape:zoom="0.49497475"
     inkscape:cx="978.60607"
     inkscape:cy="1011.7581"
     inkscape:document-units="px"
     inkscape:current-layer="svg2"
     showgrid="false"
     units="px"
     inkscape:window-width="1785"
     inkscape:window-height="1171"
     inkscape:window-x="1276"
     inkscape:window-y="0"
     inkscape:window-maximized="1"
     inkscape:snap-page="false"
     inkscape:object-nodes="false"
     inkscape:snap-others="false" />
  <metadata
     id="metadata7">
    <rdf:RDF>
      <cc:Work
         rdf:about="">
        <dc:format>image/svg+xml</dc:format>
        <dc:type
           rdf:resource="http://purl.org/dc/dcmitype/StillImage" />
        <dc:title />
      </cc:Work>
    </rdf:RDF>
  </metadata>
  <g
     inkscape:groupmode="layer"
     id="layer7"
     inkscape:label="background"
     style="display:inline">
    <g
       inkscape:groupmode="layer"
       id="layer4"
       inkscape:label="logo"
       style="display:inline">
      <g
         style="opacity:1"
         transform="matrix(0.39975339,0,0,0.39975339,-137.80167,25.268668)"
         id="Background">
        <path
           inkscape:connector-curvature="0"
           id="BackgroundShadow"
           d="m 1024,238 c -141.3849,0 -256,114.61514 -256,256 0,141.38486 114.6151,256 256,256 141.3849,0 256,-114.61514 256,-256 0,-141.38486 -114.6151,-256 -256,-256 z"
           style="fill:url(#radialGradient3715);fill-opacity:1;stroke:none" />
        <path
           inkscape:connector-curvature="0"
           id="BackgroundGlow"
           d="m 1024,238 c -141.3849,0 -256,114.61514 -256,256 0,141.38486 114.6151,256 256,256 141.3849,0 256,-114.61514 256,-256 0,-141.38486 -114.6151,-256 -256,-256 z"
           style="fill:url(#radialGradient3687);fill-opacity:1;stroke:none" />
      </g>
      <path
         inkscape:connector-curvature="0"
         style="opacity:1;fill:#000000;fill-opacity:1;stroke:#000000;stroke-width:8;stroke-miterlimit:4;stroke-dasharray:none;stroke-opacity:1;filter:url(#filter3852)"
         d="m 873.31548,1158.3216 c -43.30025,20.5296 -73.28125,64.6413 -73.28125,115.7188 0,70.656 57.344,128 128.0001,128 70.656,0 127.99997,-57.344 127.99997,-128 0,-51.0775 -29.9809,-95.1892 -73.28117,-115.7188 34.17527,19.1854 57.28117,55.7626 57.28117,97.7188 0,54.5462 -39.0631,100.0173 -90.71877,109.9688 -6.8922,1.3277 -15.2812,32.0312 -21.2812,32.0312 -6,0 -14.3892,-30.7034 -21.2814,-32.0312 -51.65555,-9.9516 -90.7187,-55.4226 -90.7187,-109.9688 0,-41.9562 23.1059,-78.5334 57.28125,-97.7188 z"
         id="RingShadow"
         transform="matrix(0.39975339,0,0,0.39975339,-99.439023,-279.35954)" />
      <g
         style="opacity:1"
         transform="matrix(0.39975339,0,0,0.39975339,-137.80167,25.268668)"
         id="PhoenixWings">
        <path
           inkscape:connector-curvature="0"
           sodipodi:nodetypes="cccsccsccsccscccccccccccccccccccccccccccsccsccsccscccccccccccccccccccccccc"
           id="PhoenixWingsShadow"
           d="m 963.1564,392.59366 c -42.0773,21.5031 -71.5053,64.6482 -73.0937,115.18754 -1.8047,57.4284 32.8771,107.5971 83.0937,128.2188 -33.9373,-6.472 -64.4034,-4.6532 -70.125,-20.625 -9.0599,-25.2922 -35.7391,-19.5329 -35.5,5.2812 -15.9172,-0.5544 -41.5116,-6.8278 -66.375,23.125 -0.3236,-69.3254 88.7025,-51.3827 68.3438,-92.2187 -11.4573,-22.9812 -47.1194,-3.6252 -33.2188,11.7187 -43.7311,8.6319 -78.6774,-7.9545 -143.7812,23.7188 57.9038,-87.515 183.1784,-49.3092 177.375,-96.9688 -4.4479,-36.52854 -59.0747,-17.88214 -40.3438,5.9376 -32.8596,11.1489 -92.7975,-23.66494 -186.0312,-6 86.8789,-71.80594 245.6412,-13.53974 252.25,-59.78144 5.2199,-36.5233 -48.6339,-37.3963 -46.9688,-7.3125 -69.5102,-34.2136 -90.7714,-6.9472 -182.6562,-37.8125 106.7993,-1.3978 205.2723,-40.0233 297.0312,7.5313 z m -146.1874,45.75 c -72.1386,-4.1051 -67.8282,6.7189 -105.75,2.9062 9.5721,-34.9773 -83.3977,-18.1818 -24.9063,4.1875 -122.3622,-6.045 -120.1966,41.321 -243.2187,18.5313 138.9101,-14.4677 251.7149,-95.7363 373.875,-25.625 z M 617.7502,498.2188 c -33.6187,14.8186 -54.0136,42.4886 -123.9688,36.4687 47.1809,2.2177 83.6544,-55.76864 123.9688,-36.4687 z M 804.0627,511.25 c -71.7584,7.7129 -47.6423,20.7324 -82.2813,23.1875 4.3319,-33.8963 -76.6293,-6.2663 -21.7187,7.0937 -109.4336,15.7829 -83.3162,59.8172 -196.5313,44.375 114.6242,-14.995 145.9733,-121.46254 300.5313,-74.6562 z m 25.5313,71.4062 c -33.6461,9.7591 -25.5352,19.343 -43.6563,22.9063 -6.9518,-35.849 -69.7214,18.9937 -12.5,15.25 -61.62,10.5711 -48.8094,43.131 -111.4063,35.1563 56.3342,-14.164 68.1221,-100.8935 167.5626,-73.3126 z m -153.1563,22.875 c -25.8486,15.1417 -22.8468,30.7866 -86.1875,35.6876 32.9392,-0.19 60.583,-52.5888 86.1875,-35.6876 z m 408.4061,-212.93754 c 42.0773,21.5031 71.5052,64.6482 73.0936,115.18744 1.8046,57.4284 -32.8771,107.5971 -83.0937,128.2189 33.9373,-6.4721 64.4034,-4.6533 70.125,-20.625 9.0599,-25.2922 35.7391,-19.533 35.5,5.2811 15.9172,-0.5544 41.5116,-6.8278 66.375,23.125 0.3236,-69.3254 -88.7025,-51.3827 -68.3438,-92.2186 11.4573,-22.9813 47.1194,-3.6252 33.2188,11.7186 43.7311,8.6319 78.6774,-7.9544 143.7813,23.7189 -57.904,-87.515 -183.1785,-49.3093 -177.375,-96.9689 4.4477,-36.52844 59.0745,-17.88204 40.3438,5.9376 32.8596,11.149 92.7975,-23.66484 186.0313,-6 -86.879,-71.80584 -245.6415,-13.53964 -252.2501,-59.78134 -5.2201,-36.5233 48.6339,-37.3964 46.9688,-7.3125 69.5102,-34.2136 90.7714,-6.9472 182.6563,-37.8125 -106.7994,-1.3979 -205.2726,-40.0233 -297.0313,7.5313 z m 146.1873,45.75 c 72.1386,-4.1051 67.8282,6.7189 105.75,2.9062 -9.5721,-34.9773 83.3977,-18.1818 24.9065,4.1875 122.3622,-6.045 120.1965,41.321 243.2185,18.5313 -138.9101,-14.4677 -251.7149,-95.7363 -373.875,-25.625 z m 199.219,59.87504 c 33.6185,14.8187 54.0135,42.4887 123.9687,36.4688 -47.1808,2.2177 -83.6544,-55.76864 -123.9687,-36.4688 z m -186.3126,13.0312 c 71.7582,7.7129 47.6422,20.7324 82.2813,23.1876 -4.3319,-33.8963 76.6293,-6.2663 21.7187,7.0936 109.4337,15.783 83.3162,59.8172 196.5313,44.375 -114.6243,-14.9949 -145.9734,-121.46244 -300.5313,-74.6562 z m -25.5314,71.4062 c 33.6461,9.7592 25.5351,19.343 43.6564,22.9064 6.9518,-35.8491 69.7212,18.9936 12.5,15.25 61.6197,10.5711 48.8092,43.1309 111.4061,35.1563 -56.3342,-14.1641 -68.122,-100.8936 -167.5625,-73.3127 z m 153.1565,22.875 c 25.8485,15.1418 22.8468,30.7866 86.1875,35.6877 -32.9393,-0.19 -60.5834,-52.5888 -86.1875,-35.6877 z"
           style="fill:#000000;fill-opacity:1;fill-rule:evenodd;stroke:#000000;stroke-width:8;stroke-linejoin:round;stroke-miterlimit:4;stroke-dasharray:none;stroke-opacity:1;filter:url(#filter3806)" />
        <path
           inkscape:connector-curvature="0"
           style="fill:url(#linearGradient3836);fill-opacity:1;fill-rule:evenodd;stroke:none;filter:url(#filter3852)"
           d="m 963.1564,392.59366 c -42.0773,21.5031 -71.5053,64.6482 -73.0937,115.18754 -1.8047,57.4284 32.8771,107.5971 83.0937,128.2188 -33.9373,-6.472 -64.4034,-4.6532 -70.125,-20.625 -9.0599,-25.2922 -35.7391,-19.5329 -35.5,5.2812 -15.9172,-0.5544 -41.5116,-6.8278 -66.375,23.125 -0.3236,-69.3254 88.7025,-51.3827 68.3438,-92.2187 -11.4573,-22.9812 -47.1194,-3.6252 -33.2188,11.7187 -43.7311,8.6319 -78.6774,-7.9545 -143.7812,23.7188 57.9038,-87.515 183.1784,-49.3092 177.375,-96.9688 -4.4479,-36.52854 -59.0747,-17.88214 -40.3438,5.9376 -32.8596,11.1489 -92.7975,-23.66494 -186.0312,-6 86.8789,-71.80594 245.6412,-13.53974 252.25,-59.78144 5.2199,-36.5233 -48.6339,-37.3963 -46.9688,-7.3125 -69.5102,-34.2136 -90.7714,-6.9472 -182.6562,-37.8125 106.7993,-1.3978 205.2723,-40.0233 297.0312,7.5313 z m -146.1874,45.75 c -72.1386,-4.1051 -67.8282,6.7189 -105.75,2.9062 9.5721,-34.9773 -83.3977,-18.1818 -24.9063,4.1875 -122.3622,-6.045 -120.1966,41.321 -243.2187,18.5313 138.9101,-14.4677 251.7149,-95.7363 373.875,-25.625 z M 617.7502,498.2188 c -33.6187,14.8186 -54.0136,42.4886 -123.9688,36.4687 47.1809,2.2177 83.6544,-55.76864 123.9688,-36.4687 z M 804.0627,511.25 c -71.7584,7.7129 -47.6423,20.7324 -82.2813,23.1875 4.3319,-33.8963 -76.6293,-6.2663 -21.7187,7.0937 -109.4336,15.7829 -83.3162,59.8172 -196.5313,44.375 114.6242,-14.995 145.9733,-121.46254 300.5313,-74.6562 z m 25.5313,71.4062 c -33.6461,9.7591 -25.5352,19.343 -43.6563,22.9063 -6.9518,-35.849 -69.7214,18.9937 -12.5,15.25 -61.62,10.5711 -48.8094,43.131 -111.4063,35.1563 56.3342,-14.164 68.1221,-100.8935 167.5626,-73.3126 z m -153.1563,22.875 c -25.8486,15.1417 -22.8468,30.7866 -86.1875,35.6876 32.9392,-0.19 60.583,-52.5888 86.1875,-35.6876 z m 408.4061,-212.93754 c 42.0773,21.5031 71.5052,64.6482 73.0936,115.18744 1.8046,57.4284 -32.8771,107.5971 -83.0937,128.2189 33.9373,-6.4721 64.4034,-4.6533 70.125,-20.625 9.0599,-25.2922 35.7391,-19.533 35.5,5.2811 15.9172,-0.5544 41.5116,-6.8278 66.375,23.125 0.3236,-69.3254 -88.7025,-51.3827 -68.3438,-92.2186 11.4573,-22.9813 47.1194,-3.6252 33.2188,11.7186 43.7311,8.6319 78.6774,-7.9544 143.7813,23.7189 -57.904,-87.515 -183.1785,-49.3093 -177.375,-96.9689 4.4477,-36.52844 59.0745,-17.88204 40.3438,5.9376 32.8596,11.149 92.7975,-23.66484 186.0313,-6 -86.879,-71.80584 -245.6415,-13.53964 -252.2501,-59.78134 -5.2201,-36.5233 48.6339,-37.3964 46.9688,-7.3125 69.5102,-34.2136 90.7714,-6.9472 182.6563,-37.8125 -106.7994,-1.3979 -205.2726,-40.0233 -297.0313,7.5313 z m 146.1873,45.75 c 72.1386,-4.1051 67.8282,6.7189 105.75,2.9062 -9.5721,-34.9773 83.3977,-18.1818 24.9065,4.1875 122.3622,-6.045 120.1965,41.321 243.2185,18.5313 -138.9101,-14.4677 -251.7149,-95.7363 -373.875,-25.625 z m 199.219,59.87504 c 33.6185,14.8187 54.0135,42.4887 123.9687,36.4688 -47.1808,2.2177 -83.6544,-55.76864 -123.9687,-36.4688 z m -186.3126,13.0312 c 71.7582,7.7129 47.6422,20.7324 82.2813,23.1876 -4.3319,-33.8963 76.6293,-6.2663 21.7187,7.0936 109.4337,15.783 83.3162,59.8172 196.5313,44.375 -114.6243,-14.9949 -145.9734,-121.46244 -300.5313,-74.6562 z m -25.5314,71.4062 c 33.6461,9.7592 25.5351,19.343 43.6564,22.9064 6.9518,-35.8491 69.7212,18.9936 12.5,15.25 61.6197,10.5711 48.8092,43.1309 111.4061,35.1563 -56.3342,-14.1641 -68.122,-100.8936 -167.5625,-73.3127 z m 153.1565,22.875 c 25.8485,15.1418 22.8468,30.7866 86.1875,35.6877 -32.9393,-0.19 -60.5834,-52.5888 -86.1875,-35.6877 z"
           id="PhoenixWingsGlow"
           sodipodi:nodetypes="cccsccsccsccscccccccccccccccccccccccccccsccsccsccscccccccccccccccccccccccc" />
        <path
           inkscape:connector-curvature="0"
           sodipodi:nodetypes="cccsccsccsccscccccccccccccccccccccccccccsccsccsccscccccccccccccccccccccccc"
           id="PhoenixWingsFill"
           d="m 963.1564,392.59366 c -42.0773,21.5031 -71.5053,64.6482 -73.0937,115.18754 -1.8047,57.4284 32.8771,107.5971 83.0937,128.2188 -33.9373,-6.472 -64.4034,-4.6532 -70.125,-20.625 -9.0599,-25.2922 -35.7391,-19.5329 -35.5,5.2812 -15.9172,-0.5544 -41.5116,-6.8278 -66.375,23.125 -0.3236,-69.3254 88.7025,-51.3827 68.3438,-92.2187 -11.4573,-22.9812 -47.1194,-3.6252 -33.2188,11.7187 -43.7311,8.6319 -78.6774,-7.9545 -143.7812,23.7188 57.9038,-87.515 183.1784,-49.3092 177.375,-96.9688 -4.4479,-36.52854 -59.0747,-17.88214 -40.3438,5.9376 -32.8596,11.1489 -92.7975,-23.66494 -186.0312,-6 86.8789,-71.80594 245.6412,-13.53974 252.25,-59.78144 5.2199,-36.5233 -48.6339,-37.3963 -46.9688,-7.3125 -69.5102,-34.2136 -90.7714,-6.9472 -182.6562,-37.8125 106.7993,-1.3978 205.2723,-40.0233 297.0312,7.5313 z m -146.1874,45.75 c -72.1386,-4.1051 -67.8282,6.7189 -105.75,2.9062 9.5721,-34.9773 -83.3977,-18.1818 -24.9063,4.1875 -122.3622,-6.045 -120.1966,41.321 -243.2187,18.5313 138.9101,-14.4677 251.7149,-95.7363 373.875,-25.625 z M 617.7502,498.2188 c -33.6187,14.8186 -54.0136,42.4886 -123.9688,36.4687 47.1809,2.2177 83.6544,-55.76864 123.9688,-36.4687 z M 804.0627,511.25 c -71.7584,7.7129 -47.6423,20.7324 -82.2813,23.1875 4.3319,-33.8963 -76.6293,-6.2663 -21.7187,7.0937 -109.4336,15.7829 -83.3162,59.8172 -196.5313,44.375 114.6242,-14.995 145.9733,-121.46254 300.5313,-74.6562 z m 25.5313,71.4062 c -33.6461,9.7591 -25.5352,19.343 -43.6563,22.9063 -6.9518,-35.849 -69.7214,18.9937 -12.5,15.25 -61.62,10.5711 -48.8094,43.131 -111.4063,35.1563 56.3342,-14.164 68.1221,-100.8935 167.5626,-73.3126 z m -153.1563,22.875 c -25.8486,15.1417 -22.8468,30.7866 -86.1875,35.6876 32.9392,-0.19 60.583,-52.5888 86.1875,-35.6876 z m 408.4061,-212.93754 c 42.0773,21.5031 71.5052,64.6482 73.0936,115.18744 1.8046,57.4284 -32.8771,107.5971 -83.0937,128.2189 33.9373,-6.4721 64.4034,-4.6533 70.125,-20.625 9.0599,-25.2922 35.7391,-19.533 35.5,5.2811 15.9172,-0.5544 41.5116,-6.8278 66.375,23.125 0.3236,-69.3254 -88.7025,-51.3827 -68.3438,-92.2186 11.4573,-22.9813 47.1194,-3.6252 33.2188,11.7186 43.7311,8.6319 78.6774,-7.9544 143.7813,23.7189 -57.904,-87.515 -183.1785,-49.3093 -177.375,-96.9689 4.4477,-36.52844 59.0745,-17.88204 40.3438,5.9376 32.8596,11.149 92.7975,-23.66484 186.0313,-6 -86.879,-71.80584 -245.6415,-13.53964 -252.2501,-59.78134 -5.2201,-36.5233 48.6339,-37.3964 46.9688,-7.3125 69.5102,-34.2136 90.7714,-6.9472 182.6563,-37.8125 -106.7994,-1.3979 -205.2726,-40.0233 -297.0313,7.5313 z m 146.1873,45.75 c 72.1386,-4.1051 67.8282,6.7189 105.75,2.9062 -9.5721,-34.9773 83.3977,-18.1818 24.9065,4.1875 122.3622,-6.045 120.1965,41.321 243.2185,18.5313 -138.9101,-14.4677 -251.7149,-95.7363 -373.875,-25.625 z m 199.219,59.87504 c 33.6185,14.8187 54.0135,42.4887 123.9687,36.4688 -47.1808,2.2177 -83.6544,-55.76864 -123.9687,-36.4688 z m -186.3126,13.0312 c 71.7582,7.7129 47.6422,20.7324 82.2813,23.1876 -4.3319,-33.8963 76.6293,-6.2663 21.7187,7.0936 109.4337,15.783 83.3162,59.8172 196.5313,44.375 -114.6243,-14.9949 -145.9734,-121.46244 -300.5313,-74.6562 z m -25.5314,71.4062 c 33.6461,9.7592 25.5351,19.343 43.6564,22.9064 6.9518,-35.8491 69.7212,18.9936 12.5,15.25 61.6197,10.5711 48.8092,43.1309 111.4061,35.1563 -56.3342,-14.1641 -68.122,-100.8936 -167.5625,-73.3127 z m 153.1565,22.875 c 25.8485,15.1418 22.8468,30.7866 86.1875,35.6877 -32.9393,-0.19 -60.5834,-52.5888 -86.1875,-35.6877 z"
           style="fill:url(#linearGradient3680);fill-opacity:1;fill-rule:evenodd;stroke:url(#linearGradient3672);stroke-width:2;stroke-linejoin:round;stroke-miterlimit:4;stroke-dasharray:none"
           inkscape:export-xdpi="45"
           inkscape:export-ydpi="45" />
      </g>
      <g
         style="opacity:1"
         transform="matrix(0.3997534,0,0,0.3997534,-137.80167,25.268668)"
         id="PhoenixHead">
        <path
           inkscape:connector-curvature="0"
           sodipodi:nodetypes="cccccccsccccccccccc"
           id="PhoenixHeadShadow"
           d="m 1057.0938,439.71875 c -34.0014,5.48439 -77.51225,47.9452 -119.9063,82.0625 l 52.125,-24.0625 -30.125,32.03125 26.03125,-12.1875 c -8.54487,16.84277 -7.62992,45.97673 -35.75,51.71875 14.64181,14.49069 33.4581,24.78052 54.50005,28.8125 C 1014,600 1021,628 1024,628 c 3,0 10,-28 20.0312,-29.90625 21.8482,-4.18648 41.2906,-15.12031 56.1563,-30.5 -74.3924,0.92961 -69.6917,-74.54814 -3.9687,-91.0625 -5.069,-4.72305 -21.9395,-3.83806 -35.75,-1.65625 2.4067,-16.09443 25.2286,-23.80249 42.0937,-21.71875 -9.6384,-9.77813 -21.3735,-16.84255 -40.8437,-8.71875 l -4.625,-4.71875 z m -9.3438,13.5625 5.0625,5 c -6.6098,5.59761 -12.4827,5.96968 -18.0625,0.96875 l 13,-5.96875 z"
           style="fill:#000000;fill-opacity:1;fill-rule:evenodd;stroke:#000000;stroke-width:8;stroke-linejoin:round;stroke-miterlimit:4;stroke-dasharray:none;stroke-opacity:1;filter:url(#filter3806)" />
        <path
           inkscape:connector-curvature="0"
           style="fill:url(#linearGradient7859);fill-opacity:1;fill-rule:evenodd;stroke:none;filter:url(#filter3852)"
           d="m 1057.0938,439.71875 c -34.0014,5.48439 -77.51225,47.9452 -119.9063,82.0625 l 52.125,-24.0625 -30.125,32.03125 26.03125,-12.1875 c -8.54487,16.84277 -7.62992,45.97673 -35.75,51.71875 14.64181,14.49069 33.4581,24.78052 54.50005,28.8125 C 1014,600 1021,628 1024,628 c 3,0 10,-28 20.0312,-29.90625 21.8482,-4.18648 41.2906,-15.12031 56.1563,-30.5 -74.3924,0.92961 -69.6917,-74.54814 -3.9687,-91.0625 -5.069,-4.72305 -21.9395,-3.83806 -35.75,-1.65625 2.4067,-16.09443 25.2286,-23.80249 42.0937,-21.71875 -9.6384,-9.77813 -21.3735,-16.84255 -40.8437,-8.71875 l -4.625,-4.71875 z m -9.3438,13.5625 5.0625,5 c -6.6098,5.59761 -12.4827,5.96968 -18.0625,0.96875 l 13,-5.96875 z"
           id="PhoenixHeadGlow"
           sodipodi:nodetypes="cccccccsccccccccccc" />
        <path
           inkscape:connector-curvature="0"
           sodipodi:nodetypes="cccccccsccccccccccc"
           id="PhoenixHeadFill"
           d="m 1057.0938,439.71875 c -34.0014,5.48439 -77.51225,47.9452 -119.9063,82.0625 l 52.125,-24.0625 -30.125,32.03125 26.03125,-12.1875 c -8.54487,16.84277 -7.62992,45.97673 -35.75,51.71875 14.64181,14.49069 33.4581,24.78052 54.50005,28.8125 C 1014,600 1021,628 1024,628 c 3,0 10,-28 20.0312,-29.90625 21.8482,-4.18648 41.2906,-15.12031 56.1563,-30.5 -74.3924,0.92961 -69.6917,-74.54814 -3.9687,-91.0625 -5.069,-4.72305 -21.9395,-3.83806 -35.75,-1.65625 2.4067,-16.09443 25.2286,-23.80249 42.0937,-21.71875 -9.6384,-9.77813 -21.3735,-16.84255 -40.8437,-8.71875 l -4.625,-4.71875 z m -9.3438,13.5625 5.0625,5 c -6.6098,5.59761 -12.4827,5.96968 -18.0625,0.96875 l 13,-5.96875 z"
           style="fill:url(#linearGradient4196);fill-opacity:1;fill-rule:evenodd;stroke:url(#linearGradient4214);stroke-width:2;stroke-linejoin:round;stroke-miterlimit:4;stroke-dasharray:none;stroke-opacity:1" />
      </g>
      <g
         transform="matrix(0.26458333,0,0,0.26458333,-69.774404,270.93328)"
         id="LetterX">
        <path
           style="fill:#000000;fill-opacity:1;stroke:#000000;stroke-width:8;stroke-miterlimit:4;stroke-dasharray:none;stroke-opacity:1;filter:url(#filter3806-9)"
           d="m 317.25,456 c 0,0 27.92,0.75 32.75,6 L 396.09375,512 350,562 c -5.52,6 -34,6 -34,6 l 48,0 c 4,0 8.31499,0 12,-4 L 410,527.0938 444,564 c 3.68501,4 8,4 12,4 l 48,0 c 0,0 -28.48,0 -34,-6 L 423.90625,512 470,462 c 4.83,-5.25 32.75,-6 32.75,-6 L 456,456 c -4,0 -8.31499,0 -12,4 L 410,496.9063 376,460 c -3.68501,-4 -8,-4 -12,-4 l -46.75,0 z"
           id="LetterXShadow"
           sodipodi:nodetypes="cccccsscscccccccscssc"
           inkscape:connector-curvature="0" />
        <path
           style="fill:#1f7fff;fill-opacity:1;stroke:none;filter:url(#filter3852-9)"
           d="m 317.25,456 c 0,0 27.92,0.75 32.75,6 L 396.09375,512 350,562 c -5.52,6 -34,6 -34,6 l 48,0 c 4,0 8.31499,0 12,-4 L 410,527.0938 444,564 c 3.68501,4 8,4 12,4 l 48,0 c 0,0 -28.48,0 -34,-6 L 423.90625,512 470,462 c 4.83,-5.25 32.75,-6 32.75,-6 L 456,456 c -4,0 -8.31499,0 -12,4 L 410,496.9063 376,460 c -3.68501,-4 -8,-4 -12,-4 l -46.75,0 z"
           id="LetterXGlow"
           sodipodi:nodetypes="cccccsscscccccccscssc"
           inkscape:connector-curvature="0" />
        <path
           sodipodi:nodetypes="cccccsscscccccccscssc"
           id="LetterXBorder"
           d="m 317.25,456 c 0,0 27.92,0.75 32.75,6 L 396.09375,512 350,562 c -5.52,6 -34,6 -34,6 l 48,0 c 4,0 8.31499,0 12,-4 L 410,527.0938 444,564 c 3.68501,4 8,4 12,4 l 48,0 c 0,0 -28.48,0 -34,-6 L 423.90625,512 470,462 c 4.83,-5.25 32.75,-6 32.75,-6 L 456,456 c -4,0 -8.31499,0 -12,4 L 410,496.9063 376,460 c -3.68501,-4 -8,-4 -12,-4 l -46.75,0 z"
           style="fill:url(#linearGradient7933);fill-opacity:1;stroke:none"
           inkscape:connector-curvature="0" />
        <path
           sodipodi:nodetypes="ccccccccccccccccc"
           id="LetterXFill"
           d="m 400,512 -49,53 16,0 c 3,0 4.15,0 6,-2 l 37,-40 37,40 c 1.85,2 3,2 6,2 l 16,0 -49,-53 49,-53 -16,0 c -3,0 -4.15,0 -6,2 l -37,40 -37,-40 c -1.85,-2 -3,-2 -6,-2 l -16,0 49,53 z"
           style="fill:url(#linearGradient7935);fill-opacity:1;stroke:#00001f;stroke-width:1.5;stroke-miterlimit:4;stroke-dasharray:none;stroke-opacity:1"
           inkscape:connector-curvature="0" />
      </g>
      <g
         transform="matrix(0.26458333,0,0,0.26458333,-39.46072,270.93328)"
         id="LetterO">
        <path
           style="fill:#000000;fill-opacity:1;stroke:#000000;stroke-width:8;stroke-miterlimit:4;stroke-dasharray:none;stroke-opacity:1;filter:url(#filter3806-9)"
           d="m 540,456 c -12,0 -24,16 -24,32 l 0,48 c 0,16 12,32 24,32 l 96,0 c 12,0 24,-16 24,-32 l 0,-48 c 0,-16 -12,-32 -24,-32 l -96,0 z m 12,20 72,0 c 10,0 12,8 12,16 l 0,40 c 0,8 -2,16 -12,16 l -72,0 c -10,0 -12,-8 -12,-16 l 0,-40 c 0,-8 2,-16 12,-16 z"
           id="LetterOShadow"
           sodipodi:nodetypes="cccccccccccccccccc"
           inkscape:connector-curvature="0" />
        <path
           style="fill:#1f7fff;fill-opacity:1;stroke:none;filter:url(#filter3852-9)"
           d="m 540,456 c -12,0 -24,16 -24,32 l 0,48 c 0,16 12,32 24,32 l 96,0 c 12,0 24,-16 24,-32 l 0,-48 c 0,-16 -12,-32 -24,-32 l -96,0 z m 12,20 72,0 c 10,0 12,8 12,16 l 0,40 c 0,8 -2,16 -12,16 l -72,0 c -10,0 -12,-8 -12,-16 l 0,-40 c 0,-8 2,-16 12,-16 z"
           id="LetterOGlow"
           sodipodi:nodetypes="cccccccccccccccccc"
           inkscape:connector-curvature="0" />
        <path
           sodipodi:nodetypes="cccccccccccccccccc"
           id="LetterOBorder"
           d="m 540,456 c -12,0 -24,16 -24,32 l 0,48 c 0,16 12,32 24,32 l 96,0 c 12,0 24,-16 24,-32 l 0,-48 c 0,-16 -12,-32 -24,-32 l -96,0 z m 12,20 72,0 c 10,0 12,8 12,16 l 0,40 c 0,8 -2,16 -12,16 l -72,0 c -10,0 -12,-8 -12,-16 l 0,-40 c 0,-8 2,-16 12,-16 z"
           style="fill:url(#linearGradient7937);fill-opacity:1;stroke:none"
           inkscape:connector-curvature="0" />
        <path
           sodipodi:nodetypes="cccccccccccccccccc"
           id="LetterOFill"
           d="m 541,459 c -12,0 -22,16 -22,30 l 0,46 c 0,14 10,30 22,30 l 94,0 c 12,0 22,-16 22,-30 l 0,-46 c 0,-14 -10,-30 -22,-30 l -94,0 z m 12,14 70,0 c 12,0 15.99471,8.0001 15.875,20.1563 l 0,37.6875 C 638.99471,543 635,551 623,551 l -70,0 c -12,0 -15.99471,-8 -15.875,-20.1562 l 0,-37.6875 C 537.00529,481.0001 541,473 553,473 Z"
           style="fill:url(#linearGradient7939);fill-opacity:1;stroke:#00001f;stroke-width:1.5;stroke-miterlimit:4;stroke-dasharray:none;stroke-opacity:1"
           inkscape:connector-curvature="0" />
      </g>
      <g
         transform="matrix(0.26458333,0,0,0.26458333,-11.263707,270.93328)"
         id="LetterN">
        <path
           style="fill:#000000;fill-opacity:1;stroke:#000000;stroke-width:8;stroke-miterlimit:4;stroke-dasharray:none;stroke-opacity:1;filter:url(#filter3806-9)"
           d="m 676,456 c 0,0 38.66667,0 52,0 4,0 5.94939,2.0519 8,4 l 80,76 0,-74 c 0,-6 -32,-6 -32,-6 l 88,0 c 0,0 -32,0 -32,6 l 0,100 c 0,6 32,6 32,6 0,0 -36,0 -48,0 -4,0 -5.95183,-2.0494 -8,-4 l -84,-80 0,78 c 0,6 32,6 32,6 l -88,0 c 0,0 32,0 32,-6 l 0,-100 c 0,-6 -32,-6 -32,-6 z"
           id="LetterNShadow"
           sodipodi:nodetypes="csscccccccssccccccc"
           inkscape:connector-curvature="0" />
        <path
           style="fill:#1f7fff;fill-opacity:1;stroke:none;filter:url(#filter3852-9)"
           d="m 676,456 c 0,0 38.66667,0 52,0 4,0 5.94939,2.0519 8,4 l 80,76 0,-74 c 0,-6 -32,-6 -32,-6 l 88,0 c 0,0 -32,0 -32,6 l 0,100 c 0,6 32,6 32,6 0,0 -36,0 -48,0 -4,0 -5.95183,-2.0494 -8,-4 l -84,-80 0,78 c 0,6 32,6 32,6 l -88,0 c 0,0 32,0 32,-6 l 0,-100 c 0,-6 -32,-6 -32,-6 z"
           id="LetterNGlow"
           sodipodi:nodetypes="csscccccccssccccccc"
           inkscape:connector-curvature="0" />
        <path
           sodipodi:nodetypes="csscccccccssccccccc"
           id="LetterNBorder"
           d="m 676,456 c 0,0 38.66667,0 52,0 4,0 5.94939,2.0519 8,4 l 80,76 0,-74 c 0,-6 -32,-6 -32,-6 l 88,0 c 0,0 -32,0 -32,6 l 0,100 c 0,6 32,6 32,6 0,0 -36,0 -48,0 -4,0 -5.95183,-2.0494 -8,-4 l -84,-80 0,78 c 0,6 32,6 32,6 l -88,0 c 0,0 32,0 32,-6 l 0,-100 c 0,-6 -32,-6 -32,-6 z"
           style="fill:url(#linearGradient7941);fill-opacity:1;stroke:none"
           inkscape:connector-curvature="0" />
        <path
           sodipodi:nodetypes="ccccccccccccccccc"
           id="LetterNFill"
           d="m 839,459 -22,0 c 0,0 2,1 2,2 l 0,82 -89,-84 -21,0 c 0,0 2,1 2,2 l 0,102 c 0,1 -2,2 -2,2 l 22,0 c 0,0 -2,-1 -2,-2 l 0,-86 93,88 17,0 c 0,0 -2,-1 -2,-2 l 0,-102 c 0,-1 2,-2 2,-2 z"
           style="fill:url(#linearGradient7943);fill-opacity:1;stroke:#00001f;stroke-width:1.5;stroke-miterlimit:4;stroke-dasharray:none;stroke-opacity:1"
           inkscape:connector-curvature="0" />
      </g>
      <g
         transform="matrix(0.26458333,0,0,0.26458333,13.909491,270.93328)"
         id="LetterT">
        <path
           style="fill:#000000;fill-opacity:1;stroke:#000000;stroke-width:8;stroke-miterlimit:4;stroke-dasharray:none;stroke-opacity:1;filter:url(#filter3806-9)"
           d="m 1220,568 88,0 c 0,0 -32,0 -32,-6 l 0,-86 40,0 c 8,0 12.3729,-14.1865 16,-16 8,-4 32,-4 32,-4 l -200,0 c 0,0 24,0 32,4 3.6271,1.8135 8,16 16,16 l 40,0 0,86 c 0,6 -32,6 -32,6 z"
           id="LetterTShadow"
           sodipodi:nodetypes="cccccsccscccc"
           inkscape:connector-curvature="0" />
        <path
           style="fill:#1f7fff;fill-opacity:1;stroke:none;filter:url(#filter3852-9)"
           d="m 1220,568 88,0 c 0,0 -32,0 -32,-6 l 0,-86 40,0 c 8,0 12.3729,-14.1865 16,-16 8,-4 32,-4 32,-4 l -200,0 c 0,0 24,0 32,4 3.6271,1.8135 8,16 16,16 l 40,0 0,86 c 0,6 -32,6 -32,6 z"
           id="LetterTGlow"
           sodipodi:nodetypes="cccccsccscccc"
           inkscape:connector-curvature="0" />
        <path
           sodipodi:nodetypes="cccccsccscccc"
           id="LetterTBorder"
           d="m 1220,568 88,0 c 0,0 -32,0 -32,-6 l 0,-86 40,0 c 8,0 12.3729,-14.1865 16,-16 8,-4 32,-4 32,-4 l -200,0 c 0,0 24,0 32,4 3.6271,1.8135 8,16 16,16 l 40,0 0,86 c 0,6 -32,6 -32,6 z"
           style="fill:url(#linearGradient7945);fill-opacity:1;stroke:none"
           inkscape:connector-curvature="0" />
        <path
           sodipodi:nodetypes="ccccccccccc"
           id="LetterTFill"
           d="m 1212,473 43,0 0,90 c 0,1 -2,2 -2,2 l 22,0 c 0,0 -2,-1 -2,-2 l 0,-90 43,0 c 4,0 12,-14 12,-14 0,0 -128,0 -128,0 0,0 8,14 12,14 z"
           style="fill:url(#linearGradient7947);fill-opacity:1;stroke:#00001f;stroke-width:1.5;stroke-miterlimit:4;stroke-dasharray:none;stroke-opacity:1"
           inkscape:connector-curvature="0" />
      </g>
      <g
         transform="matrix(0.26458333,0,0,0.26458333,84.018669,270.93328)"
         id="LetterC">
        <path
           style="fill:#000000;fill-opacity:1;stroke:#000000;stroke-width:8;stroke-miterlimit:4;stroke-dasharray:none;stroke-opacity:1;filter:url(#filter3806-9)"
           d="m 1540,456 c -12,0 -24,16 -24,32 l 0,48 c 0,16 12,32 24,32 l 96,0 c 20,0 16,-48 16,-48 0,0 -4,28 -28,28 l -72,0 c -10,0 -12,-8 -12,-16 l 0,-40 c 0,-8 2,-16 12,-16 l 72,0 c 24,0 28,28 28,28 0,0 4,-48 -16,-48 l -96,0 z"
           id="LetterCShadow"
           sodipodi:nodetypes="ccccccccccccccc"
           inkscape:connector-curvature="0" />
        <path
           style="fill:#1f7fff;fill-opacity:1;stroke:none;filter:url(#filter3852-9)"
           d="m 1540,456 c -12,0 -24,16 -24,32 l 0,48 c 0,16 12,32 24,32 l 96,0 c 20,0 16,-48 16,-48 0,0 -4,28 -28,28 l -72,0 c -10,0 -12,-8 -12,-16 l 0,-40 c 0,-8 2,-16 12,-16 l 72,0 c 24,0 28,28 28,28 0,0 4,-48 -16,-48 l -96,0 z"
           id="LetterCGlow"
           sodipodi:nodetypes="ccccccccccccccc"
           inkscape:connector-curvature="0" />
        <path
           sodipodi:nodetypes="ccccccccccccccc"
           id="LetterCBorder"
           d="m 1540,456 c -12,0 -24,16 -24,32 l 0,48 c 0,16 12,32 24,32 l 96,0 c 20,0 16,-48 16,-48 0,0 -4,28 -28,28 l -72,0 c -10,0 -12,-8 -12,-16 l 0,-40 c 0,-8 2,-16 12,-16 l 72,0 c 24,0 28,28 28,28 0,0 4,-48 -16,-48 l -96,0 z"
           style="fill:url(#linearGradient3612);fill-opacity:1;stroke:none"
           inkscape:connector-curvature="0" />
        <path
           sodipodi:nodetypes="ccccccccccccccc"
           id="LetterCFill"
           d="m 1541,459 c -12,0 -22,16 -22,30 l 0,46 c 0,14 10,30 22,30 l 94,0 c 14,0 15,-31 15,-31 0,0 -6,17 -27,17 l -70,0 c -12,0 -15.9947,-8 -15.875,-20.1562 l 0,-37.6875 C 1537.0053,481.0001 1541,473 1553,473 l 70,0 c 21,0 27,17 27,17 0,0 -1,-31 -15,-31 l -94,0 z"
           style="fill:url(#linearGradient3704);fill-opacity:1;stroke:#00001f;stroke-width:1.5;stroke-miterlimit:4;stroke-dasharray:none;stroke-opacity:1"
           inkscape:connector-curvature="0" />
      </g>
      <g
         style="display:inline"
         transform="matrix(0.26458333,0,0,0.26458333,115.35831,270.93328)"
         id="LetterO-2">
        <path
           style="fill:#000000;fill-opacity:1;stroke:#000000;stroke-width:8;stroke-miterlimit:4;stroke-dasharray:none;stroke-opacity:1;filter:url(#filter3806-9-6)"
           d="m 540,456 c -12,0 -24,16 -24,32 l 0,48 c 0,16 12,32 24,32 l 96,0 c 12,0 24,-16 24,-32 l 0,-48 c 0,-16 -12,-32 -24,-32 l -96,0 z m 12,20 72,0 c 10,0 12,8 12,16 l 0,40 c 0,8 -2,16 -12,16 l -72,0 c -10,0 -12,-8 -12,-16 l 0,-40 c 0,-8 2,-16 12,-16 z"
           id="LetterOShadow-9"
           sodipodi:nodetypes="cccccccccccccccccc"
           inkscape:connector-curvature="0" />
        <path
           style="fill:#1f7fff;fill-opacity:1;stroke:none;filter:url(#filter3852-9-1)"
           d="m 540,456 c -12,0 -24,16 -24,32 l 0,48 c 0,16 12,32 24,32 l 96,0 c 12,0 24,-16 24,-32 l 0,-48 c 0,-16 -12,-32 -24,-32 l -96,0 z m 12,20 72,0 c 10,0 12,8 12,16 l 0,40 c 0,8 -2,16 -12,16 l -72,0 c -10,0 -12,-8 -12,-16 l 0,-40 c 0,-8 2,-16 12,-16 z"
           id="LetterOGlow-0"
           sodipodi:nodetypes="cccccccccccccccccc"
           inkscape:connector-curvature="0" />
        <path
           sodipodi:nodetypes="cccccccccccccccccc"
           id="LetterOBorder-9"
           d="m 540,456 c -12,0 -24,16 -24,32 l 0,48 c 0,16 12,32 24,32 l 96,0 c 12,0 24,-16 24,-32 l 0,-48 c 0,-16 -12,-32 -24,-32 l -96,0 z m 12,20 72,0 c 10,0 12,8 12,16 l 0,40 c 0,8 -2,16 -12,16 l -72,0 c -10,0 -12,-8 -12,-16 l 0,-40 c 0,-8 2,-16 12,-16 z"
           style="fill:url(#linearGradient8197);fill-opacity:1;stroke:none"
           inkscape:connector-curvature="0" />
        <path
           sodipodi:nodetypes="cccccccccccccccccc"
           id="LetterOFill-5"
           d="m 541,459 c -12,0 -22,16 -22,30 l 0,46 c 0,14 10,30 22,30 l 94,0 c 12,0 22,-16 22,-30 l 0,-46 c 0,-14 -10,-30 -22,-30 l -94,0 z m 12,14 70,0 c 12,0 15.99471,8.0001 15.875,20.1563 l 0,37.6875 C 638.99471,543 635,551 623,551 l -70,0 c -12,0 -15.99471,-8 -15.875,-20.1562 l 0,-37.6875 C 537.00529,481.0001 541,473 553,473 Z"
           style="fill:url(#linearGradient8199);fill-opacity:1;stroke:#00001f;stroke-width:1.5;stroke-miterlimit:4;stroke-dasharray:none;stroke-opacity:1"
           inkscape:connector-curvature="0" />
      </g>
      <g
         transform="matrix(0.26458333,0,0,0.26458333,48.985679,270.93328)"
         id="LetterI">
        <path
           style="fill:#000000;fill-opacity:1;stroke:#000000;stroke-width:8;stroke-miterlimit:4;stroke-dasharray:none;stroke-opacity:1;filter:url(#filter3806-4)"
           d="m 1380,456 88,0 c 0,0 -32,0 -32,6 l 0,100 c 0,6 32,6 32,6 l -88,0 c 0,0 32,0 32,-6 l 0,-100 c 0,-6 -32,-6 -32,-6 z"
           id="LetterIShadow"
           sodipodi:nodetypes="ccccccccc"
           inkscape:connector-curvature="0" />
        <path
           style="fill:#1f7fff;fill-opacity:1;stroke:none;filter:url(#filter3852-6)"
           d="m 1380,456 88,0 c 0,0 -32,0 -32,6 l 0,100 c 0,6 32,6 32,6 l -88,0 c 0,0 32,0 32,-6 l 0,-100 c 0,-6 -32,-6 -32,-6 z"
           id="LetterIGlow"
           sodipodi:nodetypes="ccccccccc"
           inkscape:connector-curvature="0" />
        <path
           sodipodi:nodetypes="ccccccccc"
           id="LetterIBorder"
           d="m 1380,456 88,0 c 0,0 -32,0 -32,6 l 0,100 c 0,6 32,6 32,6 l -88,0 c 0,0 32,0 32,-6 l 0,-100 c 0,-6 -32,-6 -32,-6 z"
           style="fill:url(#linearGradient8266);fill-opacity:1;stroke:none"
           inkscape:connector-curvature="0" />
        <path
           sodipodi:nodetypes="ccccccccc"
           id="LetterIFill"
           d="m 1433,461 c 0,-1 2,-2 2,-2 l -22,0 c 0,0 2,1 2,2 l 0,102 c 0,1 -2,2 -2,2 l 22,0 c 0,0 -2,-1 -2,-2 l 0,-102 z"
           style="fill:url(#linearGradient8268);fill-opacity:1;stroke:#00001f;stroke-width:1.5;stroke-miterlimit:4;stroke-dasharray:none;stroke-opacity:1"
           inkscape:connector-curvature="0" />
      </g>
    </g>
  </g>
</svg>
